o Bottle_3_0
v -0.00041780248 1.6337411e-09 -0.11798601
v 0.053461064 1.224385e-09 -0.1043921
v 0.096943658 1.0506419e-08 -0.067813002
v 0.11865747 8.7719543e-09 -0.0021576271
v 0.1108611 0.33891101 -0.031893846
v 0.10477938 8.9486038e-09 0.054683983
v 0.094395611 0.33718918 0.064157404
v 0.05931095 1.5010151e-08 0.10535366
v 0.0023955505 0.33920346 0.11793797
v -0.054296669 0 -0.1043921
v -0.099758971 1.0010385e-08 -0.065572552
v -0.11822589 8.6808551e-09 -0.0087152114
v -0.10142606 7.962824e-09 0.068296678
v -0.023726521 1.6444013e-08 0.11798601
v -0.081053827 0.33719397 0.081441119
v 0.022888478 0.34436847 -0.11636357
v 0.079806831 0.33912424 -0.083794467
v 0.11869736 0.3436702 0.0019317927
v 0.097564209 0.34340037 0.068517976
v 0.053458881 0.34377543 0.10599802
v -0.022782015 0.33824585 -0.11330695
v -0.077499818 0.33983601 -0.086105168
v -0.10453052 0.33896417 -0.049998574
v -0.11869736 0.34141416 0.00063647192
v -0.10430075 0.34372784 0.057220567
v -0.066400971 0.34311063 0.099555872
v 0.067747395 0.18389454 -0.093222767
v 0.01208955 0.18480588 -0.10012007
v 0.03705287 0.18482129 -0.093821883
v -0.012585684 0.18403221 -0.098444983
v -0.037263062 0.18282119 -0.10921056
vt 0.60259992 0.27698308
vt 0.60802162 0.27698302
vt 0.48417228 0.27630067
vt 0.50310206 0.27630067
vt 0.50807697 0.27630061
vt 0.54550934 0.27630061
vt 0.54619551 0.27630061
vt 0.57882524 0.27630061
vt 0.58422148 0.27630061
vt 0.58922803 0.27630061
vt 0.59749883 0.27630061
vt 0.60108966 0.27630061
vt 0.60990208 0.27630061
vt 0.61014581 0.27630061
vt 0.61351013 0.27630061
vt 0.47455996 0.27630055
vt 0.48802587 0.27630055
vt 0.47030267 0.23954308
vt 0.59376973 0.23337394
vt 0.47634235 0.21896368
vt 0.47634235 0.21896368
vt 0.58590412 0.21506119
vt 0.73853964 0.20934355
vt 0.77753282 0.20305669
vt 0.60489571 0.20059204
vt 0.60900128 0.2002207
vt 0.59580261 0.19960535
vt 0.60253125 0.19960535
vt 0.60784274 0.19934756
vt 0.60713398 0.19930959
vt 0.61120474 0.19930959
vt 0.60697824 0.19867265
vt 0.61177891 0.19866514
vt 0.68582094 0.19707143
vt 0.49598524 0.19621503
vt 0.49728718 0.19546986
vt 0.56574708 0.19534457
vt 0.56055725 0.19013309
vt 0.53022468 0.18431681
vt 0.52670062 0.18401659
vt 0.67729485 0.18049634
vt 0.81040132 0.17329741
vt 0.80489981 0.16804278
vt 0.65588665 0.16541457
vt 0.82643104 0.12272298
vt 0.64617121 0.12126362
vt 0.60763544 0.10943002
vt 0.59005302 0.1087476
vt 0.50549996 0.10874754
vt 0.553738 0.10874754
vt 0.60359114 0.10874754
vt 0.60359114 0.10874754
vt 0.60849291 0.10874754
vt 0.60849291 0.10874754
vt 0.61395258 0.10874754
vt 0.47640312 0.10874748
vt 0.48598218 0.10874748
vt 0.50941336 0.10874748
vt 0.54858887 0.10874748
vt 0.58876258 0.10874748
vt 0.81980753 0.097053051
vt 0.6552223 0.083340883
vt 0.79613709 0.057592869
vt 0.67683339 0.055764914
vt 0.71935368 0.036853313
vt 0.75367582 0.033338547
vn 0.097212195 0.061198711 -0.99338037
vn 0.47525048 -0.010147424 0.87979203
vn 0.92096424 0.0069795912 -0.38958451
vn -0.36925888 0.01948946 -0.92912215
vn -0.52947474 0.014718788 0.848198
vn -0.83733892 0.00068789965 -0.54668373
vn 0.0077228029 0.99996012 0.0044917306
vn 0.15442206 -0.071835838 -0.98539001
vn 0.22820975 0.85586172 -0.46413475
vn 0.83546883 -0.0020427634 -0.54953396
vn 0.84103495 0.0052718157 0.54095513
vn -0.2153262 -0.045282651 -0.97549176
vn 0.038598008 0.99923205 -0.0067477082
vn 0.99996626 -1.7886246e-05 -0.0082120821
vn -0.38661033 0.92059541 -0.055103905
vn 4.6931503e-09 -1 4.928383e-08
vn 0.43270597 0.039398253 -0.90067381
vn 0.43379077 0.88323849 -0.17808805
vn -0.17273752 0.93294829 -0.31586286
vn -0.9999153 0.0010047364 -0.012969048
vn -0.0032519391 0.99821454 -0.059642117
vn -0.007317679 0.009764161 0.99992555
vn -0.0087695234 0.9988215 0.047736332
vn 0.22331698 -0.0026175834 -0.97474241
vn -0.0065418431 0.99936515 0.035022233
vn -0.14863272 0.0059891129 -0.98887432
vn -0.89513189 0.0096629225 -0.44569671
vn 4.7465845e-09 -1 4.9244676e-08
vn 8.1460509e-09 -1 4.6753499e-08
vn 0.058491521 -0.0056143133 -0.99827206
vn 0.092433795 -0.010151559 -0.99566704
vn 0.4536621 0.006052318 0.89115316
vn 0.46575922 0.77686864 -0.42372572
vn 0.63667333 -0.0094116358 -0.77107614
vn 0.9999603 0.0001617104 0.0089114485
vn -0.051621757 0.99865776 -0.0042137178
vn -0.64084375 0.01629879 -0.76749831
vn -0.82317054 -0.013253927 0.56763953
vn -0.88370168 0.0076895286 0.46798745
vn -0.99901235 -0.0019321882 -0.0443912
vn 1.8179945e-09 -1 5.1390789e-08
vn 0.43456957 0.0032096729 -0.90063256
vn 0.8788256 -0.0040757302 0.4771257
vn -0.10349154 0.93764049 0.33184317
vn -0.20428525 -0.014989295 0.9787966
vn -0.41593024 0.87450498 -0.24948588
vn -0.62645477 0.63596976 -0.45066273
f 16/13/8 29/32/24 28/33/31
f 17/11/34 3/48/10 2/53/17 27/28/42
f 19/4/11 8/57/2 6/58/43
f 9/16/22 14/56/45 8/57/2
f 10/52/4 31/30/26 30/26/30 1/47/1
f 11/60/6 22/12/37 10/54/4
f 4/59/14 3/48/10 5/8/3 18/6/35
f 14/56/45 26/17/5 13/49/38
f 14/56/45 9/16/22 26/17/5
f 7/43/46 19/42/47 18/45/15
f 9/23/21 20/24/19 7/43/46
f 24/46/13 25/44/18 15/41/33
f 16/13/8 17/10/34 27/27/42 29/32/24
f 3/48/10 17/11/34 5/8/3
f 6/58/43 4/59/14 18/6/35 19/4/11
f 19/4/11 20/3/32 8/57/2
f 20/3/32 9/16/22 8/57/2
f 7/43/46 5/61/36 17/63/25 21/65/23 9/23/21
f 4/39/41 6/38/41 8/22/41 14/19/16 1/18/28 2/20/41 3/35/41
f 24/7/20 23/9/27 11/60/6 12/50/40
f 1/47/1 30/25/30 28/29/31
f 10/54/4 22/12/37 21/15/12 31/31/26
f 11/60/6 23/9/27 22/12/37
f 12/50/40 13/49/38 24/7/20
f 13/49/38 25/5/39 24/7/20
f 13/49/38 26/17/5 25/5/39
f 21/65/23 22/64/7 23/62/7 24/46/13 15/41/33 9/23/21
f 1/18/28 14/19/16 13/37/29 12/40/29 11/36/29 10/21/29
f 21/65/23 17/63/25 16/66/44
f 5/61/36 7/43/46 18/45/15
f 7/43/46 20/24/19 19/42/47
f 15/41/33 25/44/18 26/34/9
f 9/23/21 15/41/33 26/34/9
f 28/33/31 29/32/24 2/51/17 1/55/1
f 29/32/24 27/27/42 2/51/17
f 30/26/30 31/30/26 21/14/12
f 28/29/31 30/25/30 21/1/12 16/2/8
