o Bottle_1_0
v 0.00013003103 0 -0.093478248
v 0.042481016 8.9976588e-05 -0.082937315
v 0.082367279 6.1520983e-05 -0.047167316
v 0.092340015 7.7637602e-05 0.018261516
v 0.058068696 6.1227263e-05 0.074884765
v 0.00010970142 7.2438997e-05 0.093243726
v 0.001168554 0.37070275 0.087949164
v 0.0012606843 0.37075928 -0.088244841
v 0.058721345 0.37070552 -0.063121513
v 0.083636366 0.37070397 -0.017237555
v 0.070875756 0.37073723 0.051826298
v 0.0014950226 0.32075438 -0.1001021
v 0.052414805 0.32140875 -0.088734344
v 0.095995419 0.32068459 -0.036282048
v 0.098905988 0.31970254 0.031070961
v 0.065409563 0.32076514 0.07741037
v 0.030776294 0.32088051 0.095998026
v 0.0014950226 0.32075438 0.099897906
v 0.048722569 0.022577276 -0.088765793
v 0.079057969 0.02259114 -0.06394615
v 0.1004454 0.023256261 -0.021350997
v 0.092982829 0.022322701 0.045566037
v 0.050366592 0.02263119 0.087629817
v 0.0015099635 0.021275984 0.10067393
v 0.0015057831 0.020916212 -0.10067393
v 0.0028600141 2.3283064e-10 -0.093478248
v -0.039490975 8.9976574e-05 -0.082937315
v -0.079377234 6.1521034e-05 -0.047167301
v -0.089349963 7.7637682e-05 0.018261518
v -0.055078641 6.1227307e-05 0.074884772
v 0.0028803435 7.2439003e-05 0.093243726
v 0.0018214912 0.37070275 0.087949164
v 0.0017370682 0.37075803 -0.088142693
v -0.067652076 0.37073681 -0.052336954
v -0.080661625 0.37070424 0.016980376
v -0.055731289 0.37070552 0.062917329
v -0.029393744 0.32086629 -0.09565445
v -0.071841329 0.32095859 -0.069817163
v -0.1004454 0.31981758 -0.008511737
v -0.087177768 0.32070596 0.047127817
v -0.062419504 0.32076514 0.077410385
v -0.027786253 0.32088051 0.095998026
v -0.027530394 0.022570083 -0.09627413
v -0.077386118 0.022165151 -0.065197133
v -0.10044408 0.023368755 0.0082143731
v -0.077232867 0.022635001 0.06224617
v -0.039509922 0.022516455 0.092405654
vt 0.28050745 0.41056955
vt 0.28050745 0.41056955
vt 0.29835671 0.41056943
vt 0.30625361 0.41056931
vt 0.33064935 0.41056913
vt 0.3686305 0.41056913
vt 0.39311641 0.41056913
vt 0.4186894 0.41056913
vt 0.4186911 0.41056913
vt 0.40086204 0.41056907
vt 0.74490881 0.4042381
vt 0.7455219 0.4042381
vt 0.69148684 0.38073635
vt 0.81035542 0.37032318
vt 0.27258795 0.36398232
vt 0.28092322 0.36398232
vt 0.28092322 0.36398232
vt 0.29400054 0.36398232
vt 0.29400054 0.36398232
vt 0.31215373 0.36398232
vt 0.32525554 0.36398232
vt 0.35630381 0.36398232
vt 0.37871975 0.36398232
vt 0.400006 0.36398232
vt 0.41077721 0.36398232
vt 0.41779238 0.36398232
vt 0.42663082 0.36398232
vt 0.66808033 0.33760709
vt 0.82233608 0.3054806
vt 0.68029463 0.27252662
vt 0.79894394 0.26240116
vt 0.74544257 0.23890936
vt 0.74499542 0.2388134
vt 0.28673497 0.097200632
vt 0.28673497 0.097200632
vt 0.4017666 0.093181074
vt 0.40176663 0.093181074
vt 0.284803 0.085932434
vt 0.27257112 0.085932374
vt 0.28758016 0.085932374
vt 0.30282661 0.085932374
vt 0.3151522 0.085932374
vt 0.34299207 0.085932374
vt 0.36723715 0.085932374
vt 0.39635634 0.085932374
vt 0.39724949 0.085932374
vt 0.41225839 0.085932374
vt 0.41837433 0.085932374
vt 0.42664331 0.085932374
vt 0.29237163 0.070881188
vt 0.29237163 0.070881128
vt 0.38748735 0.059290886
vt 0.38748735 0.059290886
vt 0.31463438 0.047422707
vt 0.31463438 0.047422647
vt 0.35341153 0.039182365
vt 0.35341156 0.039182305
vt 0.4142952 0.028439462
vt 0.4142952 0.028439462
vt 0.28414446 0.028439403
vt 0.28414446 0.028439403
vt 0.30029875 0.028439403
vt 0.30029875 0.028439403
vt 0.33382502 0.028439403
vt 0.33382505 0.028439403
vt 0.38336337 0.028439403
vt 0.3833634 0.028439403
vt 0.40355116 0.028439403
vt 0.40355119 0.028439343
vn 0.40509677 -0.74503756 0.5299204
vn 0.87516975 -0.20980196 0.43595994
vn 0.96465445 -0.19936337 -0.17232534
vn -0.32722139 -0.16464177 -0.93049413
vn -0.35344911 0.32556093 -0.87697423
vn -0.42061782 -0.74834913 0.51288807
vn -0.59835196 -0.74948007 -0.28329232
vn -0.61545277 0.15995298 0.77177262
vn -0.71832943 0.15761146 -0.67761451
vn 0.00052480545 0.99999982 0.00021840117
vn 0.038327042 -0.18943496 0.98114496
vn 0.043424163 -0.17222972 -0.98409921
vn 0.29308799 0.31276098 -0.90348214
vn 0.64647394 0.34126762 -0.68235463
vn -0.18740632 -0.36529502 -0.91183245
vn -0.8012386 -0.17270239 0.57287925
vn 0.56355011 -0.7601589 -0.32337242
vn 0.74003613 0.3667773 0.56375617
vn 0.9199692 0.36002177 -0.15505169
vn 0.92360556 0.15006502 -0.35275093
vn -0.14871052 -0.78411049 0.60254115
vn -0.6290561 0.34968615 0.69426799
vn -0.97582829 -0.21180603 0.053827245
vn 0.00079518155 0.99999964 0.00032115387
vn 0.036218267 0.11591541 -0.99259853
vn -0.0001478021 1 -0.00010374987
vn -0.00019833648 0.99999988 0.0003410177
vn -0.0099118231 0.11681891 0.9931038
vn -0.29917774 -0.77202857 -0.56077135
vn -0.58608502 -0.79622656 0.15009178
vn -0.91347378 0.37214538 0.16454007
vn 0.45403469 -0.18216799 -0.87216246
vn 0.46599233 -0.15646647 0.87084407
vn -0.00015130808 1 0.00024627193
vn -0.00027180568 0.99999988 0.00033615634
vn -0.0004737518 -0.99999982 4.8818423e-05
vn -0.76537395 -0.17728443 -0.6186865
vn -0.8838985 0.15521359 0.44117153
vn 7.8919729e-05 1 -7.1932925e-05
vn 0.00047375276 -0.99999988 4.8818605e-05
vn 0.23639973 -0.3170917 -0.91845965
vn 0.26615825 -0.37161553 0.88941646
vn 0.34086147 0.3388384 0.87692761
vn 0.64503652 -0.75675875 0.10603772
vn 0.75302154 -0.17032962 -0.63556767
vn 0.94816667 0.15809043 0.27565819
vn -5.3133484e-05 1 -0.00013427013
vn -0.34966603 0.16023923 -0.92306942
vn -0.74479562 0.35801762 -0.56311888
vn -0.98178083 0.16213536 -0.099089622
vn 0.41630191 -0.35925046 -0.83524358
vn 0.51088941 0.14973259 -0.84650594
vn -0.00014376486 0.99999988 0.00031425376
vn -0.31946772 0.1532796 0.93511802
vn 0.32170293 0.1680233 0.931813
vn 0.62917465 0.16442539 0.75967336
vn -0.00082301575 0.99999946 -0.00063346094
vn -0.31946537 0.30826366 0.89605546
vn -0.3891134 -0.18910781 0.90157026
f 12/27/25 8/9/13 13/25/52
f 13/25/52 9/10/14 14/23/20
f 14/23/20 10/6/19 15/21/46
f 11/4/18 16/18/56 15/21/46
f 7/1/43 18/15/28 17/16/55
f 7/11/47 9/31/10 8/33/24
f 7/11/47 10/29/26 9/31/10
f 17/16/55 24/39/11 23/40/33
f 16/18/56 23/40/33 22/42/2
f 15/21/46 22/42/2 21/44/3
f 14/23/20 21/44/3 20/46/45
f 13/25/52 20/46/45 19/47/32
f 13/25/52 19/47/32 25/49/12
f 21/44/3 4/65/44 3/67/17
f 4/65/44 22/42/2 5/62/1
f 39/22/50 35/5/31 34/7/49
f 40/20/38 35/5/31 39/22/50
f 41/19/8 36/3/22 40/20/38
f 18/15/28 32/2/58 42/17/54
f 47/38/59 41/19/8 46/41/16
f 46/41/16 40/20/38 45/43/23
f 45/43/23 39/22/50 44/45/37
f 17/16/55 16/18/56 11/4/18 7/1/43
f 27/68/29 43/48/4 26/59/15
f 28/66/7 44/45/37 27/68/29
f 29/64/30 45/43/23 28/66/7
f 30/63/6 47/38/59 46/41/16
f 31/61/21 24/39/11 47/38/59
f 13/25/52 8/9/13 9/10/14
f 14/23/20 9/10/14 10/6/19
f 10/6/19 11/4/18 15/21/46
f 7/11/47 11/14/57 10/29/26
f 2/51/40 3/55/17 4/56/44 5/52/1 6/36/40 1/34/40
f 2/69/51 1/58/41 25/49/12 19/47/32
f 17/16/55 18/15/28 24/39/11
f 16/18/56 17/16/55 23/40/33
f 15/21/46 16/18/56 22/42/2
f 14/23/20 15/21/46 21/44/3
f 13/25/52 14/23/20 20/46/45
f 12/27/25 13/25/52 25/49/12
f 3/67/17 2/69/51 19/47/32 20/46/45
f 24/39/11 6/60/42 5/62/1 23/40/33
f 20/46/45 21/44/3 3/67/17
f 4/65/44 21/44/3 22/42/2
f 5/62/1 22/42/2 23/40/33
f 34/7/49 33/8/5 37/26/48 38/24/9
f 12/27/25 37/26/48 33/8/5
f 36/3/22 41/19/8 42/17/54 32/2/58
f 38/24/9 39/22/50 34/7/49
f 40/20/38 36/3/22 35/5/31
f 32/12/34 33/32/53 34/30/27
f 32/12/34 34/30/27 35/28/35
f 35/28/35 36/13/39 32/12/34
f 30/53/6 29/57/30 28/54/7 27/50/29 26/35/36 31/37/21
f 42/17/54 47/38/59 24/39/11 18/15/28
f 37/26/48 43/48/4 44/45/37 38/24/9
f 47/38/59 42/17/54 41/19/8
f 46/41/16 41/19/8 40/20/38
f 45/43/23 40/20/38 39/22/50
f 44/45/37 39/22/50 38/24/9
f 12/27/25 25/49/12 43/48/4 37/26/48
f 46/41/16 45/43/23 29/64/30 30/63/6
f 26/59/15 43/48/4 25/49/12
f 27/68/29 44/45/37 43/48/4
f 28/66/7 45/43/23 44/45/37
f 30/63/6 31/61/21 47/38/59
