o Bottles_0
v -0.002770033 -9.3495124e-05 -0.093376167
v 0.039580952 -3.518536e-06 -0.082835235
v 0.079467215 -3.1974141e-05 -0.047065236
v 0.089439951 -1.5857522e-05 0.018363597
v 0.055168632 -3.2267861e-05 0.074986845
v -0.0027903626 -2.1056127e-05 0.093345806
v -0.00173151 0.37060925 0.088051245
v -0.0016393797 0.37066579 -0.08814276
v 0.055821281 0.37061203 -0.063019432
v 0.080736302 0.37061048 -0.017135475
v 0.067975692 0.37064373 0.051928379
v -0.0014050414 0.32066089 -0.10000002
v 0.049514741 0.32131526 -0.088632263
v 0.093095355 0.32059109 -0.036179967
v 0.096005924 0.31960905 0.031173041
v 0.062509499 0.32067165 0.077512451
v 0.02787623 0.32078701 0.096100107
v -0.0014050414 0.32066089 0.099999987
v 0.045822505 0.022483781 -0.088663712
v 0.076157905 0.022497645 -0.06384407
v 0.097545333 0.023162765 -0.021248916
v 0.090082765 0.022229206 0.045668118
v 0.047466528 0.022537695 0.087731898
v -0.0013901005 0.021182489 0.10077601
v -0.0013942809 0.020822717 -0.10057185
v -4.0049912e-05 -9.3494891e-05 -0.093376167
v -0.042391039 -3.5185501e-06 -0.082835235
v -0.082277298 -3.197409e-05 -0.047065221
v -0.092250027 -1.5857442e-05 0.018363599
v -0.057978705 -3.2267817e-05 0.074986853
v -1.9720457e-05 -2.1056121e-05 0.093345806
v -0.0010785728 0.37060925 0.088051245
v -0.0011629958 0.37066454 -0.088040613
v -0.07055214 0.37064332 -0.052234873
v -0.083561689 0.37061074 0.017082456
v -0.058631353 0.37061203 0.06301941
v -0.032293808 0.3207728 -0.09555237
v -0.074741393 0.32086509 -0.069715083
v -0.10334546 0.31972408 -0.0084096566
v -0.090077832 0.32061246 0.047229897
v -0.065319568 0.32067165 0.077512465
v -0.030686317 0.32078701 0.096100107
v -0.030430458 0.022476587 -0.09617205
v -0.080286182 0.022071656 -0.065095052
v -0.10334414 0.02327526 0.0083164535
v -0.080132931 0.022541506 0.06234825
v -0.042409986 0.02242296 0.092507735
vt 0.28050745 0.41056955
vt 0.28050745 0.41056955
vt 0.29835671 0.41056943
vt 0.30625361 0.41056931
vt 0.33064935 0.41056913
vt 0.3686305 0.41056913
vt 0.39311641 0.41056913
vt 0.4186894 0.41056913
vt 0.4186911 0.41056913
vt 0.40086204 0.41056907
vt 0.74490881 0.4042381
vt 0.7455219 0.4042381
vt 0.69148684 0.38073635
vt 0.81035542 0.37032318
vt 0.27258795 0.36398232
vt 0.28092322 0.36398232
vt 0.28092322 0.36398232
vt 0.29400054 0.36398232
vt 0.29400054 0.36398232
vt 0.31215373 0.36398232
vt 0.32525554 0.36398232
vt 0.35630381 0.36398232
vt 0.37871975 0.36398232
vt 0.400006 0.36398232
vt 0.41077721 0.36398232
vt 0.41779238 0.36398232
vt 0.42663082 0.36398232
vt 0.66808033 0.33760709
vt 0.82233608 0.3054806
vt 0.68029463 0.27252662
vt 0.79894394 0.26240116
vt 0.74544257 0.23890936
vt 0.74499542 0.2388134
vt 0.28673497 0.097200632
vt 0.28673497 0.097200632
vt 0.4017666 0.093181074
vt 0.40176663 0.093181074
vt 0.284803 0.085932434
vt 0.27257112 0.085932374
vt 0.28758016 0.085932374
vt 0.30282661 0.085932374
vt 0.3151522 0.085932374
vt 0.34299207 0.085932374
vt 0.36723715 0.085932374
vt 0.39635634 0.085932374
vt 0.39724949 0.085932374
vt 0.41225839 0.085932374
vt 0.41837433 0.085932374
vt 0.42664331 0.085932374
vt 0.29237163 0.070881188
vt 0.29237163 0.070881128
vt 0.38748735 0.059290886
vt 0.38748735 0.059290886
vt 0.31463438 0.047422707
vt 0.31463438 0.047422647
vt 0.35341153 0.039182365
vt 0.35341156 0.039182305
vt 0.4142952 0.028439462
vt 0.4142952 0.028439462
vt 0.28414446 0.028439403
vt 0.28414446 0.028439403
vt 0.30029875 0.028439403
vt 0.30029875 0.028439403
vt 0.33382502 0.028439403
vt 0.33382505 0.028439403
vt 0.38336337 0.028439403
vt 0.3833634 0.028439403
vt 0.40355116 0.028439403
vt 0.40355119 0.028439343
vn 0.40509677 -0.74503756 0.5299204
vn 0.87516975 -0.20980196 0.43595994
vn 0.96465445 -0.19936337 -0.17232534
vn -0.32722139 -0.16464177 -0.93049413
vn -0.35344911 0.32556093 -0.87697423
vn -0.42061782 -0.74834913 0.51288807
vn -0.59835196 -0.74948007 -0.28329232
vn -0.61545277 0.15995298 0.77177262
vn -0.71832943 0.15761146 -0.67761451
vn 0.00052480545 0.99999982 0.00021840117
vn 0.038327042 -0.18943496 0.98114496
vn 0.043424163 -0.17222972 -0.98409921
vn 0.29308799 0.31276098 -0.90348214
vn 0.64647394 0.34126762 -0.68235463
vn -0.18740632 -0.36529502 -0.91183245
vn -0.8012386 -0.17270239 0.57287925
vn 0.56355011 -0.7601589 -0.32337242
vn 0.74003613 0.3667773 0.56375617
vn 0.9199692 0.36002177 -0.15505169
vn 0.92360556 0.15006502 -0.35275093
vn -0.14871052 -0.78411049 0.60254115
vn -0.6290561 0.34968615 0.69426799
vn -0.97582829 -0.21180603 0.053827245
vn 0.00079518155 0.99999964 0.00032115387
vn 0.036218267 0.11591541 -0.99259853
vn -0.0001478021 1 -0.00010374987
vn -0.00019833648 0.99999988 0.0003410177
vn -0.0099118231 0.11681891 0.9931038
vn -0.29917774 -0.77202857 -0.56077135
vn -0.58608502 -0.79622656 0.15009178
vn -0.91347378 0.37214538 0.16454007
vn 0.45403469 -0.18216799 -0.87216246
vn 0.46599233 -0.15646647 0.87084407
vn -0.00015130808 1 0.00024627193
vn -0.00027180568 0.99999988 0.00033615634
vn -0.0004737518 -0.99999982 4.8818423e-05
vn -0.76537395 -0.17728443 -0.6186865
vn -0.8838985 0.15521359 0.44117153
vn 7.8919729e-05 1 -7.1932925e-05
vn 0.00047375276 -0.99999988 4.8818605e-05
vn 0.23639973 -0.3170917 -0.91845965
vn 0.26615825 -0.37161553 0.88941646
vn 0.34086147 0.3388384 0.87692761
vn 0.64503652 -0.75675875 0.10603772
vn 0.75302154 -0.17032962 -0.63556767
vn 0.94816667 0.15809043 0.27565819
vn -5.3133484e-05 1 -0.00013427013
vn -0.34966603 0.16023923 -0.92306942
vn -0.74479562 0.35801762 -0.56311888
vn -0.98178083 0.16213536 -0.099089622
vn 0.41630191 -0.35925046 -0.83524358
vn 0.51088941 0.14973259 -0.84650594
vn -0.00014376486 0.99999988 0.00031425376
vn -0.31946772 0.1532796 0.93511802
vn 0.32170293 0.1680233 0.931813
vn 0.62917465 0.16442539 0.75967336
vn -0.00082301575 0.99999946 -0.00063346094
vn -0.31946537 0.30826366 0.89605546
vn -0.3891134 -0.18910781 0.90157026
f 12/27/25 8/9/13 13/25/52
f 13/25/52 9/10/14 14/23/20
f 14/23/20 10/6/19 15/21/46
f 11/4/18 16/18/56 15/21/46
f 7/1/43 18/15/28 17/16/55
f 7/11/47 9/31/10 8/33/24
f 7/11/47 10/29/26 9/31/10
f 17/16/55 24/39/11 23/40/33
f 16/18/56 23/40/33 22/42/2
f 15/21/46 22/42/2 21/44/3
f 14/23/20 21/44/3 20/46/45
f 13/25/52 20/46/45 19/47/32
f 13/25/52 19/47/32 25/49/12
f 21/44/3 4/65/44 3/67/17
f 4/65/44 22/42/2 5/62/1
f 39/22/50 35/5/31 34/7/49
f 40/20/38 35/5/31 39/22/50
f 41/19/8 36/3/22 40/20/38
f 18/15/28 32/2/58 42/17/54
f 47/38/59 41/19/8 46/41/16
f 46/41/16 40/20/38 45/43/23
f 45/43/23 39/22/50 44/45/37
f 17/16/55 16/18/56 11/4/18 7/1/43
f 27/68/29 43/48/4 26/59/15
f 28/66/7 44/45/37 27/68/29
f 29/64/30 45/43/23 28/66/7
f 30/63/6 47/38/59 46/41/16
f 31/61/21 24/39/11 47/38/59
f 13/25/52 8/9/13 9/10/14
f 14/23/20 9/10/14 10/6/19
f 10/6/19 11/4/18 15/21/46
f 7/11/47 11/14/57 10/29/26
f 2/51/40 3/55/17 4/56/44 5/52/1 6/36/40 1/34/40
f 2/69/51 1/58/41 25/49/12 19/47/32
f 17/16/55 18/15/28 24/39/11
f 16/18/56 17/16/55 23/40/33
f 15/21/46 16/18/56 22/42/2
f 14/23/20 15/21/46 21/44/3
f 13/25/52 14/23/20 20/46/45
f 12/27/25 13/25/52 25/49/12
f 3/67/17 2/69/51 19/47/32 20/46/45
f 24/39/11 6/60/42 5/62/1 23/40/33
f 20/46/45 21/44/3 3/67/17
f 4/65/44 21/44/3 22/42/2
f 5/62/1 22/42/2 23/40/33
f 34/7/49 33/8/5 37/26/48 38/24/9
f 12/27/25 37/26/48 33/8/5
f 36/3/22 41/19/8 42/17/54 32/2/58
f 38/24/9 39/22/50 34/7/49
f 40/20/38 36/3/22 35/5/31
f 32/12/34 33/32/53 34/30/27
f 32/12/34 34/30/27 35/28/35
f 35/28/35 36/13/39 32/12/34
f 30/53/6 29/57/30 28/54/7 27/50/29 26/35/36 31/37/21
f 42/17/54 47/38/59 24/39/11 18/15/28
f 37/26/48 43/48/4 44/45/37 38/24/9
f 47/38/59 42/17/54 41/19/8
f 46/41/16 41/19/8 40/20/38
f 45/43/23 40/20/38 39/22/50
f 44/45/37 39/22/50 38/24/9
f 12/27/25 25/49/12 43/48/4 37/26/48
f 46/41/16 45/43/23 29/64/30 30/63/6
f 26/59/15 43/48/4 25/49/12
f 27/68/29 44/45/37 43/48/4
f 28/66/7 45/43/23 44/45/37
f 30/63/6 31/61/21 47/38/59
o Bottles_1
v 0.10392651 0.34260014 5.7611489
v -3.3992561e-15 -1.0094156 -1
v -0.54121006 -0.85529292 -1
v -0.87729758 -0.48889619 -1
v -1.0118302 -0.025175529 -1
v -0.85529292 0.54121006 -1
v -0.29823631 0.98315328 -1
v 0.012249326 1.0091459 2.8964877
v -0.098612078 -1.0012274 2.8911746
v -0.48886439 -0.87724084 2.8911633
v -0.85509539 -0.54108512 2.8918107
v -1.0115966 0.025169648 2.8918107
v -0.87724084 0.48886439 2.8911633
v -0.54108512 0.85509539 2.8918107
v 0.14976765 0.75293404 3.292346
v -0.28971016 -0.71616918 3.303293
v -0.69853443 -0.30363166 3.2983446
v -0.72773403 0.28143269 3.2970414
v -0.30363166 0.69853443 3.2983446
v -0.0080576343 0.43053636 3.4881082
v -0.31960127 -0.30414376 3.4865708
v -0.43053633 0.0080576995 3.4881082
v -0.31043923 0.31043938 3.4877057
v 0.4578304 -0.8939026 -1
v 0.8883909 -0.50753915 -1
v 0.98707157 0.26930296 -1
v 0.50753915 0.8883909 -1
v 0.30832994 -0.9557575 2.8911633
v 0.65061206 -0.76501226 2.8911633
v 0.94422537 -0.36386758 2.8918107
v 0.98724866 0.22203878 2.8918107
v 0.76501226 0.65061206 2.8911633
v 0.46312946 0.89122617 2.8885839
v 0.2830292 -0.70825994 3.2967756
v 0.63933909 -0.422582 3.2944419
v 0.7627452 0.018978069 3.2961712
v 0.58776271 0.49048212 3.3001361
v 0.084269337 -0.43532944 3.4866095
v 0.43116772 -0.12203266 3.488734
v 0.30623692 0.31747895 3.4881186
v -0.33564651 -0.13902964 5.7611537
v -0.26296327 0.26296306 5.7611699
v -0.070177443 -0.35280702 5.7611508
v 0.2478331 -0.26310143 5.7611527
v 0.3546927 0.09575364 5.7611599
vt 0.20225561 0.84560061
vt 0.30333954 0.8197659
vt 0.12090901 0.80167185
vt 0.58139926 0.79094487
vt 0.10053271 0.79091536
vt 0.10053307 0.78523324
vt 0.58139998 0.77932911
vt 0.63137406 0.77095374
vt 0.63137448 0.76460531
vt 0.581402 0.74582314
vt 0.65509319 0.74413511
vt 0.10053585 0.74019247
vt 0.1005359 0.73947707
vt 0.63137609 0.73865378
vt 0.93612659 0.7378757
vt 0.65509391 0.73268005
vt 0.3531312 0.7323308
vt 0.090363964 0.73104391
vt 0.93612713 0.72982141
vt 0.039642151 0.72308278
vt 0.63137704 0.72302628
vt 0.58140343 0.72239375
vt 0.92278403 0.71642405
vt 0.93612802 0.71492907
vt 0.65509522 0.71012998
vt 0.039642945 0.70950207
vt 0.65997827 0.703217
vt 0.6541189 0.69708931
vt 0.039643809 0.69605505
vt 0.65509629 0.69511208
vt 0.93612969 0.68896642
vt 0.6541189 0.68789041
vt 0.91692472 0.68691945
vt 0.93612999 0.68357074
vt 0.63137943 0.68344617
vt 0.10053948 0.68074033
vt 0.91692472 0.67845318
vt 0.92278409 0.67768556
vt 0.58130097 0.67745116
vt 0.91692472 0.67661247
vt 0.58140635 0.67495149
vt 0.64240015 0.67421854
vt 0.1316222 0.67371279
vt 0.6541189 0.67151445
vt 0.57348847 0.66963866
vt 0.93613094 0.66869891
vt 0.64240015 0.66769671
vt 0.097821914 0.66767642
vt 0.65509808 0.66596621
vt 0.65509802 0.66574764
vt 0.57348847 0.66543084
vt 0.62022084 0.66420901
vt 0.6541189 0.66296405
vt 0.039645866 0.66218191
vt 0.64240015 0.6584911
vt 0.64240015 0.65784258
vt 0.64240015 0.65719405
vt 0.63138103 0.65635499
vt 0.039646331 0.65409195
vt 0.58130091 0.65338975
vt 0.58140773 0.65278447
vt 0.039646532 0.65176678
vt 0.62022084 0.65175003
vt 0.65997827 0.65014267
vt 0.62022084 0.6489585
vt 0.10054144 0.64868587
vt 0.1238097 0.64825344
vt 0.62022078 0.64662814
vt 0.57348841 0.64557725
vt 0.1316222 0.63630202
vt 0.1316222 0.63630202
vt 0.32639617 0.63571307
vt 0.63138247 0.63491273
vt 0.58130091 0.63271186
vt 0.62022084 0.63245857
vt 0.12380971 0.63033849
vt 0.57348841 0.62788463
vt 0.57348841 0.62489936
vt 0.57348841 0.62454909
vt 0.58130091 0.62451646
vt 0.58140945 0.62379313
vt 0.63138324 0.62114781
vt 0.10054322 0.61985978
vt 0.57348841 0.61670396
vt 0.1370793 0.61500967
vt 0.58141041 0.6082167
vt 0.10054456 0.59829804
vt 0.58141112 0.59683359
vt 0.58141136 0.59242982
vt 0.10054493 0.59240034
vt 0.26646045 0.58999199
vt 0.20437372 0.58503684
vn 0.38028765 0.6723817 -0.63504648
vn 0.63572216 -0.72723842 0.25880805
vn 0.90672779 -0.33827451 0.25182366
vn -0.15448487 -0.75458342 0.63776028
vn -0.29858017 0.64825511 0.70043933
vn -0.40188289 -0.64345294 -0.65150476
vn -0.48863411 -0.83481306 0.25362131
vn 0.71070105 0.02994086 0.70285672
vn 0.74574047 0.20912914 -0.63256317
vn -0.016416343 -0.75512481 -0.65537548
vn -0.5705772 0.57574409 0.58562815
vn -0.63679987 0.42096892 -0.64596522
vn -0.65418392 -0.28467792 0.70071524
vn -0.66481739 0.26458508 0.69857895
vn -0.81703955 0.0096557289 0.57650077
vn -0.96645314 0.00019829716 0.25684279
vn 0.21339479 0.74248981 0.63495797
vn 0.25500304 -0.65648007 0.70993471
vn 0.27821761 -0.92136747 0.27143496
vn 0.57956612 0.55079252 0.60060865
vn -0.082805291 -0.96058989 0.26534951
vn -0.26356369 -0.65965116 0.70384276
vn -0.51442492 0.8149823 0.26677847
vn -0.56245005 0.54470927 0.62204641
vn -0.81700575 -0.51268047 0.26393241
vn 0.68410462 -0.34940279 -0.64024878
vn 0.74553603 0.61556894 0.25544256
vn 0.75525635 -0.21527715 0.61906672
vn -0.56462973 -0.56759065 0.59919453
vn 0.14847797 0.69699258 0.70153809
vn 0.54555964 0.44643253 0.70926917
vn -0.013364542 0.81447875 0.5800395
vn -0.6569469 -0.36462715 -0.65989995
vn -0.75949836 -0.0017565638 -0.65050685
vn 0.16752656 -0.77063465 0.61486346
vn 0.584966 -0.399957 0.70558435
vn 0.94722587 0.19140537 0.25715211
vn -0.72766954 -0.27153397 0.62989396
vn -0.83884555 0.48304561 0.25100812
vn 0.54107893 -0.5512231 0.63512731
vn -0.0053703217 0.96599072 0.25852081
vn -0.21175656 0.74273634 -0.63521802
vn 0.35276291 -0.66379118 -0.65949941
vn 0.43697402 0.86099297 0.26027834
vn 0.75157064 0.19477326 0.63024199
f 58/79/84 51/82/92 50/75/65
f 61/157/82 54/159/101 53/152/71
f 64/90/72 58/79/84 63/78/81
f 65/127/73 59/110/75 64/90/72
f 66/151/64 61/157/82 65/127/73
f 62/121/89 55/120/100 66/137/64
f 68/85/88 64/90/72 63/78/81
f 69/99/74 64/90/72 68/85/88
f 70/118/70 66/151/64 65/127/73
f 67/111/91 66/137/64 70/125/70
f 88/93/97 68/85/88 90/84/63
f 89/106/83 67/101/91 70/113/70
f 48/102/76 67/97/91 89/109/83
f 77/91/62 72/81/85 73/135/68 78/130/96
f 71/140/102 75/129/78 49/112/69
f 72/81/85 76/76/61 71/74/102
f 74/156/60 79/155/86 73/135/68
f 54/136/101 55/120/100 74/145/60
f 81/134/77 63/132/81 56/114/80 75/138/78
f 76/76/61 82/83/95 81/77/77
f 82/83/95 77/91/62 83/104/67
f 83/104/67 78/130/96 84/142/90
f 80/146/103 62/121/89 84/144/90
f 50/139/65 49/112/69 56/108/80 57/143/66
f 62/121/89 67/111/91 87/124/79
f 85/96/94 91/107/99 90/92/63
f 86/94/87 92/100/104 91/88/99
f 87/119/79 48/115/76 92/100/104
f 52/105/93 51/82/92 58/79/84 59/110/75
f 57/73/66 58/79/84 50/75/65
f 53/152/71 52/105/93 59/110/75 60/150/98
f 89/128/83 88/98/97 90/89/63 48/131/76
f 60/150/98 61/157/82 53/152/71
f 61/148/82 55/120/100 54/136/101
f 54/70/101 49/161/69 50/154/65 51/117/92 52/87/93 53/72/71
f 63/132/81 57/147/66 56/114/80
f 63/78/81 58/79/84 57/73/66
f 64/90/72 59/110/75 58/79/84
f 65/127/73 60/150/98 59/110/75
f 65/127/73 61/157/82 60/150/98
f 66/137/64 55/120/100 61/148/82
f 85/116/94 68/126/88 63/132/81
f 69/99/74 65/127/73 64/90/72
f 69/99/74 70/118/70 65/127/73
f 67/111/91 62/121/89 66/137/64
f 90/92/63 68/133/88 85/96/94
f 88/93/97 69/99/74 68/85/88
f 88/93/97 89/103/83 69/99/74
f 89/103/83 70/118/70 69/99/74
f 49/112/69 75/129/78 56/108/80
f 71/140/102 76/149/61 75/129/78
f 72/81/85 77/91/62 76/76/61
f 73/135/68 79/155/86 78/130/96
f 74/156/60 80/158/103 79/155/86
f 74/145/60 55/120/100 80/146/103
f 72/141/85 71/160/102 49/161/69 54/70/101 74/71/60 73/86/68
f 86/94/87 85/80/94 81/77/77 82/83/95
f 75/138/78 76/153/61 81/134/77
f 76/76/61 77/91/62 82/83/95
f 77/91/62 78/130/96 83/104/67
f 78/130/96 79/155/86 84/142/90
f 79/155/86 80/158/103 84/142/90
f 62/121/89 80/146/103 55/120/100
f 63/132/81 81/134/77 85/116/94
f 87/119/79 86/94/87 83/104/67 84/142/90
f 82/83/95 83/104/67 86/94/87
f 91/95/99 92/123/104 48/131/76 90/89/63
f 84/144/90 62/121/89 87/124/79
f 85/80/94 86/94/87 91/88/99
f 86/94/87 87/119/79 92/100/104
f 87/122/79 67/97/91 48/102/76
o Bottles_2
v -2.8767772e-16 -7.3152497e-09 -0.1187911
v 0.053878866 -7.7246058e-09 -0.10519719
v 0.09736146 1.5574276e-09 -0.068618096
v 0.11907527 -1.7703654e-10 -0.002962722
v 0.1112789 0.338911 -0.03269894
v 0.10519718 -3.8711775e-13 0.053878888
v 0.094813414 0.33718917 0.063352309
v 0.059728753 6.0611605e-09 0.10454857
v 0.002813353 0.33920345 0.11713288
v -0.053878866 -8.9489909e-09 -0.10519719
v -0.099341169 1.0613944e-09 -0.066377647
v -0.11780809 -2.6813576e-10 -0.0095203063
v -0.10100826 -9.8616693e-10 0.067491584
v -0.023308719 7.4950224e-09 0.11718091
v -0.080636024 0.33719397 0.080636024
v 0.02330628 0.34436846 -0.11716866
v 0.080224633 0.33912423 -0.084599562
v 0.11911517 0.34367019 0.0011266979
v 0.097982012 0.34340036 0.067712881
v 0.053876683 0.34377542 0.10519293
v -0.022364212 0.33824584 -0.11411205
v -0.077082016 0.339836 -0.086910263
v -0.10411272 0.33896416 -0.050803669
v -0.11827956 0.34141415 -0.00016862292
v -0.10388295 0.34372783 0.056415472
v -0.065983169 0.34311062 0.098750778
v 0.068165198 0.18389453 -0.094027862
v 0.012507352 0.18480587 -0.10092516
v 0.037470672 0.18482128 -0.094626978
v -0.012167881 0.1840322 -0.099250078
v -0.036845259 0.18282118 -0.11001565
vt 0.60259992 0.27698308
vt 0.60802162 0.27698302
vt 0.48417228 0.27630067
vt 0.50310206 0.27630067
vt 0.50807697 0.27630061
vt 0.54550934 0.27630061
vt 0.54619551 0.27630061
vt 0.57882524 0.27630061
vt 0.58422148 0.27630061
vt 0.58922803 0.27630061
vt 0.59749883 0.27630061
vt 0.60108966 0.27630061
vt 0.60990208 0.27630061
vt 0.61014581 0.27630061
vt 0.61351013 0.27630061
vt 0.47455996 0.27630055
vt 0.48802587 0.27630055
vt 0.47030267 0.23954308
vt 0.59376973 0.23337394
vt 0.47634235 0.21896368
vt 0.47634235 0.21896368
vt 0.58590412 0.21506119
vt 0.73853964 0.20934355
vt 0.77753282 0.20305669
vt 0.60489571 0.20059204
vt 0.60900128 0.2002207
vt 0.59580261 0.19960535
vt 0.60253125 0.19960535
vt 0.60784274 0.19934756
vt 0.60713398 0.19930959
vt 0.61120474 0.19930959
vt 0.60697824 0.19867265
vt 0.61177891 0.19866514
vt 0.68582094 0.19707143
vt 0.49598524 0.19621503
vt 0.49728718 0.19546986
vt 0.56574708 0.19534457
vt 0.56055725 0.19013309
vt 0.53022468 0.18431681
vt 0.52670062 0.18401659
vt 0.67729485 0.18049634
vt 0.81040132 0.17329741
vt 0.80489981 0.16804278
vt 0.65588665 0.16541457
vt 0.82643104 0.12272298
vt 0.64617121 0.12126362
vt 0.60763544 0.10943002
vt 0.59005302 0.1087476
vt 0.50549996 0.10874754
vt 0.553738 0.10874754
vt 0.60359114 0.10874754
vt 0.60359114 0.10874754
vt 0.60849291 0.10874754
vt 0.60849291 0.10874754
vt 0.61395258 0.10874754
vt 0.47640312 0.10874748
vt 0.48598218 0.10874748
vt 0.50941336 0.10874748
vt 0.54858887 0.10874748
vt 0.58876258 0.10874748
vt 0.81980753 0.097053051
vt 0.6552223 0.083340883
vt 0.79613709 0.057592869
vt 0.67683339 0.055764914
vt 0.71935368 0.036853313
vt 0.75367582 0.033338547
vn 0.097212195 0.061198711 -0.99338037
vn 0.47525048 -0.010147424 0.87979203
vn 0.92096424 0.0069795912 -0.38958451
vn -0.36925888 0.01948946 -0.92912215
vn -0.52947474 0.014718788 0.848198
vn -0.83733892 0.00068789965 -0.54668373
vn 0.0077228029 0.99996012 0.0044917306
vn 0.15442206 -0.071835838 -0.98539001
vn 0.22820975 0.85586172 -0.46413475
vn 0.83546883 -0.0020427634 -0.54953396
vn 0.84103495 0.0052718157 0.54095513
vn -0.2153262 -0.045282651 -0.97549176
vn 0.038598008 0.99923205 -0.0067477082
vn 0.99996626 -1.7886246e-05 -0.0082120821
vn -0.38661033 0.92059541 -0.055103905
vn 4.6931503e-09 -1 4.928383e-08
vn 0.43270597 0.039398253 -0.90067381
vn 0.43379077 0.88323849 -0.17808805
vn -0.17273752 0.93294829 -0.31586286
vn -0.9999153 0.0010047364 -0.012969048
vn -0.0032519391 0.99821454 -0.059642117
vn -0.007317679 0.009764161 0.99992555
vn -0.0087695234 0.9988215 0.047736332
vn 0.22331698 -0.0026175834 -0.97474241
vn -0.0065418431 0.99936515 0.035022233
vn -0.14863272 0.0059891129 -0.98887432
vn -0.89513189 0.0096629225 -0.44569671
vn 4.7465845e-09 -1 4.9244676e-08
vn 8.1460509e-09 -1 4.6753499e-08
vn 0.058491521 -0.0056143133 -0.99827206
vn 0.092433795 -0.010151559 -0.99566704
vn 0.4536621 0.006052318 0.89115316
vn 0.46575922 0.77686864 -0.42372572
vn 0.63667333 -0.0094116358 -0.77107614
vn 0.9999603 0.0001617104 0.0089114485
vn -0.051621757 0.99865776 -0.0042137178
vn -0.64084375 0.01629879 -0.76749831
vn -0.82317054 -0.013253927 0.56763953
vn -0.88370168 0.0076895286 0.46798745
vn -0.99901235 -0.0019321882 -0.0443912
vn 1.8179945e-09 -1 5.1390789e-08
vn 0.43456957 0.0032096729 -0.90063256
vn 0.8788256 -0.0040757302 0.4771257
vn -0.10349154 0.93764049 0.33184317
vn -0.20428525 -0.014989295 0.9787966
vn -0.41593024 0.87450498 -0.24948588
vn -0.62645477 0.63596976 -0.45066273
f 108/174/112 121/193/128 120/194/135
f 109/172/138 95/209/114 94/214/121 119/189/146
f 111/165/115 100/218/106 98/219/147
f 101/177/126 106/217/149 100/218/106
f 102/213/108 123/191/130 122/187/134 93/208/105
f 103/221/110 114/173/141 102/215/108
f 96/220/118 95/209/114 97/169/107 110/167/139
f 106/217/149 118/178/109 105/210/142
f 106/217/149 101/177/126 118/178/109
f 99/204/150 111/203/151 110/206/119
f 101/184/125 112/185/123 99/204/150
f 116/207/117 117/205/122 107/202/137
f 108/174/112 109/171/138 119/188/146 121/193/128
f 95/209/114 109/172/138 97/169/107
f 98/219/147 96/220/118 110/167/139 111/165/115
f 111/165/115 112/164/136 100/218/106
f 112/164/136 101/177/126 100/218/106
f 99/204/150 97/222/140 109/224/129 113/226/127 101/184/125
f 96/200/145 98/199/145 100/183/145 106/180/120 93/179/132 94/181/145 95/196/145
f 116/168/124 115/170/131 103/221/110 104/211/144
f 93/208/105 122/186/134 120/190/135
f 102/215/108 114/173/141 113/176/116 123/192/130
f 103/221/110 115/170/131 114/173/141
f 104/211/144 105/210/142 116/168/124
f 105/210/142 117/166/143 116/168/124
f 105/210/142 118/178/109 117/166/143
f 113/226/127 114/225/111 115/223/111 116/207/117 107/202/137 101/184/125
f 93/179/132 106/180/120 105/198/133 104/201/133 103/197/133 102/182/133
f 113/226/127 109/224/129 108/227/148
f 97/222/140 99/204/150 110/206/119
f 99/204/150 112/185/123 111/203/151
f 107/202/137 117/205/122 118/195/113
f 101/184/125 107/202/137 118/195/113
f 120/194/135 121/193/128 94/212/121 93/216/105
f 121/193/128 119/188/146 94/212/121
f 122/187/134 123/191/130 113/175/116
f 120/190/135 122/186/134 113/162/116 108/163/112
