o Bottle_2_0
v 0.11621729 1.3520158 3.380564
v 0.012290776 0 -3.380585
v -0.52891928 0.15412271 -3.380585
v -0.8650068 0.52051944 -3.380585
v -0.99953943 0.9842401 -3.380585
v -0.84300214 1.5506257 -3.380585
v -0.28594553 1.9925689 -3.380585
v 0.024540102 2.0185615 0.51590276
v -0.086321302 0.0081882477 0.5105896
v -0.47657362 0.13217479 0.51057839
v -0.84280461 0.4683305 0.5112257
v -0.99930578 1.0345853 0.5112257
v -0.86495006 1.49828 0.51057839
v -0.52879435 1.864511 0.5112257
v 0.16205843 1.7623497 0.91176105
v -0.27741939 0.29324645 0.92270803
v -0.68624365 0.70578396 0.91775966
v -0.71544325 1.2908483 0.91645646
v -0.29134089 1.7079501 0.91775966
v 0.0042331414 1.439952 1.1075232
v -0.30731049 0.70527187 1.1059859
v -0.41824555 1.0174733 1.1075232
v -0.29814845 1.319855 1.1071208
v 0.47012118 0.11551303 -3.380585
v 0.90068167 0.50187647 -3.380585
v 0.99936235 1.2787186 -3.380585
v 0.51982993 1.8978065 -3.380585
v 0.32062072 0.053658128 0.51057839
v 0.66290283 0.24440336 0.51057839
v 0.95651615 0.64554805 0.5112257
v 0.99953943 1.2314544 0.5112257
v 0.77730304 1.6600277 0.51057839
v 0.47542024 1.9006418 0.50799894
v 0.29531997 0.30115569 0.91619062
v 0.65162987 0.58683363 0.91385698
v 0.77503598 1.0283937 0.91558623
v 0.60005349 1.4998977 0.91955113
v 0.096560113 0.57408619 1.1060245
v 0.4434585 0.88738297 1.1081491
v 0.3185277 1.3268946 1.1075337
v -0.32335573 0.87038599 3.3805687
v -0.25067249 1.2723787 3.380585
v -0.057886668 0.65660861 3.3805659
v 0.26012388 0.7463142 3.3805678
v 0.36698347 1.1051693 3.3805749
vt 0.20225561 0.84560061
vt 0.30333954 0.8197659
vt 0.12090901 0.80167185
vt 0.58139926 0.79094487
vt 0.10053271 0.79091536
vt 0.10053307 0.78523324
vt 0.58139998 0.77932911
vt 0.63137406 0.77095374
vt 0.63137448 0.76460531
vt 0.581402 0.74582314
vt 0.65509319 0.74413511
vt 0.10053585 0.74019247
vt 0.1005359 0.73947707
vt 0.63137609 0.73865378
vt 0.93612659 0.7378757
vt 0.65509391 0.73268005
vt 0.3531312 0.7323308
vt 0.090363964 0.73104391
vt 0.93612713 0.72982141
vt 0.039642151 0.72308278
vt 0.63137704 0.72302628
vt 0.58140343 0.72239375
vt 0.92278403 0.71642405
vt 0.93612802 0.71492907
vt 0.65509522 0.71012998
vt 0.039642945 0.70950207
vt 0.65997827 0.703217
vt 0.6541189 0.69708931
vt 0.039643809 0.69605505
vt 0.65509629 0.69511208
vt 0.93612969 0.68896642
vt 0.6541189 0.68789041
vt 0.91692472 0.68691945
vt 0.93612999 0.68357074
vt 0.63137943 0.68344617
vt 0.10053948 0.68074033
vt 0.91692472 0.67845318
vt 0.92278409 0.67768556
vt 0.58130097 0.67745116
vt 0.91692472 0.67661247
vt 0.58140635 0.67495149
vt 0.64240015 0.67421854
vt 0.1316222 0.67371279
vt 0.6541189 0.67151445
vt 0.57348847 0.66963866
vt 0.93613094 0.66869891
vt 0.64240015 0.66769671
vt 0.097821914 0.66767642
vt 0.65509808 0.66596621
vt 0.65509802 0.66574764
vt 0.57348847 0.66543084
vt 0.62022084 0.66420901
vt 0.6541189 0.66296405
vt 0.039645866 0.66218191
vt 0.64240015 0.6584911
vt 0.64240015 0.65784258
vt 0.64240015 0.65719405
vt 0.63138103 0.65635499
vt 0.039646331 0.65409195
vt 0.58130091 0.65338975
vt 0.58140773 0.65278447
vt 0.039646532 0.65176678
vt 0.62022084 0.65175003
vt 0.65997827 0.65014267
vt 0.62022084 0.6489585
vt 0.10054144 0.64868587
vt 0.1238097 0.64825344
vt 0.62022078 0.64662814
vt 0.57348841 0.64557725
vt 0.1316222 0.63630202
vt 0.1316222 0.63630202
vt 0.32639617 0.63571307
vt 0.63138247 0.63491273
vt 0.58130091 0.63271186
vt 0.62022084 0.63245857
vt 0.12380971 0.63033849
vt 0.57348841 0.62788463
vt 0.57348841 0.62489936
vt 0.57348841 0.62454909
vt 0.58130091 0.62451646
vt 0.58140945 0.62379313
vt 0.63138324 0.62114781
vt 0.10054322 0.61985978
vt 0.57348841 0.61670396
vt 0.1370793 0.61500967
vt 0.58141041 0.6082167
vt 0.10054456 0.59829804
vt 0.58141112 0.59683359
vt 0.58141136 0.59242982
vt 0.10054493 0.59240034
vt 0.26646045 0.58999199
vt 0.20437372 0.58503684
vn 0.38028765 0.6723817 -0.63504648
vn 0.63572216 -0.72723842 0.25880805
vn 0.90672779 -0.33827451 0.25182366
vn -0.15448487 -0.75458342 0.63776028
vn -0.29858017 0.64825511 0.70043933
vn -0.40188289 -0.64345294 -0.65150476
vn -0.48863411 -0.83481306 0.25362131
vn 0.71070105 0.02994086 0.70285672
vn 0.74574047 0.20912914 -0.63256317
vn -0.016416343 -0.75512481 -0.65537548
vn -0.5705772 0.57574409 0.58562815
vn -0.63679987 0.42096892 -0.64596522
vn -0.65418392 -0.28467792 0.70071524
vn -0.66481739 0.26458508 0.69857895
vn -0.81703955 0.0096557289 0.57650077
vn -0.96645314 0.00019829716 0.25684279
vn 0.21339479 0.74248981 0.63495797
vn 0.25500304 -0.65648007 0.70993471
vn 0.27821761 -0.92136747 0.27143496
vn 0.57956612 0.55079252 0.60060865
vn -0.082805291 -0.96058989 0.26534951
vn -0.26356369 -0.65965116 0.70384276
vn -0.51442492 0.8149823 0.26677847
vn -0.56245005 0.54470927 0.62204641
vn -0.81700575 -0.51268047 0.26393241
vn 0.68410462 -0.34940279 -0.64024878
vn 0.74553603 0.61556894 0.25544256
vn 0.75525635 -0.21527715 0.61906672
vn -0.56462973 -0.56759065 0.59919453
vn 0.14847797 0.69699258 0.70153809
vn 0.54555964 0.44643253 0.70926917
vn -0.013364542 0.81447875 0.5800395
vn -0.6569469 -0.36462715 -0.65989995
vn -0.75949836 -0.0017565638 -0.65050685
vn 0.16752656 -0.77063465 0.61486346
vn 0.584966 -0.399957 0.70558435
vn 0.94722587 0.19140537 0.25715211
vn -0.72766954 -0.27153397 0.62989396
vn -0.83884555 0.48304561 0.25100812
vn 0.54107893 -0.5512231 0.63512731
vn -0.0053703217 0.96599072 0.25852081
vn -0.21175656 0.74273634 -0.63521802
vn 0.35276291 -0.66379118 -0.65949941
vn 0.43697402 0.86099297 0.26027834
vn 0.75157064 0.19477326 0.63024199
f 11/10/25 4/13/33 3/6/6
f 14/88/23 7/90/42 6/83/12
f 17/21/13 11/10/25 16/9/22
f 18/58/14 12/41/16 17/21/13
f 19/82/5 14/88/23 18/58/14
f 15/52/30 8/51/41 19/68/5
f 21/16/29 17/21/13 16/9/22
f 22/30/15 17/21/13 21/16/29
f 23/49/11 19/82/5 18/58/14
f 20/42/32 19/68/5 23/56/11
f 41/24/38 21/16/29 43/15/4
f 42/37/24 20/32/32 23/44/11
f 1/33/17 20/28/32 42/40/24
f 30/22/3 25/12/26 26/66/9 31/61/37
f 24/71/43 28/60/19 2/43/10
f 25/12/26 29/7/2 24/5/43
f 27/87/1 32/86/27 26/66/9
f 7/67/42 8/51/41 27/76/1
f 34/65/18 16/63/22 9/45/21 28/69/19
f 29/7/2 35/14/36 34/8/18
f 35/14/36 30/22/3 36/35/8
f 36/35/8 31/61/37 37/73/31
f 33/77/44 15/52/30 37/75/31
f 3/70/6 2/43/10 9/39/21 10/74/7
f 15/52/30 20/42/32 40/55/20
f 38/27/35 44/38/40 43/23/4
f 39/25/28 45/31/45 44/19/40
f 40/50/20 1/46/17 45/31/45
f 5/36/34 4/13/33 11/10/25 12/41/16
f 10/4/7 11/10/25 3/6/6
f 6/83/12 5/36/34 12/41/16 13/81/39
f 42/59/24 41/29/38 43/20/4 1/62/17
f 13/81/39 14/88/23 6/83/12
f 14/79/23 8/51/41 7/67/42
f 7/1/42 2/92/10 3/85/6 4/48/33 5/18/34 6/3/12
f 16/63/22 10/78/7 9/45/21
f 16/9/22 11/10/25 10/4/7
f 17/21/13 12/41/16 11/10/25
f 18/58/14 13/81/39 12/41/16
f 18/58/14 14/88/23 13/81/39
f 19/68/5 8/51/41 14/79/23
f 38/47/35 21/57/29 16/63/22
f 22/30/15 18/58/14 17/21/13
f 22/30/15 23/49/11 18/58/14
f 20/42/32 15/52/30 19/68/5
f 43/23/4 21/64/29 38/27/35
f 41/24/38 22/30/15 21/16/29
f 41/24/38 42/34/24 22/30/15
f 42/34/24 23/49/11 22/30/15
f 2/43/10 28/60/19 9/39/21
f 24/71/43 29/80/2 28/60/19
f 25/12/26 30/22/3 29/7/2
f 26/66/9 32/86/27 31/61/37
f 27/87/1 33/89/44 32/86/27
f 27/76/1 8/51/41 33/77/44
f 25/72/26 24/91/43 2/92/10 7/1/42 27/2/1 26/17/9
f 39/25/28 38/11/35 34/8/18 35/14/36
f 28/69/19 29/84/2 34/65/18
f 29/7/2 30/22/3 35/14/36
f 30/22/3 31/61/37 36/35/8
f 31/61/37 32/86/27 37/73/31
f 32/86/27 33/89/44 37/73/31
f 15/52/30 33/77/44 8/51/41
f 16/63/22 34/65/18 38/47/35
f 40/50/20 39/25/28 36/35/8 37/73/31
f 35/14/36 36/35/8 39/25/28
f 44/26/40 45/54/45 1/62/17 43/20/4
f 37/75/31 15/52/30 40/55/20
f 38/11/35 39/25/28 44/19/40
f 39/25/28 40/50/20 45/31/45
f 40/53/20 20/28/32 1/33/17
