{
	"asset":{
		"generator":"Khronos glTF Blender I/O v5.2.39",
		"version":"2.0"
	},
	"scene":0,
	"scenes":[
		{
			"name":"Scene",
			"nodes":[
				0
			]
		}
	],
	"nodes":[
		{
			"extras":{
				"booleans":{}
			},
			"mesh":0,
			"name":"Cylinder.001"
		}
	],
	"materials":[
		{
			"doubleSided":true,
			"name":"Material.001"
		}
	],
	"meshes":[
		{
			"name":"Cylinder.002",
			"primitives":[
				{
					"attributes":{
						"POSITION":0,
						"NORMAL":1,
						"TEXCOORD_0":2
					},
					"indices":3,
					"material":0
				}
			]
		}
	],
	"accessors":[
		{
			"bufferView":0,
			"componentType":5126,
			"count":791,
			"max":[
				0.6312317848205566,
				1.7714406251907349,
				0.6000001430511475
			],
			"min":[
				-0.6000000238418579,
				-5.245366807571372e-08,
				-0.6000000238418579
			],
			"type":"VEC3"
		},
		{
			"bufferView":1,
			"componentType":5126,
			"count":791,
			"type":"VEC3"
		},
		{
			"bufferView":2,
			"componentType":5126,
			"count":791,
			"type":"VEC2"
		},
		{
			"bufferView":3,
			"componentType":5123,
			"count":1965,
			"type":"SCALAR"
		}
	],
	"bufferViews":[
		{
			"buffer":0,
			"byteLength":9492,
			"byteOffset":0,
			"target":34962
		},
		{
			"buffer":0,
			"byteLength":9492,
			"byteOffset":9492,
			"target":34962
		},
		{
			"buffer":0,
			"byteLength":6328,
			"byteOffset":18984,
			"target":34962
		},
		{
			"buffer":0,
			"byteLength":3930,
			"byteOffset":25312,
			"target":34963
		}
	],
	"buffers":[
		{
			"byteLength":29244,
			"uri":"Barrel-af1d2d2fcbfb6fd250b9f24a4e6ed4fc.bin"
		}
	]
}
