{
	"asset":{
		"generator":"Khronos glTF Blender I/O v5.2.39",
		"version":"2.0"
	},
	"scene":0,
	"scenes":[
		{
			"name":"Scene",
			"nodes":[
				0,
				1,
				2
			]
		}
	],
	"nodes":[
		{
			"mesh":0,
			"name":"Cylinder",
			"rotation":[
				0.7071068286895752,
				0,
				0,
				0.7071068286895752
			],
			"translation":[
				0.0014050414320081472,
				-0.004079103469848633,
				0
			]
		},
		{
			"mesh":1,
			"name":"Cylinder.001",
			"scale":[
				0.13205301761627197,
				0.13205301761627197,
				0.13205301761627197
			],
			"translation":[
				0.0014050414320081472,
				0.14482168853282928,
				0.5215620994567871
			]
		},
		{
			"mesh":2,
			"name":"Cylinder.002",
			"rotation":[
				0.7071068286895752,
				0,
				0,
				0.7071068286895752
			],
			"translation":[
				0.27095723152160645,
				-0.008163996040821075,
				0.17395219206809998
			]
		}
	],
	"materials":[
		{
			"doubleSided":true,
			"name":"Material.001"
		}
	],
	"meshes":[
		{
			"name":"Cylinder",
			"primitives":[
				{
					"attributes":{
						"POSITION":0,
						"NORMAL":1,
						"TEXCOORD_0":2
					},
					"indices":3,
					"material":0
				}
			]
		},
		{
			"name":"Cylinder.003",
			"primitives":[
				{
					"attributes":{
						"POSITION":4,
						"NORMAL":5,
						"TEXCOORD_0":6
					},
					"indices":7,
					"material":0
				}
			]
		},
		{
			"name":"Cylinder.002",
			"primitives":[
				{
					"attributes":{
						"POSITION":8,
						"NORMAL":9,
						"TEXCOORD_0":10
					},
					"indices":11,
					"material":0
				}
			]
		}
	],
	"accessors":[
		{
			"bufferView":0,
			"componentType":5126,
			"count":69,
			"max":[
				0.0975453332066536,
				0.10077600926160812,
				9.349512401968241e-05
			],
			"min":[
				-0.10334546118974686,
				-0.10057184845209122,
				-0.3706657886505127
			],
			"type":"VEC3"
		},
		{
			"bufferView":1,
			"componentType":5126,
			"count":69,
			"type":"VEC3"
		},
		{
			"bufferView":2,
			"componentType":5126,
			"count":69,
			"type":"VEC2"
		},
		{
			"bufferView":3,
			"componentType":5123,
			"count":246,
			"type":"SCALAR"
		},
		{
			"bufferView":4,
			"componentType":5126,
			"count":92,
			"max":[
				0.9872486591339111,
				5.761169910430908,
				1.009415626525879
			],
			"min":[
				-1.01183021068573,
				-1,
				-1.0091458559036255
			],
			"type":"VEC3"
		},
		{
			"bufferView":5,
			"componentType":5126,
			"count":92,
			"type":"VEC3"
		},
		{
			"bufferView":6,
			"componentType":5126,
			"count":92,
			"type":"VEC2"
		},
		{
			"bufferView":7,
			"componentType":5123,
			"count":258,
			"type":"SCALAR"
		},
		{
			"bufferView":8,
			"componentType":5126,
			"count":66,
			"max":[
				0.11911516636610031,
				0.11718091368675232,
				8.948990881663121e-09
			],
			"min":[
				-0.11827956140041351,
				-0.11879110336303711,
				-0.34436845779418945
			],
			"type":"VEC3"
		},
		{
			"bufferView":9,
			"componentType":5126,
			"count":66,
			"type":"VEC3"
		},
		{
			"bufferView":10,
			"componentType":5126,
			"count":66,
			"type":"VEC2"
		},
		{
			"bufferView":11,
			"componentType":5123,
			"count":174,
			"type":"SCALAR"
		}
	],
	"bufferViews":[
		{
			"buffer":0,
			"byteLength":828,
			"byteOffset":0,
			"target":34962
		},
		{
			"buffer":0,
			"byteLength":828,
			"byteOffset":828,
			"target":34962
		},
		{
			"buffer":0,
			"byteLength":552,
			"byteOffset":1656,
			"target":34962
		},
		{
			"buffer":0,
			"byteLength":492,
			"byteOffset":2208,
			"target":34963
		},
		{
			"buffer":0,
			"byteLength":1104,
			"byteOffset":2700,
			"target":34962
		},
		{
			"buffer":0,
			"byteLength":1104,
			"byteOffset":3804,
			"target":34962
		},
		{
			"buffer":0,
			"byteLength":736,
			"byteOffset":4908,
			"target":34962
		},
		{
			"buffer":0,
			"byteLength":516,
			"byteOffset":5644,
			"target":34963
		},
		{
			"buffer":0,
			"byteLength":792,
			"byteOffset":6160,
			"target":34962
		},
		{
			"buffer":0,
			"byteLength":792,
			"byteOffset":6952,
			"target":34962
		},
		{
			"buffer":0,
			"byteLength":528,
			"byteOffset":7744,
			"target":34962
		},
		{
			"buffer":0,
			"byteLength":348,
			"byteOffset":8272,
			"target":34963
		}
	],
	"buffers":[
		{
			"byteLength":8620,
			"uri":"Bottles-1a75261c888e2c57e7246d0a24c53a1d.bin"
		}
	]
}
