{
	"asset":{
		"generator":"Khronos glTF Blender I/O v5.2.39",
		"version":"2.0"
	},
	"scene":0,
	"scenes":[
		{
			"name":"Scene",
			"nodes":[
				0
			]
		}
	],
	"nodes":[
		{
			"extras":{
				"booleans":{}
			},
			"mesh":0,
			"name":"Cylinder"
		}
	],
	"materials":[
		{
			"doubleSided":true,
			"name":"Material.001"
		}
	],
	"meshes":[
		{
			"name":"Cylinder",
			"primitives":[
				{
					"attributes":{
						"POSITION":0,
						"NORMAL":1,
						"TEXCOORD_0":2
					},
					"indices":3,
					"material":0
				}
			]
		}
	],
	"accessors":[
		{
			"bufferView":0,
			"componentType":5126,
			"count":277,
			"max":[
				0.18715204298496246,
				0.48218345642089844,
				0.039525631815195084
			],
			"min":[
				-0.07550394535064697,
				-0.5050708651542664,
				-0.039525631815195084
			],
			"type":"VEC3"
		},
		{
			"bufferView":1,
			"componentType":5126,
			"count":277,
			"type":"VEC3"
		},
		{
			"bufferView":2,
			"componentType":5126,
			"count":277,
			"type":"VEC2"
		},
		{
			"bufferView":3,
			"componentType":5123,
			"count":768,
			"type":"SCALAR"
		}
	],
	"bufferViews":[
		{
			"buffer":0,
			"byteLength":3324,
			"byteOffset":0,
			"target":34962
		},
		{
			"buffer":0,
			"byteLength":3324,
			"byteOffset":3324,
			"target":34962
		},
		{
			"buffer":0,
			"byteLength":2216,
			"byteOffset":6648,
			"target":34962
		},
		{
			"buffer":0,
			"byteLength":1536,
			"byteOffset":8864,
			"target":34963
		}
	],
	"buffers":[
		{
			"byteLength":10400,
			"uri":"Crowbar-fa708b9ecac51ab303598e7ffdd8f06f.bin"
		}
	]
}
