{
	"asset":{
		"generator":"Khronos glTF Blender I/O v5.2.39",
		"version":"2.0"
	},
	"scene":0,
	"scenes":[
		{
			"name":"Scene",
			"nodes":[
				0
			]
		}
	],
	"nodes":[
		{
			"mesh":0,
			"name":"Cylinder",
			"rotation":[
				0.7071068286895752,
				0,
				0,
				0.7071068286895752
			]
		}
	],
	"materials":[
		{
			"doubleSided":true,
			"name":"Material.001"
		}
	],
	"meshes":[
		{
			"name":"Cylinder.001",
			"primitives":[
				{
					"attributes":{
						"POSITION":0,
						"NORMAL":1,
						"TEXCOORD_0":2
					},
					"indices":3,
					"material":0
				}
			]
		}
	],
	"accessors":[
		{
			"bufferView":0,
			"componentType":5126,
			"count":284,
			"max":[
				0.10933107882738113,
				0.10933105647563934,
				0.07181396335363388
			],
			"min":[
				-0.10933107882738113,
				-0.10933108627796173,
				-0.48491716384887695
			],
			"type":"VEC3"
		},
		{
			"bufferView":1,
			"componentType":5126,
			"count":284,
			"type":"VEC3"
		},
		{
			"bufferView":2,
			"componentType":5126,
			"count":284,
			"type":"VEC2"
		},
		{
			"bufferView":3,
			"componentType":5123,
			"count":1068,
			"type":"SCALAR"
		}
	],
	"bufferViews":[
		{
			"buffer":0,
			"byteLength":3408,
			"byteOffset":0,
			"target":34962
		},
		{
			"buffer":0,
			"byteLength":3408,
			"byteOffset":3408,
			"target":34962
		},
		{
			"buffer":0,
			"byteLength":2272,
			"byteOffset":6816,
			"target":34962
		},
		{
			"buffer":0,
			"byteLength":2136,
			"byteOffset":9088,
			"target":34963
		}
	],
	"buffers":[
		{
			"byteLength":11224,
			"uri":"Flashlight-3bad990c7cec992c355219fbbe717d45.bin"
		}
	]
}
