{
	"asset":{
		"generator":"Khronos glTF Blender I/O v5.2.39",
		"version":"2.0"
	},
	"scene":0,
	"scenes":[
		{
			"name":"Scene",
			"nodes":[
				0
			]
		}
	],
	"nodes":[
		{
			"mesh":0,
			"name":"Sphere",
			"rotation":[
				0.7071068286895752,
				0,
				0,
				0.7071068286895752
			]
		}
	],
	"materials":[
		{
			"doubleSided":true,
			"name":"Material.001"
		}
	],
	"meshes":[
		{
			"name":"Sphere",
			"primitives":[
				{
					"attributes":{
						"POSITION":0,
						"NORMAL":1,
						"TEXCOORD_0":2
					},
					"indices":3,
					"material":0
				}
			]
		}
	],
	"accessors":[
		{
			"bufferView":0,
			"componentType":5126,
			"count":59,
			"max":[
				1.1278772354125977,
				1.1666078567504883,
				0.13022716343402863
			],
			"min":[
				-0.9769279360771179,
				-1.016760230064392,
				-2.035813093185425
			],
			"type":"VEC3"
		},
		{
			"bufferView":1,
			"componentType":5126,
			"count":59,
			"type":"VEC3"
		},
		{
			"bufferView":2,
			"componentType":5126,
			"count":59,
			"type":"VEC2"
		},
		{
			"bufferView":3,
			"componentType":5123,
			"count":186,
			"type":"SCALAR"
		}
	],
	"bufferViews":[
		{
			"buffer":0,
			"byteLength":708,
			"byteOffset":0,
			"target":34962
		},
		{
			"buffer":0,
			"byteLength":708,
			"byteOffset":708,
			"target":34962
		},
		{
			"buffer":0,
			"byteLength":472,
			"byteOffset":1416,
			"target":34962
		},
		{
			"buffer":0,
			"byteLength":372,
			"byteOffset":1888,
			"target":34963
		}
	],
	"buffers":[
		{
			"byteLength":2260,
			"uri":"GarbageBag-7fc7fd63eb46ef6bada679a58b101fc1.bin"
		}
	]
}
