{
	"asset":{
		"generator":"Khronos glTF Blender I/O v5.2.39",
		"version":"2.0"
	},
	"scene":0,
	"scenes":[
		{
			"name":"Scene",
			"nodes":[
				0
			]
		}
	],
	"nodes":[
		{
			"extras":{
				"booleans":{}
			},
			"mesh":0,
			"name":"Plane.002",
			"rotation":[
				0.7071068286895752,
				0,
				0,
				0.7071068286895752
			],
			"scale":[
				0.5,
				0.5,
				0.5
			]
		}
	],
	"materials":[
		{
			"doubleSided":true,
			"name":"gasFilter"
		}
	],
	"meshes":[
		{
			"name":"Plane.002",
			"primitives":[
				{
					"attributes":{
						"POSITION":0,
						"NORMAL":1,
						"TEXCOORD_0":2
					},
					"indices":3,
					"material":0
				}
			]
		}
	],
	"accessors":[
		{
			"bufferView":0,
			"componentType":5126,
			"count":1015,
			"max":[
				1.3042314052581787,
				0.5203607082366943,
				0.18812046945095062
			],
			"min":[
				-1.3170626163482666,
				-0.8270319104194641,
				-2.6282010078430176
			],
			"type":"VEC3"
		},
		{
			"bufferView":1,
			"componentType":5126,
			"count":1015,
			"type":"VEC3"
		},
		{
			"bufferView":2,
			"componentType":5126,
			"count":1015,
			"type":"VEC2"
		},
		{
			"bufferView":3,
			"componentType":5123,
			"count":2298,
			"type":"SCALAR"
		}
	],
	"bufferViews":[
		{
			"buffer":0,
			"byteLength":12180,
			"byteOffset":0,
			"target":34962
		},
		{
			"buffer":0,
			"byteLength":12180,
			"byteOffset":12180,
			"target":34962
		},
		{
			"buffer":0,
			"byteLength":8120,
			"byteOffset":24360,
			"target":34962
		},
		{
			"buffer":0,
			"byteLength":4596,
			"byteOffset":32480,
			"target":34963
		}
	],
	"buffers":[
		{
			"byteLength":37076,
			"uri":"GasMask-19c4c231c7ab700e44882e7f9ed23443.bin"
		}
	]
}
