{
	"asset":{
		"generator":"Khronos glTF Blender I/O v5.2.39",
		"version":"2.0"
	},
	"scene":0,
	"scenes":[
		{
			"name":"Scene",
			"nodes":[
				0
			]
		}
	],
	"nodes":[
		{
			"mesh":0,
			"name":"Plane",
			"rotation":[
				0.7071068286895752,
				0,
				0,
				0.7071068286895752
			]
		}
	],
	"materials":[
		{
			"doubleSided":true,
			"name":"Material"
		}
	],
	"meshes":[
		{
			"name":"Plane",
			"primitives":[
				{
					"attributes":{
						"POSITION":0,
						"NORMAL":1,
						"TEXCOORD_0":2
					},
					"indices":3,
					"material":0
				}
			]
		}
	],
	"accessors":[
		{
			"bufferView":0,
			"componentType":5126,
			"count":483,
			"max":[
				0.23835791647434235,
				0.043997958302497864,
				0
			],
			"min":[
				-0.22478826344013214,
				-0.04490081965923309,
				-0.6780052185058594
			],
			"type":"VEC3"
		},
		{
			"bufferView":1,
			"componentType":5126,
			"count":483,
			"type":"VEC3"
		},
		{
			"bufferView":2,
			"componentType":5126,
			"count":483,
			"type":"VEC2"
		},
		{
			"bufferView":3,
			"componentType":5123,
			"count":1158,
			"type":"SCALAR"
		}
	],
	"bufferViews":[
		{
			"buffer":0,
			"byteLength":5796,
			"byteOffset":0,
			"target":34962
		},
		{
			"buffer":0,
			"byteLength":5796,
			"byteOffset":5796,
			"target":34962
		},
		{
			"buffer":0,
			"byteLength":3864,
			"byteOffset":11592,
			"target":34962
		},
		{
			"buffer":0,
			"byteLength":2316,
			"byteOffset":15456,
			"target":34963
		}
	],
	"buffers":[
		{
			"byteLength":17772,
			"uri":"Hammer-da8683e83dad06dad4eda3c8267da984.bin"
		}
	]
}
