{
	"asset":{
		"generator":"Khronos glTF Blender I/O v5.2.39",
		"version":"2.0"
	},
	"scene":0,
	"scenes":[
		{
			"name":"Scene",
			"nodes":[
				0,
				1,
				2,
				3
			]
		}
	],
	"nodes":[
		{
			"mesh":0,
			"name":"Cube",
			"translation":[
				-0.02646925300359726,
				0.2094559371471405,
				0.14490482211112976
			]
		},
		{
			"mesh":1,
			"name":"Cube.001",
			"translation":[
				-0.13592392206192017,
				0.33013516664505005,
				0.14460822939872742
			]
		},
		{
			"mesh":2,
			"name":"Cylinder",
			"translation":[
				0.15185871720314026,
				0.4700023829936981,
				0.1906236708164215
			]
		},
		{
			"mesh":3,
			"name":"Plane",
			"translation":[
				-0.20919004082679749,
				0.45142507553100586,
				0.2131195366382599
			]
		}
	],
	"materials":[
		{
			"doubleSided":true,
			"name":"Material.001"
		}
	],
	"meshes":[
		{
			"name":"Cube.001",
			"primitives":[
				{
					"attributes":{
						"POSITION":0,
						"NORMAL":1,
						"TEXCOORD_0":2
					},
					"indices":3,
					"material":0
				}
			]
		},
		{
			"name":"Cube.002",
			"primitives":[
				{
					"attributes":{
						"POSITION":4,
						"NORMAL":5,
						"TEXCOORD_0":6
					},
					"indices":7,
					"material":0
				}
			]
		},
		{
			"name":"Cylinder",
			"primitives":[
				{
					"attributes":{
						"POSITION":8,
						"NORMAL":9,
						"TEXCOORD_0":10
					},
					"indices":11,
					"material":0
				}
			]
		},
		{
			"name":"Plane",
			"primitives":[
				{
					"attributes":{
						"POSITION":12,
						"NORMAL":13,
						"TEXCOORD_0":14
					},
					"indices":15,
					"material":0
				}
			]
		}
	],
	"accessors":[
		{
			"bufferView":0,
			"componentType":5126,
			"count":130,
			"max":[
				0.20929615199565887,
				0.16391761600971222,
				0.04870851710438728
			],
			"min":[
				-0.20929615199565887,
				-0.20898789167404175,
				-0.04870851710438728
			],
			"type":"VEC3"
		},
		{
			"bufferView":1,
			"componentType":5126,
			"count":130,
			"type":"VEC3"
		},
		{
			"bufferView":2,
			"componentType":5126,
			"count":130,
			"type":"VEC2"
		},
		{
			"bufferView":3,
			"componentType":5123,
			"count":396,
			"type":"SCALAR"
		},
		{
			"bufferView":4,
			"componentType":5126,
			"count":196,
			"max":[
				0.2591349184513092,
				0.30578723549842834,
				0.04074006900191307
			],
			"min":[
				-0.040225550532341,
				-0.0157447699457407,
				-0.04014680162072182
			],
			"type":"VEC3"
		},
		{
			"bufferView":5,
			"componentType":5126,
			"count":196,
			"type":"VEC3"
		},
		{
			"bufferView":6,
			"componentType":5126,
			"count":196,
			"type":"VEC2"
		},
		{
			"bufferView":7,
			"componentType":5123,
			"count":564,
			"type":"SCALAR"
		},
		{
			"bufferView":8,
			"componentType":5126,
			"count":158,
			"max":[
				0.02244882471859455,
				0.022448834031820297,
				0.02244882844388485
			],
			"min":[
				-0.23766791820526123,
				-0.02244882844388485,
				-0.14625431597232819
			],
			"type":"VEC3"
		},
		{
			"bufferView":9,
			"componentType":5126,
			"count":158,
			"type":"VEC3"
		},
		{
			"bufferView":10,
			"componentType":5126,
			"count":158,
			"type":"VEC2"
		},
		{
			"bufferView":11,
			"componentType":5123,
			"count":420,
			"type":"SCALAR"
		},
		{
			"bufferView":12,
			"componentType":5126,
			"count":49,
			"max":[
				0.4233984053134918,
				0.07240745425224304,
				0.03114434704184532
			],
			"min":[
				-0.4384087026119232,
				-0.07240747660398483,
				-3.5335310233364225e-09
			],
			"type":"VEC3"
		},
		{
			"bufferView":13,
			"componentType":5126,
			"count":49,
			"type":"VEC3"
		},
		{
			"bufferView":14,
			"componentType":5126,
			"count":49,
			"type":"VEC2"
		},
		{
			"bufferView":15,
			"componentType":5123,
			"count":108,
			"type":"SCALAR"
		}
	],
	"bufferViews":[
		{
			"buffer":0,
			"byteLength":1560,
			"byteOffset":0,
			"target":34962
		},
		{
			"buffer":0,
			"byteLength":1560,
			"byteOffset":1560,
			"target":34962
		},
		{
			"buffer":0,
			"byteLength":1040,
			"byteOffset":3120,
			"target":34962
		},
		{
			"buffer":0,
			"byteLength":792,
			"byteOffset":4160,
			"target":34963
		},
		{
			"buffer":0,
			"byteLength":2352,
			"byteOffset":4952,
			"target":34962
		},
		{
			"buffer":0,
			"byteLength":2352,
			"byteOffset":7304,
			"target":34962
		},
		{
			"buffer":0,
			"byteLength":1568,
			"byteOffset":9656,
			"target":34962
		},
		{
			"buffer":0,
			"byteLength":1128,
			"byteOffset":11224,
			"target":34963
		},
		{
			"buffer":0,
			"byteLength":1896,
			"byteOffset":12352,
			"target":34962
		},
		{
			"buffer":0,
			"byteLength":1896,
			"byteOffset":14248,
			"target":34962
		},
		{
			"buffer":0,
			"byteLength":1264,
			"byteOffset":16144,
			"target":34962
		},
		{
			"buffer":0,
			"byteLength":840,
			"byteOffset":17408,
			"target":34963
		},
		{
			"buffer":0,
			"byteLength":588,
			"byteOffset":18248,
			"target":34962
		},
		{
			"buffer":0,
			"byteLength":588,
			"byteOffset":18836,
			"target":34962
		},
		{
			"buffer":0,
			"byteLength":392,
			"byteOffset":19424,
			"target":34962
		},
		{
			"buffer":0,
			"byteLength":216,
			"byteOffset":19816,
			"target":34963
		}
	],
	"buffers":[
		{
			"byteLength":20032,
			"uri":"OldLock-8bb25ee29dc9fc87c4615bc7e8b6ac68.bin"
		}
	]
}
