{
	"asset":{
		"generator":"Khronos glTF Blender I/O v5.2.39",
		"version":"2.0"
	},
	"scene":0,
	"scenes":[
		{
			"name":"Scene",
			"nodes":[
				1
			]
		}
	],
	"nodes":[
		{
			"mesh":0,
			"name":"Cube.001",
			"rotation":[
				-0.7071068286895752,
				0,
				0,
				0.7071068286895752
			],
			"translation":[
				1.9035249948501587,
				1.614629864692688,
				-3.3615400791168213
			]
		},
		{
			"children":[
				0
			],
			"mesh":1,
			"name":"Cube",
			"rotation":[
				0.7071068286895752,
				0,
				0,
				0.7071068286895752
			],
			"scale":[
				0.5401288866996765,
				0.5401288866996765,
				0.5401288866996765
			],
			"translation":[
				0,
				-0.04233193397521973,
				0
			]
		}
	],
	"materials":[
		{
			"doubleSided":true,
			"name":"Material.001"
		}
	],
	"meshes":[
		{
			"name":"Cube.002",
			"primitives":[
				{
					"attributes":{
						"POSITION":0,
						"NORMAL":1,
						"TEXCOORD_0":2
					},
					"indices":3,
					"material":0
				}
			]
		},
		{
			"name":"Cube.001",
			"primitives":[
				{
					"attributes":{
						"POSITION":4,
						"NORMAL":5,
						"TEXCOORD_0":6
					},
					"indices":7,
					"material":0
				}
			]
		}
	],
	"accessors":[
		{
			"bufferView":0,
			"componentType":5126,
			"count":122,
			"max":[
				1.1345893824454834e-07,
				0.9151584506034851,
				1.6146308183670044
			],
			"min":[
				-3.8070502281188965,
				-1.924788932683441e-07,
				-1.6146302223205566
			],
			"type":"VEC3"
		},
		{
			"bufferView":1,
			"componentType":5126,
			"count":122,
			"type":"VEC3"
		},
		{
			"bufferView":2,
			"componentType":5126,
			"count":122,
			"type":"VEC2"
		},
		{
			"bufferView":3,
			"componentType":5123,
			"count":282,
			"type":"SCALAR"
		},
		{
			"bufferView":4,
			"componentType":5126,
			"count":358,
			"max":[
				1.9635252952575684,
				3.289260149002075,
				1.1920928955078125e-07
			],
			"min":[
				-1.9635252952575684,
				-3.289260149002075,
				-4.277325630187988
			],
			"type":"VEC3"
		},
		{
			"bufferView":5,
			"componentType":5126,
			"count":358,
			"type":"VEC3"
		},
		{
			"bufferView":6,
			"componentType":5126,
			"count":358,
			"type":"VEC2"
		},
		{
			"bufferView":7,
			"componentType":5123,
			"count":972,
			"type":"SCALAR"
		}
	],
	"bufferViews":[
		{
			"buffer":0,
			"byteLength":1464,
			"byteOffset":0,
			"target":34962
		},
		{
			"buffer":0,
			"byteLength":1464,
			"byteOffset":1464,
			"target":34962
		},
		{
			"buffer":0,
			"byteLength":976,
			"byteOffset":2928,
			"target":34962
		},
		{
			"buffer":0,
			"byteLength":564,
			"byteOffset":3904,
			"target":34963
		},
		{
			"buffer":0,
			"byteLength":4296,
			"byteOffset":4468,
			"target":34962
		},
		{
			"buffer":0,
			"byteLength":4296,
			"byteOffset":8764,
			"target":34962
		},
		{
			"buffer":0,
			"byteLength":2864,
			"byteOffset":13060,
			"target":34962
		},
		{
			"buffer":0,
			"byteLength":1944,
			"byteOffset":15924,
			"target":34963
		}
	],
	"buffers":[
		{
			"byteLength":17868,
			"uri":"TrashCan-f9425cde3a6b395ecdd978b2c0699785.bin"
		}
	]
}
