o FullHeightDiamondLattice
v 1.44010 0.25990 0.01400
v 1.44505 0.25495 0.02612
v 1.45495 0.24505 0.02612
v 1.45990 0.24010 0.01400
v 1.45495 0.24505 0.00188
v 1.44505 0.25495 0.00188
v 1.55010 0.36990 0.01400
v 1.55505 0.36495 0.02612
v 1.56495 0.35505 0.02612
v 1.56990 0.35010 0.01400
v 1.56495 0.35505 0.00188
v 1.55505 0.36495 0.00188
v 1.24010 0.25990 0.01400
v 1.24505 0.25495 0.02612
v 1.25495 0.24505 0.02612
v 1.25990 0.24010 0.01400
v 1.25495 0.24505 0.00188
v 1.24505 0.25495 0.00188
v 1.55010 0.56990 0.01400
v 1.55505 0.56495 0.02612
v 1.56495 0.55505 0.02612
v 1.56990 0.55010 0.01400
v 1.56495 0.55505 0.00188
v 1.55505 0.56495 0.00188
v 1.04010 0.25990 0.01400
v 1.04505 0.25495 0.02612
v 1.05495 0.24505 0.02612
v 1.05990 0.24010 0.01400
v 1.05495 0.24505 0.00188
v 1.04505 0.25495 0.00188
v 1.55010 0.76990 0.01400
v 1.55505 0.76495 0.02612
v 1.56495 0.75505 0.02612
v 1.56990 0.75010 0.01400
v 1.56495 0.75505 0.00188
v 1.55505 0.76495 0.00188
v 0.84010 0.25990 0.01400
v 0.84505 0.25495 0.02612
v 0.85495 0.24505 0.02612
v 0.85990 0.24010 0.01400
v 0.85495 0.24505 0.00188
v 0.84505 0.25495 0.00188
v 1.55010 0.96990 0.01400
v 1.55505 0.96495 0.02612
v 1.56495 0.95505 0.02612
v 1.56990 0.95010 0.01400
v 1.56495 0.95505 0.00188
v 1.55505 0.96495 0.00188
v 0.64010 0.25990 0.01400
v 0.64505 0.25495 0.02612
v 0.65495 0.24505 0.02612
v 0.65990 0.24010 0.01400
v 0.65495 0.24505 0.00188
v 0.64505 0.25495 0.00188
v 1.55010 1.16990 0.01400
v 1.55505 1.16495 0.02612
v 1.56495 1.15505 0.02612
v 1.56990 1.15010 0.01400
v 1.56495 1.15505 0.00188
v 1.55505 1.16495 0.00188
v 0.44010 0.25990 0.01400
v 0.44505 0.25495 0.02612
v 0.45495 0.24505 0.02612
v 0.45990 0.24010 0.01400
v 0.45495 0.24505 0.00188
v 0.44505 0.25495 0.00188
v 1.55010 1.36990 0.01400
v 1.55505 1.36495 0.02612
v 1.56495 1.35505 0.02612
v 1.56990 1.35010 0.01400
v 1.56495 1.35505 0.00188
v 1.55505 1.36495 0.00188
v 0.24010 0.25990 0.01400
v 0.24505 0.25495 0.02612
v 0.25495 0.24505 0.02612
v 0.25990 0.24010 0.01400
v 0.25495 0.24505 0.00188
v 0.24505 0.25495 0.00188
v 1.55010 1.56990 0.01400
v 1.55505 1.56495 0.02612
v 1.56495 1.55505 0.02612
v 1.56990 1.55010 0.01400
v 1.56495 1.55505 0.00188
v 1.55505 1.56495 0.00188
v 0.04010 0.25990 0.01400
v 0.04505 0.25495 0.02612
v 0.05495 0.24505 0.02612
v 0.05990 0.24010 0.01400
v 0.05495 0.24505 0.00188
v 0.04505 0.25495 0.00188
v 1.55010 1.76990 0.01400
v 1.55505 1.76495 0.02612
v 1.56495 1.75505 0.02612
v 1.56990 1.75010 0.01400
v 1.56495 1.75505 0.00188
v 1.55505 1.76495 0.00188
v 0.03010 0.44990 0.01400
v 0.03505 0.44495 0.02612
v 0.04495 0.43505 0.02612
v 0.04990 0.43010 0.01400
v 0.04495 0.43505 0.00188
v 0.03505 0.44495 0.00188
v 1.55010 1.96990 0.01400
v 1.55505 1.96495 0.02612
v 1.56495 1.95505 0.02612
v 1.56990 1.95010 0.01400
v 1.56495 1.95505 0.00188
v 1.55505 1.96495 0.00188
v 0.03010 0.64990 0.01400
v 0.03505 0.64495 0.02612
v 0.04495 0.63505 0.02612
v 0.04990 0.63010 0.01400
v 0.04495 0.63505 0.00188
v 0.03505 0.64495 0.00188
v 1.55010 2.16990 0.01400
v 1.55505 2.16495 0.02612
v 1.56495 2.15505 0.02612
v 1.56990 2.15010 0.01400
v 1.56495 2.15505 0.00188
v 1.55505 2.16495 0.00188
v 0.03010 0.84990 0.01400
v 0.03505 0.84495 0.02612
v 0.04495 0.83505 0.02612
v 0.04990 0.83010 0.01400
v 0.04495 0.83505 0.00188
v 0.03505 0.84495 0.00188
v 1.55010 2.36990 0.01400
v 1.55505 2.36495 0.02612
v 1.56495 2.35505 0.02612
v 1.56990 2.35010 0.01400
v 1.56495 2.35505 0.00188
v 1.55505 2.36495 0.00188
v 0.03010 1.04990 0.01400
v 0.03505 1.04495 0.02612
v 0.04495 1.03505 0.02612
v 0.04990 1.03010 0.01400
v 0.04495 1.03505 0.00188
v 0.03505 1.04495 0.00188
v 1.52510 2.54490 0.01400
v 1.53005 2.53995 0.02612
v 1.53995 2.53005 0.02612
v 1.54490 2.52510 0.01400
v 1.53995 2.53005 0.00188
v 1.53005 2.53995 0.00188
v 0.03010 1.24990 0.01400
v 0.03505 1.24495 0.02612
v 0.04495 1.23505 0.02612
v 0.04990 1.23010 0.01400
v 0.04495 1.23505 0.00188
v 0.03505 1.24495 0.00188
v 1.32510 2.54490 0.01400
v 1.33005 2.53995 0.02612
v 1.33995 2.53005 0.02612
v 1.34490 2.52510 0.01400
v 1.33995 2.53005 0.00188
v 1.33005 2.53995 0.00188
v 0.03010 1.44990 0.01400
v 0.03505 1.44495 0.02612
v 0.04495 1.43505 0.02612
v 0.04990 1.43010 0.01400
v 0.04495 1.43505 0.00188
v 0.03505 1.44495 0.00188
v 1.12510 2.54490 0.01400
v 1.13005 2.53995 0.02612
v 1.13995 2.53005 0.02612
v 1.14490 2.52510 0.01400
v 1.13995 2.53005 0.00188
v 1.13005 2.53995 0.00188
v 0.03010 1.64990 0.01400
v 0.03505 1.64495 0.02612
v 0.04495 1.63505 0.02612
v 0.04990 1.63010 0.01400
v 0.04495 1.63505 0.00188
v 0.03505 1.64495 0.00188
v 0.92510 2.54490 0.01400
v 0.93005 2.53995 0.02612
v 0.93995 2.53005 0.02612
v 0.94490 2.52510 0.01400
v 0.93995 2.53005 0.00188
v 0.93005 2.53995 0.00188
v 0.03010 1.84990 0.01400
v 0.03505 1.84495 0.02612
v 0.04495 1.83505 0.02612
v 0.04990 1.83010 0.01400
v 0.04495 1.83505 0.00188
v 0.03505 1.84495 0.00188
v 0.72510 2.54490 0.01400
v 0.73005 2.53995 0.02612
v 0.73995 2.53005 0.02612
v 0.74490 2.52510 0.01400
v 0.73995 2.53005 0.00188
v 0.73005 2.53995 0.00188
v 0.03010 2.04990 0.01400
v 0.03505 2.04495 0.02612
v 0.04495 2.03505 0.02612
v 0.04990 2.03010 0.01400
v 0.04495 2.03505 0.00188
v 0.03505 2.04495 0.00188
v 0.52510 2.54490 0.01400
v 0.53005 2.53995 0.02612
v 0.53995 2.53005 0.02612
v 0.54490 2.52510 0.01400
v 0.53995 2.53005 0.00188
v 0.53005 2.53995 0.00188
v 0.03010 2.24990 0.01400
v 0.03505 2.24495 0.02612
v 0.04495 2.23505 0.02612
v 0.04990 2.23010 0.01400
v 0.04495 2.23505 0.00188
v 0.03505 2.24495 0.00188
v 0.32510 2.54490 0.01400
v 0.33005 2.53995 0.02612
v 0.33995 2.53005 0.02612
v 0.34490 2.52510 0.01400
v 0.33995 2.53005 0.00188
v 0.33005 2.53995 0.00188
v 0.03010 2.44990 0.01400
v 0.03505 2.44495 0.02612
v 0.04495 2.43505 0.02612
v 0.04990 2.43010 0.01400
v 0.04495 2.43505 0.00188
v 0.03505 2.44495 0.00188
v 0.12510 2.54490 0.01400
v 0.13005 2.53995 0.02612
v 0.13995 2.53005 0.02612
v 0.14490 2.52510 0.01400
v 0.13995 2.53005 0.00188
v 0.13005 2.53995 0.00188
v 0.04990 0.36990 -0.01400
v 0.04495 0.36495 -0.00188
v 0.03505 0.35505 -0.00188
v 0.03010 0.35010 -0.01400
v 0.03505 0.35505 -0.02612
v 0.04495 0.36495 -0.02612
v 0.15990 0.25990 -0.01400
v 0.15495 0.25495 -0.00188
v 0.14505 0.24505 -0.00188
v 0.14010 0.24010 -0.01400
v 0.14505 0.24505 -0.02612
v 0.15495 0.25495 -0.02612
v 0.04990 0.56990 -0.01400
v 0.04495 0.56495 -0.00188
v 0.03505 0.55505 -0.00188
v 0.03010 0.55010 -0.01400
v 0.03505 0.55505 -0.02612
v 0.04495 0.56495 -0.02612
v 0.35990 0.25990 -0.01400
v 0.35495 0.25495 -0.00188
v 0.34505 0.24505 -0.00188
v 0.34010 0.24010 -0.01400
v 0.34505 0.24505 -0.02612
v 0.35495 0.25495 -0.02612
v 0.04990 0.76990 -0.01400
v 0.04495 0.76495 -0.00188
v 0.03505 0.75505 -0.00188
v 0.03010 0.75010 -0.01400
v 0.03505 0.75505 -0.02612
v 0.04495 0.76495 -0.02612
v 0.55990 0.25990 -0.01400
v 0.55495 0.25495 -0.00188
v 0.54505 0.24505 -0.00188
v 0.54010 0.24010 -0.01400
v 0.54505 0.24505 -0.02612
v 0.55495 0.25495 -0.02612
v 0.04990 0.96990 -0.01400
v 0.04495 0.96495 -0.00188
v 0.03505 0.95505 -0.00188
v 0.03010 0.95010 -0.01400
v 0.03505 0.95505 -0.02612
v 0.04495 0.96495 -0.02612
v 0.75990 0.25990 -0.01400
v 0.75495 0.25495 -0.00188
v 0.74505 0.24505 -0.00188
v 0.74010 0.24010 -0.01400
v 0.74505 0.24505 -0.02612
v 0.75495 0.25495 -0.02612
v 0.04990 1.16990 -0.01400
v 0.04495 1.16495 -0.00188
v 0.03505 1.15505 -0.00188
v 0.03010 1.15010 -0.01400
v 0.03505 1.15505 -0.02612
v 0.04495 1.16495 -0.02612
v 0.95990 0.25990 -0.01400
v 0.95495 0.25495 -0.00188
v 0.94505 0.24505 -0.00188
v 0.94010 0.24010 -0.01400
v 0.94505 0.24505 -0.02612
v 0.95495 0.25495 -0.02612
v 0.04990 1.36990 -0.01400
v 0.04495 1.36495 -0.00188
v 0.03505 1.35505 -0.00188
v 0.03010 1.35010 -0.01400
v 0.03505 1.35505 -0.02612
v 0.04495 1.36495 -0.02612
v 1.15990 0.25990 -0.01400
v 1.15495 0.25495 -0.00188
v 1.14505 0.24505 -0.00188
v 1.14010 0.24010 -0.01400
v 1.14505 0.24505 -0.02612
v 1.15495 0.25495 -0.02612
v 0.04990 1.56990 -0.01400
v 0.04495 1.56495 -0.00188
v 0.03505 1.55505 -0.00188
v 0.03010 1.55010 -0.01400
v 0.03505 1.55505 -0.02612
v 0.04495 1.56495 -0.02612
v 1.35990 0.25990 -0.01400
v 1.35495 0.25495 -0.00188
v 1.34505 0.24505 -0.00188
v 1.34010 0.24010 -0.01400
v 1.34505 0.24505 -0.02612
v 1.35495 0.25495 -0.02612
v 0.04990 1.76990 -0.01400
v 0.04495 1.76495 -0.00188
v 0.03505 1.75505 -0.00188
v 0.03010 1.75010 -0.01400
v 0.03505 1.75505 -0.02612
v 0.04495 1.76495 -0.02612
v 1.55990 0.25990 -0.01400
v 1.55495 0.25495 -0.00188
v 1.54505 0.24505 -0.00188
v 1.54010 0.24010 -0.01400
v 1.54505 0.24505 -0.02612
v 1.55495 0.25495 -0.02612
v 0.04990 1.96990 -0.01400
v 0.04495 1.96495 -0.00188
v 0.03505 1.95505 -0.00188
v 0.03010 1.95010 -0.01400
v 0.03505 1.95505 -0.02612
v 0.04495 1.96495 -0.02612
v 1.56990 0.44990 -0.01400
v 1.56495 0.44495 -0.00188
v 1.55505 0.43505 -0.00188
v 1.55010 0.43010 -0.01400
v 1.55505 0.43505 -0.02612
v 1.56495 0.44495 -0.02612
v 0.04990 2.16990 -0.01400
v 0.04495 2.16495 -0.00188
v 0.03505 2.15505 -0.00188
v 0.03010 2.15010 -0.01400
v 0.03505 2.15505 -0.02612
v 0.04495 2.16495 -0.02612
v 1.56990 0.64990 -0.01400
v 1.56495 0.64495 -0.00188
v 1.55505 0.63505 -0.00188
v 1.55010 0.63010 -0.01400
v 1.55505 0.63505 -0.02612
v 1.56495 0.64495 -0.02612
v 0.04990 2.36990 -0.01400
v 0.04495 2.36495 -0.00188
v 0.03505 2.35505 -0.00188
v 0.03010 2.35010 -0.01400
v 0.03505 2.35505 -0.02612
v 0.04495 2.36495 -0.02612
v 1.56990 0.84990 -0.01400
v 1.56495 0.84495 -0.00188
v 1.55505 0.83505 -0.00188
v 1.55010 0.83010 -0.01400
v 1.55505 0.83505 -0.02612
v 1.56495 0.84495 -0.02612
v 0.07490 2.54490 -0.01400
v 0.06995 2.53995 -0.00188
v 0.06005 2.53005 -0.00188
v 0.05510 2.52510 -0.01400
v 0.06005 2.53005 -0.02612
v 0.06995 2.53995 -0.02612
v 1.56990 1.04990 -0.01400
v 1.56495 1.04495 -0.00188
v 1.55505 1.03505 -0.00188
v 1.55010 1.03010 -0.01400
v 1.55505 1.03505 -0.02612
v 1.56495 1.04495 -0.02612
v 0.27490 2.54490 -0.01400
v 0.26995 2.53995 -0.00188
v 0.26005 2.53005 -0.00188
v 0.25510 2.52510 -0.01400
v 0.26005 2.53005 -0.02612
v 0.26995 2.53995 -0.02612
v 1.56990 1.24990 -0.01400
v 1.56495 1.24495 -0.00188
v 1.55505 1.23505 -0.00188
v 1.55010 1.23010 -0.01400
v 1.55505 1.23505 -0.02612
v 1.56495 1.24495 -0.02612
v 0.47490 2.54490 -0.01400
v 0.46995 2.53995 -0.00188
v 0.46005 2.53005 -0.00188
v 0.45510 2.52510 -0.01400
v 0.46005 2.53005 -0.02612
v 0.46995 2.53995 -0.02612
v 1.56990 1.44990 -0.01400
v 1.56495 1.44495 -0.00188
v 1.55505 1.43505 -0.00188
v 1.55010 1.43010 -0.01400
v 1.55505 1.43505 -0.02612
v 1.56495 1.44495 -0.02612
v 0.67490 2.54490 -0.01400
v 0.66995 2.53995 -0.00188
v 0.66005 2.53005 -0.00188
v 0.65510 2.52510 -0.01400
v 0.66005 2.53005 -0.02612
v 0.66995 2.53995 -0.02612
v 1.56990 1.64990 -0.01400
v 1.56495 1.64495 -0.00188
v 1.55505 1.63505 -0.00188
v 1.55010 1.63010 -0.01400
v 1.55505 1.63505 -0.02612
v 1.56495 1.64495 -0.02612
v 0.87490 2.54490 -0.01400
v 0.86995 2.53995 -0.00188
v 0.86005 2.53005 -0.00188
v 0.85510 2.52510 -0.01400
v 0.86005 2.53005 -0.02612
v 0.86995 2.53995 -0.02612
v 1.56990 1.84990 -0.01400
v 1.56495 1.84495 -0.00188
v 1.55505 1.83505 -0.00188
v 1.55010 1.83010 -0.01400
v 1.55505 1.83505 -0.02612
v 1.56495 1.84495 -0.02612
v 1.07490 2.54490 -0.01400
v 1.06995 2.53995 -0.00188
v 1.06005 2.53005 -0.00188
v 1.05510 2.52510 -0.01400
v 1.06005 2.53005 -0.02612
v 1.06995 2.53995 -0.02612
v 1.56990 2.04990 -0.01400
v 1.56495 2.04495 -0.00188
v 1.55505 2.03505 -0.00188
v 1.55010 2.03010 -0.01400
v 1.55505 2.03505 -0.02612
v 1.56495 2.04495 -0.02612
v 1.27490 2.54490 -0.01400
v 1.26995 2.53995 -0.00188
v 1.26005 2.53005 -0.00188
v 1.25510 2.52510 -0.01400
v 1.26005 2.53005 -0.02612
v 1.26995 2.53995 -0.02612
v 1.56990 2.24990 -0.01400
v 1.56495 2.24495 -0.00188
v 1.55505 2.23505 -0.00188
v 1.55010 2.23010 -0.01400
v 1.55505 2.23505 -0.02612
v 1.56495 2.24495 -0.02612
v 1.47490 2.54490 -0.01400
v 1.46995 2.53995 -0.00188
v 1.46005 2.53005 -0.00188
v 1.45510 2.52510 -0.01400
v 1.46005 2.53005 -0.02612
v 1.46995 2.53995 -0.02612
v 1.56990 2.44990 -0.01400
v 1.56495 2.44495 -0.00188
v 1.55505 2.43505 -0.00188
v 1.55010 2.43010 -0.01400
v 1.55505 2.43505 -0.02612
v 1.56495 2.44495 -0.02612
vn -0.70711 0.70711 0.00000
vn -0.35355 0.35355 0.86603
vn 0.35355 -0.35355 0.86603
vn 0.70711 -0.70711 0.00000
vn 0.35355 -0.35355 -0.86603
vn -0.35355 0.35355 -0.86603
vn -0.70711 0.70711 0.00000
vn -0.35355 0.35355 0.86603
vn 0.35355 -0.35355 0.86603
vn 0.70711 -0.70711 0.00000
vn 0.35355 -0.35355 -0.86603
vn -0.35355 0.35355 -0.86603
vn -0.70711 0.70711 0.00000
vn -0.35355 0.35355 0.86603
vn 0.35355 -0.35355 0.86603
vn 0.70711 -0.70711 0.00000
vn 0.35355 -0.35355 -0.86603
vn -0.35355 0.35355 -0.86603
vn -0.70711 0.70711 0.00000
vn -0.35355 0.35355 0.86603
vn 0.35355 -0.35355 0.86603
vn 0.70711 -0.70711 0.00000
vn 0.35355 -0.35355 -0.86603
vn -0.35355 0.35355 -0.86603
vn -0.70711 0.70711 0.00000
vn -0.35355 0.35355 0.86603
vn 0.35355 -0.35355 0.86603
vn 0.70711 -0.70711 0.00000
vn 0.35355 -0.35355 -0.86603
vn -0.35355 0.35355 -0.86603
vn -0.70711 0.70711 0.00000
vn -0.35355 0.35355 0.86603
vn 0.35355 -0.35355 0.86603
vn 0.70711 -0.70711 0.00000
vn 0.35355 -0.35355 -0.86603
vn -0.35355 0.35355 -0.86603
vn -0.70711 0.70711 0.00000
vn -0.35355 0.35355 0.86603
vn 0.35355 -0.35355 0.86603
vn 0.70711 -0.70711 0.00000
vn 0.35355 -0.35355 -0.86603
vn -0.35355 0.35355 -0.86603
vn -0.70711 0.70711 0.00000
vn -0.35355 0.35355 0.86603
vn 0.35355 -0.35355 0.86603
vn 0.70711 -0.70711 0.00000
vn 0.35355 -0.35355 -0.86603
vn -0.35355 0.35355 -0.86603
vn -0.70711 0.70711 0.00000
vn -0.35355 0.35355 0.86603
vn 0.35355 -0.35355 0.86603
vn 0.70711 -0.70711 0.00000
vn 0.35355 -0.35355 -0.86603
vn -0.35355 0.35355 -0.86603
vn -0.70711 0.70711 0.00000
vn -0.35355 0.35355 0.86603
vn 0.35355 -0.35355 0.86603
vn 0.70711 -0.70711 0.00000
vn 0.35355 -0.35355 -0.86603
vn -0.35355 0.35355 -0.86603
vn -0.70711 0.70711 0.00000
vn -0.35355 0.35355 0.86603
vn 0.35355 -0.35355 0.86603
vn 0.70711 -0.70711 0.00000
vn 0.35355 -0.35355 -0.86603
vn -0.35355 0.35355 -0.86603
vn -0.70711 0.70711 0.00000
vn -0.35355 0.35355 0.86603
vn 0.35355 -0.35355 0.86603
vn 0.70711 -0.70711 0.00000
vn 0.35355 -0.35355 -0.86603
vn -0.35355 0.35355 -0.86603
vn -0.70711 0.70711 0.00000
vn -0.35355 0.35355 0.86603
vn 0.35355 -0.35355 0.86603
vn 0.70711 -0.70711 0.00000
vn 0.35355 -0.35355 -0.86603
vn -0.35355 0.35355 -0.86603
vn -0.70711 0.70711 0.00000
vn -0.35355 0.35355 0.86603
vn 0.35355 -0.35355 0.86603
vn 0.70711 -0.70711 0.00000
vn 0.35355 -0.35355 -0.86603
vn -0.35355 0.35355 -0.86603
vn -0.70711 0.70711 0.00000
vn -0.35355 0.35355 0.86603
vn 0.35355 -0.35355 0.86603
vn 0.70711 -0.70711 0.00000
vn 0.35355 -0.35355 -0.86603
vn -0.35355 0.35355 -0.86603
vn -0.70711 0.70711 0.00000
vn -0.35355 0.35355 0.86603
vn 0.35355 -0.35355 0.86603
vn 0.70711 -0.70711 0.00000
vn 0.35355 -0.35355 -0.86603
vn -0.35355 0.35355 -0.86603
vn -0.70711 0.70711 0.00000
vn -0.35355 0.35355 0.86603
vn 0.35355 -0.35355 0.86603
vn 0.70711 -0.70711 0.00000
vn 0.35355 -0.35355 -0.86603
vn -0.35355 0.35355 -0.86603
vn -0.70711 0.70711 0.00000
vn -0.35355 0.35355 0.86603
vn 0.35355 -0.35355 0.86603
vn 0.70711 -0.70711 0.00000
vn 0.35355 -0.35355 -0.86603
vn -0.35355 0.35355 -0.86603
vn -0.70711 0.70711 0.00000
vn -0.35355 0.35355 0.86603
vn 0.35355 -0.35355 0.86603
vn 0.70711 -0.70711 0.00000
vn 0.35355 -0.35355 -0.86603
vn -0.35355 0.35355 -0.86603
vn -0.70711 0.70711 0.00000
vn -0.35355 0.35355 0.86603
vn 0.35355 -0.35355 0.86603
vn 0.70711 -0.70711 0.00000
vn 0.35355 -0.35355 -0.86603
vn -0.35355 0.35355 -0.86603
vn -0.70711 0.70711 0.00000
vn -0.35355 0.35355 0.86603
vn 0.35355 -0.35355 0.86603
vn 0.70711 -0.70711 0.00000
vn 0.35355 -0.35355 -0.86603
vn -0.35355 0.35355 -0.86603
vn -0.70711 0.70711 0.00000
vn -0.35355 0.35355 0.86603
vn 0.35355 -0.35355 0.86603
vn 0.70711 -0.70711 0.00000
vn 0.35355 -0.35355 -0.86603
vn -0.35355 0.35355 -0.86603
vn -0.70711 0.70711 0.00000
vn -0.35355 0.35355 0.86603
vn 0.35355 -0.35355 0.86603
vn 0.70711 -0.70711 0.00000
vn 0.35355 -0.35355 -0.86603
vn -0.35355 0.35355 -0.86603
vn -0.70711 0.70711 0.00000
vn -0.35355 0.35355 0.86603
vn 0.35355 -0.35355 0.86603
vn 0.70711 -0.70711 0.00000
vn 0.35355 -0.35355 -0.86603
vn -0.35355 0.35355 -0.86603
vn -0.70711 0.70711 0.00000
vn -0.35355 0.35355 0.86603
vn 0.35355 -0.35355 0.86603
vn 0.70711 -0.70711 0.00000
vn 0.35355 -0.35355 -0.86603
vn -0.35355 0.35355 -0.86603
vn -0.70711 0.70711 0.00000
vn -0.35355 0.35355 0.86603
vn 0.35355 -0.35355 0.86603
vn 0.70711 -0.70711 0.00000
vn 0.35355 -0.35355 -0.86603
vn -0.35355 0.35355 -0.86603
vn -0.70711 0.70711 0.00000
vn -0.35355 0.35355 0.86603
vn 0.35355 -0.35355 0.86603
vn 0.70711 -0.70711 0.00000
vn 0.35355 -0.35355 -0.86603
vn -0.35355 0.35355 -0.86603
vn -0.70711 0.70711 0.00000
vn -0.35355 0.35355 0.86603
vn 0.35355 -0.35355 0.86603
vn 0.70711 -0.70711 0.00000
vn 0.35355 -0.35355 -0.86603
vn -0.35355 0.35355 -0.86603
vn -0.70711 0.70711 0.00000
vn -0.35355 0.35355 0.86603
vn 0.35355 -0.35355 0.86603
vn 0.70711 -0.70711 0.00000
vn 0.35355 -0.35355 -0.86603
vn -0.35355 0.35355 -0.86603
vn -0.70711 0.70711 0.00000
vn -0.35355 0.35355 0.86603
vn 0.35355 -0.35355 0.86603
vn 0.70711 -0.70711 0.00000
vn 0.35355 -0.35355 -0.86603
vn -0.35355 0.35355 -0.86603
vn -0.70711 0.70711 0.00000
vn -0.35355 0.35355 0.86603
vn 0.35355 -0.35355 0.86603
vn 0.70711 -0.70711 0.00000
vn 0.35355 -0.35355 -0.86603
vn -0.35355 0.35355 -0.86603
vn -0.70711 0.70711 0.00000
vn -0.35355 0.35355 0.86603
vn 0.35355 -0.35355 0.86603
vn 0.70711 -0.70711 0.00000
vn 0.35355 -0.35355 -0.86603
vn -0.35355 0.35355 -0.86603
vn -0.70711 0.70711 0.00000
vn -0.35355 0.35355 0.86603
vn 0.35355 -0.35355 0.86603
vn 0.70711 -0.70711 0.00000
vn 0.35355 -0.35355 -0.86603
vn -0.35355 0.35355 -0.86603
vn -0.70711 0.70711 0.00000
vn -0.35355 0.35355 0.86603
vn 0.35355 -0.35355 0.86603
vn 0.70711 -0.70711 0.00000
vn 0.35355 -0.35355 -0.86603
vn -0.35355 0.35355 -0.86603
vn -0.70711 0.70711 0.00000
vn -0.35355 0.35355 0.86603
vn 0.35355 -0.35355 0.86603
vn 0.70711 -0.70711 0.00000
vn 0.35355 -0.35355 -0.86603
vn -0.35355 0.35355 -0.86603
vn -0.70711 0.70711 0.00000
vn -0.35355 0.35355 0.86603
vn 0.35355 -0.35355 0.86603
vn 0.70711 -0.70711 0.00000
vn 0.35355 -0.35355 -0.86603
vn -0.35355 0.35355 -0.86603
vn -0.70711 0.70711 0.00000
vn -0.35355 0.35355 0.86603
vn 0.35355 -0.35355 0.86603
vn 0.70711 -0.70711 0.00000
vn 0.35355 -0.35355 -0.86603
vn -0.35355 0.35355 -0.86603
vn -0.70711 0.70711 0.00000
vn -0.35355 0.35355 0.86603
vn 0.35355 -0.35355 0.86603
vn 0.70711 -0.70711 0.00000
vn 0.35355 -0.35355 -0.86603
vn -0.35355 0.35355 -0.86603
vn 0.70711 0.70711 0.00000
vn 0.35355 0.35355 0.86603
vn -0.35355 -0.35355 0.86603
vn -0.70711 -0.70711 0.00000
vn -0.35355 -0.35355 -0.86603
vn 0.35355 0.35355 -0.86603
vn 0.70711 0.70711 0.00000
vn 0.35355 0.35355 0.86603
vn -0.35355 -0.35355 0.86603
vn -0.70711 -0.70711 0.00000
vn -0.35355 -0.35355 -0.86603
vn 0.35355 0.35355 -0.86603
vn 0.70711 0.70711 0.00000
vn 0.35355 0.35355 0.86603
vn -0.35355 -0.35355 0.86603
vn -0.70711 -0.70711 0.00000
vn -0.35355 -0.35355 -0.86603
vn 0.35355 0.35355 -0.86603
vn 0.70711 0.70711 0.00000
vn 0.35355 0.35355 0.86603
vn -0.35355 -0.35355 0.86603
vn -0.70711 -0.70711 0.00000
vn -0.35355 -0.35355 -0.86603
vn 0.35355 0.35355 -0.86603
vn 0.70711 0.70711 0.00000
vn 0.35355 0.35355 0.86603
vn -0.35355 -0.35355 0.86603
vn -0.70711 -0.70711 0.00000
vn -0.35355 -0.35355 -0.86603
vn 0.35355 0.35355 -0.86603
vn 0.70711 0.70711 0.00000
vn 0.35355 0.35355 0.86603
vn -0.35355 -0.35355 0.86603
vn -0.70711 -0.70711 0.00000
vn -0.35355 -0.35355 -0.86603
vn 0.35355 0.35355 -0.86603
vn 0.70711 0.70711 0.00000
vn 0.35355 0.35355 0.86603
vn -0.35355 -0.35355 0.86603
vn -0.70711 -0.70711 0.00000
vn -0.35355 -0.35355 -0.86603
vn 0.35355 0.35355 -0.86603
vn 0.70711 0.70711 0.00000
vn 0.35355 0.35355 0.86603
vn -0.35355 -0.35355 0.86603
vn -0.70711 -0.70711 0.00000
vn -0.35355 -0.35355 -0.86603
vn 0.35355 0.35355 -0.86603
vn 0.70711 0.70711 0.00000
vn 0.35355 0.35355 0.86603
vn -0.35355 -0.35355 0.86603
vn -0.70711 -0.70711 0.00000
vn -0.35355 -0.35355 -0.86603
vn 0.35355 0.35355 -0.86603
vn 0.70711 0.70711 0.00000
vn 0.35355 0.35355 0.86603
vn -0.35355 -0.35355 0.86603
vn -0.70711 -0.70711 0.00000
vn -0.35355 -0.35355 -0.86603
vn 0.35355 0.35355 -0.86603
vn 0.70711 0.70711 0.00000
vn 0.35355 0.35355 0.86603
vn -0.35355 -0.35355 0.86603
vn -0.70711 -0.70711 0.00000
vn -0.35355 -0.35355 -0.86603
vn 0.35355 0.35355 -0.86603
vn 0.70711 0.70711 0.00000
vn 0.35355 0.35355 0.86603
vn -0.35355 -0.35355 0.86603
vn -0.70711 -0.70711 0.00000
vn -0.35355 -0.35355 -0.86603
vn 0.35355 0.35355 -0.86603
vn 0.70711 0.70711 0.00000
vn 0.35355 0.35355 0.86603
vn -0.35355 -0.35355 0.86603
vn -0.70711 -0.70711 0.00000
vn -0.35355 -0.35355 -0.86603
vn 0.35355 0.35355 -0.86603
vn 0.70711 0.70711 0.00000
vn 0.35355 0.35355 0.86603
vn -0.35355 -0.35355 0.86603
vn -0.70711 -0.70711 0.00000
vn -0.35355 -0.35355 -0.86603
vn 0.35355 0.35355 -0.86603
vn 0.70711 0.70711 0.00000
vn 0.35355 0.35355 0.86603
vn -0.35355 -0.35355 0.86603
vn -0.70711 -0.70711 0.00000
vn -0.35355 -0.35355 -0.86603
vn 0.35355 0.35355 -0.86603
vn 0.70711 0.70711 0.00000
vn 0.35355 0.35355 0.86603
vn -0.35355 -0.35355 0.86603
vn -0.70711 -0.70711 0.00000
vn -0.35355 -0.35355 -0.86603
vn 0.35355 0.35355 -0.86603
vn 0.70711 0.70711 0.00000
vn 0.35355 0.35355 0.86603
vn -0.35355 -0.35355 0.86603
vn -0.70711 -0.70711 0.00000
vn -0.35355 -0.35355 -0.86603
vn 0.35355 0.35355 -0.86603
vn 0.70711 0.70711 0.00000
vn 0.35355 0.35355 0.86603
vn -0.35355 -0.35355 0.86603
vn -0.70711 -0.70711 0.00000
vn -0.35355 -0.35355 -0.86603
vn 0.35355 0.35355 -0.86603
vn 0.70711 0.70711 0.00000
vn 0.35355 0.35355 0.86603
vn -0.35355 -0.35355 0.86603
vn -0.70711 -0.70711 0.00000
vn -0.35355 -0.35355 -0.86603
vn 0.35355 0.35355 -0.86603
vn 0.70711 0.70711 0.00000
vn 0.35355 0.35355 0.86603
vn -0.35355 -0.35355 0.86603
vn -0.70711 -0.70711 0.00000
vn -0.35355 -0.35355 -0.86603
vn 0.35355 0.35355 -0.86603
vn 0.70711 0.70711 0.00000
vn 0.35355 0.35355 0.86603
vn -0.35355 -0.35355 0.86603
vn -0.70711 -0.70711 0.00000
vn -0.35355 -0.35355 -0.86603
vn 0.35355 0.35355 -0.86603
vn 0.70711 0.70711 0.00000
vn 0.35355 0.35355 0.86603
vn -0.35355 -0.35355 0.86603
vn -0.70711 -0.70711 0.00000
vn -0.35355 -0.35355 -0.86603
vn 0.35355 0.35355 -0.86603
vn 0.70711 0.70711 0.00000
vn 0.35355 0.35355 0.86603
vn -0.35355 -0.35355 0.86603
vn -0.70711 -0.70711 0.00000
vn -0.35355 -0.35355 -0.86603
vn 0.35355 0.35355 -0.86603
vn 0.70711 0.70711 0.00000
vn 0.35355 0.35355 0.86603
vn -0.35355 -0.35355 0.86603
vn -0.70711 -0.70711 0.00000
vn -0.35355 -0.35355 -0.86603
vn 0.35355 0.35355 -0.86603
vn 0.70711 0.70711 0.00000
vn 0.35355 0.35355 0.86603
vn -0.35355 -0.35355 0.86603
vn -0.70711 -0.70711 0.00000
vn -0.35355 -0.35355 -0.86603
vn 0.35355 0.35355 -0.86603
vn 0.70711 0.70711 0.00000
vn 0.35355 0.35355 0.86603
vn -0.35355 -0.35355 0.86603
vn -0.70711 -0.70711 0.00000
vn -0.35355 -0.35355 -0.86603
vn 0.35355 0.35355 -0.86603
vn 0.70711 0.70711 0.00000
vn 0.35355 0.35355 0.86603
vn -0.35355 -0.35355 0.86603
vn -0.70711 -0.70711 0.00000
vn -0.35355 -0.35355 -0.86603
vn 0.35355 0.35355 -0.86603
vn 0.70711 0.70711 0.00000
vn 0.35355 0.35355 0.86603
vn -0.35355 -0.35355 0.86603
vn -0.70711 -0.70711 0.00000
vn -0.35355 -0.35355 -0.86603
vn 0.35355 0.35355 -0.86603
vn 0.70711 0.70711 0.00000
vn 0.35355 0.35355 0.86603
vn -0.35355 -0.35355 0.86603
vn -0.70711 -0.70711 0.00000
vn -0.35355 -0.35355 -0.86603
vn 0.35355 0.35355 -0.86603
vn 0.70711 0.70711 0.00000
vn 0.35355 0.35355 0.86603
vn -0.35355 -0.35355 0.86603
vn -0.70711 -0.70711 0.00000
vn -0.35355 -0.35355 -0.86603
vn 0.35355 0.35355 -0.86603
vn 0.70711 0.70711 0.00000
vn 0.35355 0.35355 0.86603
vn -0.35355 -0.35355 0.86603
vn -0.70711 -0.70711 0.00000
vn -0.35355 -0.35355 -0.86603
vn 0.35355 0.35355 -0.86603
vn 0.70711 0.70711 0.00000
vn 0.35355 0.35355 0.86603
vn -0.35355 -0.35355 0.86603
vn -0.70711 -0.70711 0.00000
vn -0.35355 -0.35355 -0.86603
vn 0.35355 0.35355 -0.86603
vn 0.70711 0.70711 0.00000
vn 0.35355 0.35355 0.86603
vn -0.35355 -0.35355 0.86603
vn -0.70711 -0.70711 0.00000
vn -0.35355 -0.35355 -0.86603
vn 0.35355 0.35355 -0.86603
vn 0.70711 0.70711 0.00000
vn 0.35355 0.35355 0.86603
vn -0.35355 -0.35355 0.86603
vn -0.70711 -0.70711 0.00000
vn -0.35355 -0.35355 -0.86603
vn 0.35355 0.35355 -0.86603
vn 0.70711 0.70711 0.00000
vn 0.35355 0.35355 0.86603
vn -0.35355 -0.35355 0.86603
vn -0.70711 -0.70711 0.00000
vn -0.35355 -0.35355 -0.86603
vn 0.35355 0.35355 -0.86603
vn 0.70711 0.70711 0.00000
vn 0.35355 0.35355 0.86603
vn -0.35355 -0.35355 0.86603
vn -0.70711 -0.70711 0.00000
vn -0.35355 -0.35355 -0.86603
vn 0.35355 0.35355 -0.86603
vn 0.70711 0.70711 0.00000
vn 0.35355 0.35355 0.86603
vn -0.35355 -0.35355 0.86603
vn -0.70711 -0.70711 0.00000
vn -0.35355 -0.35355 -0.86603
vn 0.35355 0.35355 -0.86603
vn 0.70711 0.70711 0.00000
vn 0.35355 0.35355 0.86603
vn -0.35355 -0.35355 0.86603
vn -0.70711 -0.70711 0.00000
vn -0.35355 -0.35355 -0.86603
vn 0.35355 0.35355 -0.86603
f 1//1 2//2 8//8 7//7
f 2//2 3//3 9//9 8//8
f 3//3 4//4 10//10 9//9
f 4//4 5//5 11//11 10//10
f 5//5 6//6 12//12 11//11
f 6//6 1//1 7//7 12//12
f 13//13 14//14 20//20 19//19
f 14//14 15//15 21//21 20//20
f 15//15 16//16 22//22 21//21
f 16//16 17//17 23//23 22//22
f 17//17 18//18 24//24 23//23
f 18//18 13//13 19//19 24//24
f 25//25 26//26 32//32 31//31
f 26//26 27//27 33//33 32//32
f 27//27 28//28 34//34 33//33
f 28//28 29//29 35//35 34//34
f 29//29 30//30 36//36 35//35
f 30//30 25//25 31//31 36//36
f 37//37 38//38 44//44 43//43
f 38//38 39//39 45//45 44//44
f 39//39 40//40 46//46 45//45
f 40//40 41//41 47//47 46//46
f 41//41 42//42 48//48 47//47
f 42//42 37//37 43//43 48//48
f 49//49 50//50 56//56 55//55
f 50//50 51//51 57//57 56//56
f 51//51 52//52 58//58 57//57
f 52//52 53//53 59//59 58//58
f 53//53 54//54 60//60 59//59
f 54//54 49//49 55//55 60//60
f 61//61 62//62 68//68 67//67
f 62//62 63//63 69//69 68//68
f 63//63 64//64 70//70 69//69
f 64//64 65//65 71//71 70//70
f 65//65 66//66 72//72 71//71
f 66//66 61//61 67//67 72//72
f 73//73 74//74 80//80 79//79
f 74//74 75//75 81//81 80//80
f 75//75 76//76 82//82 81//81
f 76//76 77//77 83//83 82//82
f 77//77 78//78 84//84 83//83
f 78//78 73//73 79//79 84//84
f 85//85 86//86 92//92 91//91
f 86//86 87//87 93//93 92//92
f 87//87 88//88 94//94 93//93
f 88//88 89//89 95//95 94//94
f 89//89 90//90 96//96 95//95
f 90//90 85//85 91//91 96//96
f 97//97 98//98 104//104 103//103
f 98//98 99//99 105//105 104//104
f 99//99 100//100 106//106 105//105
f 100//100 101//101 107//107 106//106
f 101//101 102//102 108//108 107//107
f 102//102 97//97 103//103 108//108
f 109//109 110//110 116//116 115//115
f 110//110 111//111 117//117 116//116
f 111//111 112//112 118//118 117//117
f 112//112 113//113 119//119 118//118
f 113//113 114//114 120//120 119//119
f 114//114 109//109 115//115 120//120
f 121//121 122//122 128//128 127//127
f 122//122 123//123 129//129 128//128
f 123//123 124//124 130//130 129//129
f 124//124 125//125 131//131 130//130
f 125//125 126//126 132//132 131//131
f 126//126 121//121 127//127 132//132
f 133//133 134//134 140//140 139//139
f 134//134 135//135 141//141 140//140
f 135//135 136//136 142//142 141//141
f 136//136 137//137 143//143 142//142
f 137//137 138//138 144//144 143//143
f 138//138 133//133 139//139 144//144
f 145//145 146//146 152//152 151//151
f 146//146 147//147 153//153 152//152
f 147//147 148//148 154//154 153//153
f 148//148 149//149 155//155 154//154
f 149//149 150//150 156//156 155//155
f 150//150 145//145 151//151 156//156
f 157//157 158//158 164//164 163//163
f 158//158 159//159 165//165 164//164
f 159//159 160//160 166//166 165//165
f 160//160 161//161 167//167 166//166
f 161//161 162//162 168//168 167//167
f 162//162 157//157 163//163 168//168
f 169//169 170//170 176//176 175//175
f 170//170 171//171 177//177 176//176
f 171//171 172//172 178//178 177//177
f 172//172 173//173 179//179 178//178
f 173//173 174//174 180//180 179//179
f 174//174 169//169 175//175 180//180
f 181//181 182//182 188//188 187//187
f 182//182 183//183 189//189 188//188
f 183//183 184//184 190//190 189//189
f 184//184 185//185 191//191 190//190
f 185//185 186//186 192//192 191//191
f 186//186 181//181 187//187 192//192
f 193//193 194//194 200//200 199//199
f 194//194 195//195 201//201 200//200
f 195//195 196//196 202//202 201//201
f 196//196 197//197 203//203 202//202
f 197//197 198//198 204//204 203//203
f 198//198 193//193 199//199 204//204
f 205//205 206//206 212//212 211//211
f 206//206 207//207 213//213 212//212
f 207//207 208//208 214//214 213//213
f 208//208 209//209 215//215 214//214
f 209//209 210//210 216//216 215//215
f 210//210 205//205 211//211 216//216
f 217//217 218//218 224//224 223//223
f 218//218 219//219 225//225 224//224
f 219//219 220//220 226//226 225//225
f 220//220 221//221 227//227 226//226
f 221//221 222//222 228//228 227//227
f 222//222 217//217 223//223 228//228
f 229//229 230//230 236//236 235//235
f 230//230 231//231 237//237 236//236
f 231//231 232//232 238//238 237//237
f 232//232 233//233 239//239 238//238
f 233//233 234//234 240//240 239//239
f 234//234 229//229 235//235 240//240
f 241//241 242//242 248//248 247//247
f 242//242 243//243 249//249 248//248
f 243//243 244//244 250//250 249//249
f 244//244 245//245 251//251 250//250
f 245//245 246//246 252//252 251//251
f 246//246 241//241 247//247 252//252
f 253//253 254//254 260//260 259//259
f 254//254 255//255 261//261 260//260
f 255//255 256//256 262//262 261//261
f 256//256 257//257 263//263 262//262
f 257//257 258//258 264//264 263//263
f 258//258 253//253 259//259 264//264
f 265//265 266//266 272//272 271//271
f 266//266 267//267 273//273 272//272
f 267//267 268//268 274//274 273//273
f 268//268 269//269 275//275 274//274
f 269//269 270//270 276//276 275//275
f 270//270 265//265 271//271 276//276
f 277//277 278//278 284//284 283//283
f 278//278 279//279 285//285 284//284
f 279//279 280//280 286//286 285//285
f 280//280 281//281 287//287 286//286
f 281//281 282//282 288//288 287//287
f 282//282 277//277 283//283 288//288
f 289//289 290//290 296//296 295//295
f 290//290 291//291 297//297 296//296
f 291//291 292//292 298//298 297//297
f 292//292 293//293 299//299 298//298
f 293//293 294//294 300//300 299//299
f 294//294 289//289 295//295 300//300
f 301//301 302//302 308//308 307//307
f 302//302 303//303 309//309 308//308
f 303//303 304//304 310//310 309//309
f 304//304 305//305 311//311 310//310
f 305//305 306//306 312//312 311//311
f 306//306 301//301 307//307 312//312
f 313//313 314//314 320//320 319//319
f 314//314 315//315 321//321 320//320
f 315//315 316//316 322//322 321//321
f 316//316 317//317 323//323 322//322
f 317//317 318//318 324//324 323//323
f 318//318 313//313 319//319 324//324
f 325//325 326//326 332//332 331//331
f 326//326 327//327 333//333 332//332
f 327//327 328//328 334//334 333//333
f 328//328 329//329 335//335 334//334
f 329//329 330//330 336//336 335//335
f 330//330 325//325 331//331 336//336
f 337//337 338//338 344//344 343//343
f 338//338 339//339 345//345 344//344
f 339//339 340//340 346//346 345//345
f 340//340 341//341 347//347 346//346
f 341//341 342//342 348//348 347//347
f 342//342 337//337 343//343 348//348
f 349//349 350//350 356//356 355//355
f 350//350 351//351 357//357 356//356
f 351//351 352//352 358//358 357//357
f 352//352 353//353 359//359 358//358
f 353//353 354//354 360//360 359//359
f 354//354 349//349 355//355 360//360
f 361//361 362//362 368//368 367//367
f 362//362 363//363 369//369 368//368
f 363//363 364//364 370//370 369//369
f 364//364 365//365 371//371 370//370
f 365//365 366//366 372//372 371//371
f 366//366 361//361 367//367 372//372
f 373//373 374//374 380//380 379//379
f 374//374 375//375 381//381 380//380
f 375//375 376//376 382//382 381//381
f 376//376 377//377 383//383 382//382
f 377//377 378//378 384//384 383//383
f 378//378 373//373 379//379 384//384
f 385//385 386//386 392//392 391//391
f 386//386 387//387 393//393 392//392
f 387//387 388//388 394//394 393//393
f 388//388 389//389 395//395 394//394
f 389//389 390//390 396//396 395//395
f 390//390 385//385 391//391 396//396
f 397//397 398//398 404//404 403//403
f 398//398 399//399 405//405 404//404
f 399//399 400//400 406//406 405//405
f 400//400 401//401 407//407 406//406
f 401//401 402//402 408//408 407//407
f 402//402 397//397 403//403 408//408
f 409//409 410//410 416//416 415//415
f 410//410 411//411 417//417 416//416
f 411//411 412//412 418//418 417//417
f 412//412 413//413 419//419 418//418
f 413//413 414//414 420//420 419//419
f 414//414 409//409 415//415 420//420
f 421//421 422//422 428//428 427//427
f 422//422 423//423 429//429 428//428
f 423//423 424//424 430//430 429//429
f 424//424 425//425 431//431 430//430
f 425//425 426//426 432//432 431//431
f 426//426 421//421 427//427 432//432
f 433//433 434//434 440//440 439//439
f 434//434 435//435 441//441 440//440
f 435//435 436//436 442//442 441//441
f 436//436 437//437 443//443 442//442
f 437//437 438//438 444//444 443//443
f 438//438 433//433 439//439 444//444
f 445//445 446//446 452//452 451//451
f 446//446 447//447 453//453 452//452
f 447//447 448//448 454//454 453//453
f 448//448 449//449 455//455 454//454
f 449//449 450//450 456//456 455//455
f 450//450 445//445 451//451 456//456
