o ContinuousForgedHook
v 0.046 1.4 0
v 0.04249845849551919 1.4 0.017603437888794128
v 0.03252691193458119 1.4 0.03252691193458118
v 0.01760343788879413 1.4 0.04249845849551919
v 2.8166876380389123e-18 1.4 0.046
v -0.017603437888794128 1.4 0.04249845849551919
v -0.03252691193458118 1.4 0.03252691193458119
v -0.04249845849551919 1.4 0.017603437888794135
v -0.046 1.4 5.6333752760778246e-18
v -0.04249845849551919 1.4 -0.017603437888794125
v -0.032526911934581196 1.4 -0.03252691193458118
v -0.017603437888794156 1.4 -0.04249845849551918
v -8.450062914116737e-18 1.4 -0.046
v 0.01760343788879414 1.4 -0.042498458495519184
v 0.032526911934581175 1.4 -0.032526911934581196
v 0.04249845849551918 1.4 -0.01760343788879416
v 0.046668488613281996 1.4147924777494056 0
v 0.04318121992039937 1.415108309912518 0.01760343789289275
v 0.033250318888073456 1.4160077238180466 0.03252691194215444
v 0.018387675174633848 1.4173537918520822 0.04249845850541413
v 0.0008559915552509418 1.4189415873585802 0.04600000001071021
v -0.016675692064131963 1.4205293828650782 0.04249845850541413
v -0.031538335777571584 1.4218754508991138 0.03252691194215445
v -0.041469236809897496 1.4227748648046425 0.017603437892892756
v -0.044956505502780124 1.4230906969677548 5.633375277389447e-18
v -0.0414692368098975 1.4227748648046425 -0.017603437892892745
v -0.03153833577757159 1.4218754508991138 -0.03252691194215444
v -0.01667569206413199 1.4205293828650782 -0.04249845850541412
v 0.0008559915552509305 1.4189415873585802 -0.04600000001071021
v 0.018387675174633855 1.4173537918520822 -0.04249845850541413
v 0.03325031888807345 1.4160077238180466 -0.03252691194215446
v 0.04318121992039936 1.415108309912518 -0.017603437892892777
v 0.04866850296423569 1.4294643631141009 0
v 0.0452239364845414 1.4300934526557783 0.017603438151105797
v 0.03541464106691911 1.4318849481008014 0.03252691241926994
v 0.02073399301721743 1.4345661105076117 0.042498459128795574
v 0.0034169879205974544 1.4377287572045703 0.046000000685453415
v -0.013900017176022524 1.4408914039015288 0.042498459128795574
v -0.028580665225724212 1.4435725663083392 0.03252691241926994
v -0.0383899606433465 1.4453640617533623 0.0176034381511058
v -0.04183452712304079 1.4459931512950397 5.6333753600216575e-18
v -0.03838996064334651 1.4453640617533623 -0.01760343815110579
v -0.02858066522572422 1.4435725663083392 -0.03252691241926994
v -0.013900017176022551 1.4408914039015288 -0.04249845912879556
v 0.0034169879205974436 1.4377287572045703 -0.046000000685453415
v 0.02073399301721744 1.4345661105076117 -0.04249845912879557
v 0.035414641066919106 1.4318849481008014 -0.03252691241926995
v 0.04522393648454139 1.4300934526557783 -0.017603438151105825
v 0.05198372283015992 1.4438960513032293 0
v 0.048609941024190716 1.4448332693031292 0.017603440876687946
v 0.03900222330283369 1.447502240358246 0.032526917455489066
v 0.024623257594987416 1.4514966378197214 0.04249846570893296
v 0.0076621110840227645 1.4562083508833488 0.046000007807742806
v -0.009299035426941884 1.4609200639469762 0.04249846570893296
v -0.023678001134788164 1.4649144614084515 0.03252691745548907
v -0.033285718856145195 1.4675834324635684 0.01760344087668795
v -0.0366595006621144 1.4685206504634682 5.633376232250548e-18
v -0.0332857188561452 1.4675834324635684 -0.017603440876687942
v -0.02367800113478817 1.4649144614084515 -0.032526917455489066
v -0.009299035426941911 1.4609200639469762 -0.04249846570893295
v 0.007662111084022754 1.4562083508833488 -0.046000007807742806
v 0.024623257594987423 1.4514966378197214 -0.04249846570893296
v 0.03900222330283368 1.447502240358246 -0.03252691745548908
v 0.04860994102419071 1.4448332693031292 -0.017603440876687974
v 0.05658706404026942 1.4579699177982626 0
v 0.05331157668771802 1.4592076213295118 0.017603454676740727
v 0.043983777887122995 1.4627323027804369 0.032526942954661686
v 0.03002374044916823 1.4680073613514515 0.042498499025207546
v 0.013556753525727853 1.4742297171936438 0.046000043869018556
v -0.0029102333977125295 1.4804520730358361 0.042498499025207546
v -0.016870270835667292 1.4857271316068508 0.03252694295466169
v -0.026198069636262325 1.4892518130577759 0.01760345467674073
v -0.029473556988813723 1.490489516589025 5.6333806484831404e-18
v -0.026198069636262332 1.4892518130577759 -0.01760345467674072
v -0.016870270835667306 1.4857271316068508 -0.032526942954661686
v -0.0029102333977125538 1.4804520730358361 -0.04249849902520753
v 0.013556753525727841 1.4742297171936438 -0.046000043869018556
v 0.030023740449168244 1.4680073613514515 -0.04249849902520754
v 0.04398377788712299 1.4627323027804369 -0.0325269429546617
v 0.053311576687718014 1.4592076213295118 -0.017603454676740755
v 0.06244085981887931 1.471571319959435 0
v 0.059290385950812034 1.4730994094627927 0.0176035019297281
v 0.05031859543390671 1.477451040198146 0.03252703026679746
v 0.036891362044878605 1.4839637158336678 0.04249861310401053
v 0.021052860349033486 1.4916459405414018 0.046000167347025125
v 0.005214358653188367 1.4993281652491357 0.04249861310401053
v -0.008212874735839738 1.5058408408846575 0.032527030266797465
v -0.01718466525274507 1.5101924716200108 0.017603501929728108
v -0.02033513912081235 1.5117205611233686 5.633395770177691e-18
v -0.01718466525274507 1.5101924716200108 -0.017603501929728097
v -0.008212874735839749 1.5058408408846575 -0.03252703026679746
v 0.005214358653188339 1.4993281652491357 -0.04249861310401052
v 0.021052860349033475 1.4916459405414018 -0.046000167347025125
v 0.03689136204487861 1.4839637158336678 -0.04249861310401053
v 0.050318595433906696 1.477451040198146 -0.03252703026679747
v 0.05929038595081203 1.4730994094627927 -0.01760350192972813
v 0.0694971282319481 1.4845896089793031 0
v 0.06649738752566554 1.4863955997764353 0.017603629113998313
v 0.057954848736632175 1.4915386264403159 0.03252726527268567
v 0.04517003595717136 1.4992357097830216 0.0424989201540006
v 0.030089321038339573 1.5083150386398598 0.046000499695539473
v 0.015008606119507781 1.517394367496698 0.0424989201540006
v 0.002223793340046968 1.5250914508394038 0.03252726527268568
v -0.006318745448986404 1.5302344775032843 0.017603629113998317
v -0.009318486155268965 1.5320404683004165 5.6334364711321216e-18
v -0.006318745448986411 1.5302344775032843 -0.017603629113998306
v 0.0022237933400469576 1.5250914508394038 -0.03252726527268567
v 0.015008606119507757 1.517394367496698 -0.042498920154000586
v 0.030089321038339563 1.5083150386398598 -0.046000499695539473
v 0.04517003595717137 1.4992357097830216 -0.04249892015400059
v 0.05795484873663216 1.4915386264403159 -0.032527265272685686
v 0.06649738752566553 1.4863955997764353 -0.01760362911399834
v 0.07769793811111823 1.4969191501104895 0
v 0.07487345235326076 1.4989882543651203 0.01760392008731194
v 0.06682999743229501 1.5048805647627224 0.03252780292126361
v 0.054792116445837556 1.5136990304591873 0.04249962262572064
v 0.040592467650413695 1.5241011199918189 0.04600126004545018
v 0.026392818854989834 1.5345032095244504 0.04249962262572064
v 0.014354937868532393 1.5433216752209153 0.032527802921263615
v 0.0063114829475666295 1.5492139856185174 0.017603920087311944
v 0.0034869971897091567 1.5512830898731482 5.633529587140559e-18
v 0.006311482947566623 1.5492139856185174 -0.017603920087311938
v 0.014354937868532383 1.5433216752209153 -0.03252780292126361
v 0.026392818854989814 1.5345032095244504 -0.042499622625720636
v 0.04059246765041369 1.5241011199918189 -0.04600126004545018
v 0.05479211644583756 1.5136990304591873 -0.04249962262572064
v 0.066829997432295 1.5048805647627224 -0.03252780292126362
v 0.07487345235326076 1.4989882543651203 -0.01760392008731197
v 0.08697588771135606 1.508460344702645 0
v 0.08434979154051844 1.5107755599121893 0.01760451231737621
v 0.07687130236439452 1.517368735012647 0.03252889721973344
v 0.06567895236737596 1.5272361188622547 0.04250105239557385
v 0.052476675377603484 1.5388754917179668 0.0460028076171875
v 0.039274398387831005 1.5505148645736788 0.04250105239557385
v 0.02808204839081246 1.5603822484232865 0.03252889721973345
v 0.02060355921468853 1.5669754235237443 0.017604512317376215
v 0.0179774630438509 1.5692906387332886 5.633719110018015e-18
v 0.020603559214688524 1.5669754235237443 -0.017604512317376204
v 0.02808204839081245 1.5603822484232865 -0.03252889721973344
v 0.039274398387830985 1.550514864573679 -0.04250105239557384
v 0.05247667537760348 1.5388754917179668 -0.0460028076171875
v 0.06567895236737598 1.5272361188622547 -0.04250105239557384
v 0.0768713023643945 1.517368735012647 -0.032528897219733455
v 0.08434979154051843 1.5107755599121893 -0.01760451231737624
v 0.09725471108493425 1.5191206425076875 0
v 0.09484856971187675 1.5216628427989907 0.017605616063385534
v 0.08799645880502638 1.5289024167236525 0.03253093667642765
v 0.07774155013541106 1.5397372047785438 0.042503717074158974
v 0.06564506058700116 1.552517708699906 0.04600569184450433
v 0.05354857103859126 1.5652982126212682 0.042503717074158974
v 0.043293662368975944 1.5761330006761596 0.03253093667642766
v 0.036441551462125576 1.5833725746008214 0.01760561606338554
v 0.03403541008906807 1.5859147748921245 5.634072325993172e-18
v 0.03644155146212557 1.5833725746008214 -0.01760561606338553
v 0.04329366236897594 1.5761330006761596 -0.03253093667642765
v 0.05354857103859124 1.5652982126212682 -0.04250371707415897
v 0.06564506058700116 1.552517708699906 -0.04600569184450433
v 0.07774155013541108 1.5397372047785438 -0.042503717074158974
v 0.08799645880502638 1.5289024167236525 -0.03253093667642767
v 0.09484856971187675 1.5216628427989907 -0.01760561606338556
v 0.10845002656048745 1.52881552720947 0
v 0.10628365663558093 1.5315635543586232 0.0176075365085683
v 0.10011435704373606 1.5393892735835526 0.032534485196422984
v 0.0908813477229712 1.5511012900725842 0.042508353438964995
v 0.07999027064493486 1.5649165554849565 0.04601071020960808
v 0.06909919356689852 1.5787318208973287 0.042508353438964995
v 0.05986618424613366 1.5904438373863603 0.03253448519642299
v 0.05369688465428879 1.5982695566112897 0.017607536508568302
v 0.05153051472938226 1.601017583760443 5.634686898469297e-18
v 0.05369688465428879 1.5982695566112897 -0.017607536508568295
v 0.059866184246133644 1.5904438373863603 -0.032534485196422984
v 0.0690991935668985 1.5787318208973289 -0.04250835343896499
v 0.07999027064493486 1.5649165554849565 -0.04601071020960808
v 0.0908813477229712 1.5511012900725842 -0.042508353438964995
v 0.10011435704373606 1.5393892735835526 -0.03253448519642299
v 0.10628365663558091 1.5315635543586232 -0.017607536508568326
v 0.12047023968685243 1.5374694524944204 0
v 0.11856152805343657 1.5404002047079597 0.017610698843739874
v 0.11312597719686251 1.5487462808914014 0.032540328429902905
v 0.10499110046165247 1.5612370666031856 0.04251598799142499
v 0.0953953590879009 1.5759709529479475 0.046018973789643494
v 0.08579961771414933 1.5907048392927094 0.04251598799142499
v 0.07766474097893927 1.6031956250044936 0.03254032842990291
v 0.07222919012236521 1.6115417011879354 0.01761069884373988
v 0.07032047848894936 1.6144724534014747 5.635698895153285e-18
v 0.07222919012236521 1.6115417011879354 -0.01761069884373987
v 0.07766474097893926 1.6031956250044936 -0.032540328429902905
v 0.08579961771414932 1.5907048392927094 -0.04251598799142498
v 0.0953953590879009 1.5759709529479475 -0.046018973789643494
v 0.10499110046165247 1.5612370666031856 -0.04251598799142498
v 0.11312597719686251 1.5487462808914014 -0.03254032842990291
v 0.11856152805343656 1.5404002047079597 -0.017610698843739902
v 0.13321760947984357 1.5450167005173443 0
v 0.1315823233363203 1.548105218591983 0.017615676301861883
v 0.12692542239719606 1.5569005739365218 0.03254952557326861
v 0.11995587761554038 1.5700637534298492 0.04252800463832928
v 0.1117347390052796 1.5855907823186255 0.046031980514526366
v 0.1035136003950188 1.6011178112074018 0.04252800463832928
v 0.09654405561336314 1.6142809907007292 0.032549525573268616
v 0.09188715467423889 1.623076346045268 0.017615676301861886
v 0.09025186853071561 1.6261648641199067 5.637291759552805e-18
v 0.09188715467423889 1.623076346045268 -0.017615676301861876
v 0.09654405561336313 1.6142809907007292 -0.03254952557326861
v 0.10351360039501879 1.6011178112074018 -0.04252800463832927
v 0.1117347390052796 1.5855907823186255 -0.046031980514526366
v 0.11995587761554038 1.5700637534298492 -0.04252800463832927
v 0.12692542239719606 1.5569005739365218 -0.03254952557326862
v 0.1315823233363203 1.548105218591983 -0.01761567630186191
v 0.14658948179961642 1.551402129659078 0
v 0.14524106291010894 1.5546216821456045 0.017623221143607665
v 0.14140109079406632 1.5637901919244255 0.03256346662299854
v 0.13565416639672215 1.577511836494464 0.04254621949759791
v 0.12887520686157267 1.5936976198569495 0.046051696136128153
v 0.1220962473264232 1.609883403219435 0.04254621949759791
v 0.11634932292907901 1.6236050477894735 0.03256346662299855
v 0.1125093508130364 1.6327735575682945 0.01762322114360767
v 0.11116093192352891 1.6359931100548208 5.639706226841587e-18
v 0.1125093508130364 1.6327735575682945 -0.01762322114360766
v 0.11634932292907901 1.6236050477894735 -0.03256346662299854
v 0.12209624732642319 1.609883403219435 -0.0425462194975979
v 0.12887520686157267 1.5936976198569495 -0.046051696136128153
v 0.13565416639672215 1.577511836494464 -0.042546219497597904
v 0.14140109079406632 1.5637901919244255 -0.032563466622998555
v 0.14524106291010894 1.5546216821456045 -0.017623221143607693
v 0.16047968725412298 1.5565817743503643 0
v 0.15942902241044715 1.5599039457250596 0.017634298593934044
v 0.15643698207756881 1.5693646893729063 0.03258393508225645
v 0.15195907727325553 1.5835236928353749 0.04257296282841237
v 0.14667702841165586 1.6002253761869902 0.046080642908811566
v 0.1413949795500562 1.6169270595386056 0.04257296282841237
v 0.1369170747457429 1.6310860630010742 0.03258393508225645
v 0.13392503441286457 1.6405468066489208 0.01763429859393405
v 0.13287436956918874 1.6438689780236162 5.643251184092826e-18
v 0.13392503441286457 1.6405468066489208 -0.01763429859393404
v 0.13691707474574288 1.6310860630010742 -0.03258393508225645
v 0.14139497955005617 1.6169270595386056 -0.04257296282841236
v 0.14667702841165586 1.6002253761869902 -0.046080642908811566
v 0.15195907727325553 1.5835236928353749 -0.042572962828412365
v 0.15643698207756881 1.5693646893729063 -0.03258393508225646
v 0.15942902241044715 1.5599039457250596 -0.01763429859393407
v 0.17478009330211813 1.5605232567708074 0
v 0.17403525335200118 1.5639180452803685 0.01765012372965927
v 0.17191412863206462 1.5735855850323053 0.03261317612024795
v 0.16873964115287537 1.5880540807358519 0.042611168085706606
v 0.1649950778563393 1.6051208350773831 0.04612199598131701
v 0.16125051455980322 1.6221875894189144 0.042611168085706606
v 0.15807602708061397 1.636656085122461 0.03261317612024796
v 0.1559549023606774 1.6463236248743978 0.017650123729659278
v 0.15521006241056046 1.6497184133839589 5.648315474880697e-18
v 0.1559549023606774 1.6463236248743978 -0.017650123729659267
v 0.15807602708061397 1.636656085122461 -0.03261317612024795
v 0.16125051455980322 1.6221875894189144 -0.0426111680857066
v 0.1649950778563393 1.6051208350773831 -0.04612199598131701
v 0.16873964115287537 1.5880540807358519 -0.0426111680857066
v 0.17191412863206462 1.5735855850323053 -0.03261317612024796
v 0.17403525335200118 1.5639180452803685 -0.0176501237296593
v 0.18938229141231705 1.563205968724673 0
v 0.1889482319190923 1.566641903410364 0.01767220131804723
v 0.18771213506250234 1.576426617558366 0.032653970184325636
v 0.18586218538371713 1.5910704771383006 0.04266446809901731
v 0.1836800209514961 1.6083440872760402 0.0461796875
v 0.18149785651927508 1.6256176974137797 0.04266446809901731
v 0.17964790684048987 1.6402615569937142 0.03265397018432564
v 0.1784118099838999 1.6500462711417163 0.017672201318047236
v 0.17797775049067516 1.6534822058274072 5.655380648250003e-18
v 0.1784118099838999 1.6500462711417163 -0.017672201318047226
v 0.17964790684048987 1.6402615569937142 -0.032653970184325636
v 0.18149785651927508 1.6256176974137797 -0.0426644680990173
v 0.1836800209514961 1.6083440872760402 -0.0461796875
v 0.18586218538371713 1.5910704771383006 -0.042664468099017305
v 0.18771213506250234 1.576426617558366 -0.03265397018432565
v 0.1889482319190923 1.566641903410364 -0.01767220131804726
v 0.20417939047902556 1.5646209822166988 0
v 0.2040576085360908 1.5680652715114773 0.017702368606397893
v 0.20371080290414229 1.5778737775732428 0.03270971206484273
v 0.2031917715968433 1.5925532442684205 0.042737298375693504
v 0.20257953242569957 1.6098688558623664 0.046258518423419444
v 0.20196729325455584 1.6271844674563123 0.042737298375693504
v 0.20144826194725685 1.64186393415149 0.03270971206484273
v 0.20110145631530832 1.6516724402132554 0.0177023686063979
v 0.20097967437237357 1.655116729508034 5.665034652053949e-18
v 0.20110145631530832 1.6516724402132554 -0.01770236860639789
v 0.20144826194725685 1.64186393415149 -0.03270971206484273
v 0.20196729325455584 1.6271844674563123 -0.04273729837569349
v 0.20257953242569957 1.6098688558623664 -0.046258518423419444
v 0.2031917715968433 1.5925532442684205 -0.0427372983756935
v 0.20371080290414229 1.5778737775732428 -0.03270971206484274
v 0.2040576085360908 1.5680652715114773 -0.01770236860639792
v 0.2190678775096558 1.5647706494288942 0
v 0.21925602144503054 1.5681893765108146 0.01774284106264399
v 0.21979181004252288 1.577925087549192 0.03278449541275518
v 0.22059367434510038 1.5924956087928734 0.04283500752846538
v 0.22153953778161362 1.6096827104646128 0.0463642780482769
v 0.22248540121812685 1.626869812136352 0.04283500752846538
v 0.22328726552070435 1.6414403333800336 0.03278449541275518
v 0.2238230541181967 1.651176044418411 0.017742841062643993
v 0.22401119805357142 1.6545947715003313 5.6779864706600194e-18
v 0.2238230541181967 1.651176044418411 -0.017742841062643983
v 0.22328726552070435 1.6414403333800336 -0.03278449541275518
v 0.22248540121812685 1.626869812136352 -0.04283500752846536
v 0.22153953778161362 1.6096827104646128 -0.0463642780482769
v 0.22059367434510038 1.5924956087928734 -0.04283500752846537
v 0.21979181004252288 1.577925087549192 -0.03278449541275519
v 0.21925602144503054 1.5681893765108146 -0.017742841062644017
v 0.23394949624548342 1.5636678571089377 0
v 0.23444092793687218 1.5670262397246135 0.017796261066953922
v 0.23584040699086392 1.576590104262218 0.03288320270997241
v 0.2379348754077976 1.5909034390425487 0.04296397482737245
v 0.24040546935759852 1.6077871685960037 0.04650387124670669
v 0.24287606330739944 1.6246708981494586 0.04296397482737245
v 0.2449705317243331 1.6389842329297895 0.03288320270997241
v 0.24637001077832485 1.6485480974673938 0.01779626106695393
v 0.24686144246971362 1.6519064800830696 5.695081707023999e-18
v 0.24637001077832485 1.648548097467394 -0.01779626106695392
v 0.2449705317243331 1.6389842329297895 -0.03288320270997241
v 0.24287606330739944 1.6246708981494586 -0.042963974827372436
v 0.24040546935759852 1.6077871685960037 -0.04650387124670669
v 0.2379348754077976 1.5909034390425487 -0.04296397482737244
v 0.23584040699086392 1.576590104262218 -0.032883202709972414
v 0.23444092793687218 1.5670262397246135 -0.017796261066953954
v 0.24873308425355284 1.5613349069362166 0
v 0.24951639752114738 1.564597641509637 0.017865749554340938
v 0.25174708497969217 1.5738891234678571 0.03301160069245646
v 0.25508554468485595 1.5877948089102318 0.043131734876050966
v 0.2590235264097401 1.604197683283512 0.04668545341491699
v 0.2629615081346242 1.6206005576567923 0.043131734876050966
v 0.266299967839788 1.634506243099167 0.03301160069245647
v 0.2685306552983328 1.6437977250573872 0.01786574955434094
v 0.2693139685659273 1.6470604596308076 5.7173191091320965e-18
v 0.2685306552983328 1.6437977250573872 -0.01786574955434093
v 0.266299967839788 1.634506243099167 -0.03301160069245646
v 0.2629615081346242 1.6206005576567923 -0.04313173487605095
v 0.2590235264097401 1.604197683283512 -0.04668545341491699
v 0.25508554468485595 1.5877948089102318 -0.04313173487605096
v 0.25174708497969217 1.5738891234678571 -0.033011600692456476
v 0.24951639752114738 1.564597641509637 -0.017865749554340966
v 0.2633362995648684 1.5578020022775143 0
v 0.26439480257376036 1.560933713618245 0.01795496060827849
v 0.26740916411268595 1.5698520729778453 0.033176441226069796
v 0.2719204749625992 1.5831993409889449 0.043347109412380604
v 0.2772419289417355 1.5989435170901394 0.04691857313318178
v 0.2825633829208718 1.6146876931913339 0.043347109412380604
v 0.28707469377078504 1.6280349612024334 0.0331764412260698
v 0.29008905530971063 1.6369533205620337 0.017954960608278496
v 0.29114755831860256 1.6400850319027644 5.745868040811207e-18
v 0.29008905530971063 1.6369533205620337 -0.017954960608278486
v 0.28707469377078504 1.6280349612024334 -0.033176441226069796
v 0.2825633829208718 1.6146876931913339 -0.0433471094123806
v 0.2772419289417355 1.5989435170901394 -0.04691857313318178
v 0.2719204749625992 1.5831993409889449 -0.0433471094123806
v 0.26740916411268595 1.5698520729778453 -0.0331764412260698
v 0.26439480257376036 1.560933713618245 -0.017954960608278517
v 0.27768715958100026 1.5531053328500493 0
v 0.2789983342894316 1.5560711514986914 0.018068139005321896
v 0.28273224395119523 1.5645170884405748 0.033385567635171476
v 0.288320434668263 1.577157326338907 0.04362034623349044
v 0.2949121550610364 1.5920675035577088 0.04721432253718376
v 0.3015038754538098 1.6069776807765106 0.04362034623349044
v 0.3070920661708776 1.6196179186748427 0.033385567635171476
v 0.3108259758326412 1.6280638556167262 0.0180681390053219
v 0.31213715054107255 1.6310296742653683 5.782086896907283e-18
v 0.3108259758326412 1.6280638556167262 -0.01806813900532189
v 0.3070920661708776 1.6196179186748427 -0.033385567635171476
v 0.3015038754538098 1.6069776807765106 -0.04362034623349043
v 0.2949121550610364 1.5920675035577088 -0.04721432253718376
v 0.288320434668263 1.577157326338907 -0.04362034623349043
v 0.28273224395119523 1.5645170884405748 -0.03338556763517148
v 0.2789983342894316 1.5560711514986914 -0.018068139005321924
v 0.2917253081836685 1.547284762064219 0
v 0.2932602655045977 1.5500510510977665 0.018210180710736195
v 0.2976314541296966 1.5579287757695246 0.03364802648396201
v 0.3041734002157175 1.5697186239099696 0.04396326524512425
v 0.3118901517739526 1.5836256980149588 0.047585495400708167
v 0.31960690333218766 1.597532772119948 0.04396326524512425
v 0.32614884941820854 1.609322620260393 0.033648026483962014
v 0.33052003804330743 1.617200344932151 0.0182101807107362
v 0.33205499536423666 1.6199666339656986 5.8275424628318355e-18
v 0.33052003804330743 1.617200344932151 -0.018210180710736188
v 0.32614884941820854 1.609322620260393 -0.03364802648396201
v 0.31960690333218766 1.597532772119948 -0.043963265245124235
v 0.3118901517739526 1.5836256980149588 -0.047585495400708167
v 0.3041734002157175 1.5697186239099696 -0.04396326524512424
v 0.2976314541296966 1.5579287757695246 -0.03364802648396202
v 0.2932602655045977 1.5500510510977665 -0.018210180710736223
v 0.3054029222087224 1.5403811370287834 0
v 0.3071258775632504 1.542916388844124 0.018386696325130247
v 0.3120324392927365 1.550136175183375 0.033974184810576645
v 0.3193756278519594 1.5609413490239121 0.04438941163536498
v 0.32803750934894743 1.5736869205976578 0.0480467529296875
v 0.3366993908459355 1.5864324921714035 0.04438941163536498
v 0.34404257940515837 1.5972376660119403 0.03397418481057665
v 0.3489491411346445 1.6044574523511916 0.01838669632513025
v 0.35067209648917247 1.6069927041665322 5.884030218476551e-18
v 0.34894914113464454 1.6044574523511916 -0.01838669632513024
v 0.34404257940515837 1.5972376660119405 -0.033974184810576645
v 0.3366993908459355 1.5864324921714035 -0.04438941163536497
v 0.32803750934894743 1.5736869205976578 -0.0480467529296875
v 0.3193756278519594 1.5609413490239121 -0.04438941163536498
v 0.3120324392927365 1.5501361751833753 -0.03397418481057666
v 0.3071258775632504 1.542916388844124 -0.018386696325130274
v 0.31868516611567455 1.5324332580910642 0
v 0.3205529662679307 1.534709179161682 0.01860407748209707
v 0.3258720110831686 1.5411904540218098 0.034375852813927195
v 0.33383252420552967 1.5508903673268961 0.04491421617271865
v 0.3432225896743656 1.5623321952061746 0.04861479726759717
v 0.3526126551432015 1.573774023085453 0.04491421617271865
v 0.36057316826556257 1.5834739363905395 0.0343758528139272
v 0.3658922130808005 1.5899552112506672 0.018604077482097078
v 0.3677600132330566 1.592231132321285 5.953595586496036e-18
v 0.3658922130808005 1.5899552112506672 -0.018604077482097067
v 0.36057316826556257 1.5834739363905395 -0.034375852813927195
v 0.3526126551432015 1.573774023085453 -0.04491421617271864
v 0.3432225896743656 1.5623321952061746 -0.04861479726759717
v 0.33383252420552967 1.5508903673268961 -0.044914216172718645
v 0.3258720110831686 1.5411904540218098 -0.03437585281392721
v 0.3205529662679307 1.534709179161682 -0.018604077482097102
v 0.33155010419042197 1.5234745629966404 0
v 0.3335118424545625 1.5254673607526923 0.018869566196860445
v 0.33909840037947026 1.5311423686272456 0.034866411993292414
v 0.3474592751633518 1.5396356181154738 0.04555516262855739
v 0.35732159941187974 1.549654088974293 0.049308552712202074
v 0.3671839236604077 1.559672559833112 0.04555516262855739
v 0.37554479844428923 1.5681658093213402 0.03486641199329242
v 0.381131356369197 1.5738408171958935 0.018869566196860452
v 0.3830930946333375 1.5758336149519454 6.038556124958681e-18
v 0.381131356369197 1.5738408171958935 -0.018869566196860442
v 0.37554479844428923 1.5681658093213402 -0.034866411993292414
v 0.3671839236604077 1.559672559833112 -0.04555516262855738
v 0.35732159941187974 1.549654088974293 -0.049308552712202074
v 0.3474592751633518 1.5396356181154738 -0.04555516262855738
v 0.33909840037947026 1.5311423686272456 -0.03486641199329243
v 0.3335118424545625 1.5254673607526923 -0.018869566196860477
v 0.34398798330722274 1.5135295998523397 0
v 0.345984746171736 1.5152214805972601 0.019191327165927696
v 0.3516710457198542 1.5200395493255443 0.03546094874065687
v 0.36018119439180996 1.527250298749213 0.04633196232392185
v 0.3702195991969879 1.5357559576341184 0.050149354643654075
v 0.3802580040021658 1.544261616519024 0.04633196232392185
v 0.38876815267412157 1.5514723659426926 0.035460948740656875
v 0.39445445222223974 1.5562904346709767 0.0191913271659277
v 0.396451215086753 1.5579823154158972 6.141524664365642e-18
v 0.39445445222223974 1.5562904346709767 -0.01919132716592769
v 0.38876815267412157 1.5514723659426926 -0.03546094874065687
v 0.38025800400216586 1.544261616519024 -0.046331962323921845
v 0.3702195991969879 1.5357559576341184 -0.050149354643654075
v 0.36018119439180996 1.527250298749213 -0.046331962323921845
v 0.3516710457198542 1.5200395493255443 -0.03546094874065688
v 0.345984746171736 1.5152214805972601 -0.019191327165927727
v 0.3559998064294317 1.502610382557418 0
v 0.3579646000936535 1.5039912626726917 0.019578523017748768
v 0.3635598590618401 1.5079236765386714 0.036176393385798394
v 0.3719337558772339 1.5138089497916822 0.04726673580068289
v 0.3818114406592549 1.5207511029290883 0.05116114616394043
v 0.3916891254412758 1.5276932560664944 0.04726673580068289
v 0.4000630222566697 1.5335785293195052 0.0361763933857984
v 0.40565828122485625 1.537510943185485 0.019578523017748775
v 0.40762307488907806 1.5388918233007587 6.2654333890379534e-18
v 0.40565828122485625 1.537510943185485 -0.019578523017748765
v 0.4000630222566697 1.5335785293195052 -0.036176393385798394
v 0.3916891254412759 1.5276932560664944 -0.047266735800682885
v 0.3818114406592549 1.5207511029290883 -0.05116114616394043
v 0.3719337558772339 1.5138089497916822 -0.047266735800682885
v 0.3635598590618401 1.5079236765386714 -0.03617639338579841
v 0.3579646000936535 1.5039912626726917 -0.0195785230177488
v 0.36759512785496373 1.490712741662611 0
v 0.36945303784308803 1.4917821662766777 0.020041392514381518
v 0.37474391785376504 1.4948276299157448 0.03703166469412399
v 0.38266227936731595 1.4993854883479607 0.04838420161706248
v 0.3920026236234284 1.5047618489441104 0.052370682447683066
v 0.4013429678795409 1.51013820954026 0.04838420161706248
v 0.4092613293930918 1.514696067972476 0.037031664694124
v 0.4145522094037688 1.517741531611543 0.02004139251438152
v 0.4164101193918931 1.5188109562256098 6.413558862871754e-18
v 0.4145522094037688 1.517741531611543 -0.02004139251438151
v 0.4092613293930918 1.514696067972476 -0.03703166469412399
v 0.40134296787954093 1.51013820954026 -0.04838420161706247
v 0.3920026236234284 1.5047618489441104 -0.052370682447683066
v 0.38266227936731595 1.4993854883479607 -0.04838420161706247
v 0.37474391785376504 1.4948276299157448 -0.037031664694124
v 0.36945303784308803 1.4917821662766777 -0.02004139251438155
v 0.3787890158332644 1.4778128021051073 0
v 0.38045765645810875 1.4785820559696705 0.020591331704163225
v 0.38520954292377424 1.480772705635784 0.03804781981725431
v 0.39232124359182136 1.4840512445500709 0.049711872267513946
v 0.400710066503267 1.4879185448828598 0.05380774280428886
v 0.4090988894147127 1.4917858452156487 0.049711872267513946
v 0.4162105900827598 1.4950643841299356 0.038047819817254316
v 0.4209624765484253 1.497255033796049 0.02059133170416323
v 0.4226311171732696 1.4980242876606122 6.5895479994616386e-18
v 0.4209624765484253 1.497255033796049 -0.020591331704163218
v 0.4162105900827598 1.4950643841299356 -0.03804781981725431
v 0.4090988894147127 1.4917858452156487 -0.04971187226751394
v 0.400710066503267 1.4879185448828598 -0.05380774280428886
v 0.39232124359182136 1.4840512445500709 -0.04971187226751394
v 0.38520954292377424 1.480772705635784 -0.03804781981725432
v 0.3804576564581088 1.4785820559696705 -0.020591331704163256
v 0.3895981466200847 1.4638637362900835 0
v 0.39098845932608595 1.464358120924267 0.021240978025388376
v 0.39494773493781715 1.4657660092478713 0.03924820969635665
v 0.400873209634315 1.4678730630261667 0.0512802572269615
v 0.40786278360759953 1.470358502421898 0.055505350451450795
v 0.41485235758088407 1.4728439418176291 0.0512802572269615
v 0.4207778322773819 1.4749509955959246 0.03924820969635666
v 0.4247371078891131 1.4763588839195287 0.021240978025388383
v 0.4261274205951144 1.4768532685537124 6.797444976592131e-18
v 0.4247371078891131 1.4763588839195287 -0.02124097802538837
v 0.4207778322773819 1.4749509955959246 -0.03924820969635665
v 0.4148523575808841 1.4728439418176291 -0.05128025722696149
v 0.40786278360759953 1.470358502421898 -0.055505350451450795
v 0.400873209634315 1.4678730630261667 -0.051280257226961494
v 0.39494773493781715 1.4657660092478713 -0.039248209696356666
v 0.39098845932608595 1.464358120924267 -0.02124097802538841
v 0.40003601621343743 1.4487929558617445 0
v 0.40105347645520734 1.4490541952502403 0.022004297360992662
v 0.40395095808200776 1.4497981420869699 0.04065863991822648
v 0.4082873457818946 1.4509115372099362 0.053123073119398984
v 0.4134024638370125 1.4522248763046195 0.057499999999999996
v 0.41851758189213045 1.4535382153993028 0.053123073119398984
v 0.42285396959201726 1.454651610522269 0.040658639918226484
v 0.4257514512188177 1.4553955573589987 0.02200429736099267
v 0.4267689114605876 1.4556567967474945 7.04171909509728e-18
v 0.4257514512188177 1.4553955573589987 -0.022004297360992655
v 0.42285396959201726 1.454651610522269 -0.04065863991822648
v 0.41851758189213045 1.4535382153993028 -0.05312307311939897
v 0.4134024638370125 1.4522248763046195 -0.057499999999999996
v 0.4082873457818946 1.4509115372099362 -0.05312307311939898
v 0.40395095808200776 1.4497981420869699 -0.04065863991822649
v 0.40105347645520734 1.4490541952502403 -0.022004297360992697
vn 1 0 0
vn 0.9238795325112867 0 0.3826834323650898
vn 0.7071067811865476 0 0.7071067811865475
vn 0.38268343236508984 0 0.9238795325112867
vn 6.123233995736766e-17 0 1
vn -0.3826834323650897 0 0.9238795325112867
vn -0.7071067811865475 0 0.7071067811865476
vn -0.9238795325112867 0 0.3826834323650899
vn -1 0 1.2246467991473532e-16
vn -0.9238795325112868 0 -0.38268343236508967
vn -0.7071067811865477 0 -0.7071067811865475
vn -0.38268343236509034 0 -0.9238795325112865
vn -1.8369701987210297e-16 0 -1
vn 0.38268343236509 0 -0.9238795325112866
vn 0.7071067811865474 0 -0.7071067811865477
vn 0.9238795325112865 0 -0.3826834323650904
vn 0.9959238497369003 -0.09019803504085915 0
vn 0.9201136607117684 -0.08333211844698561 0.3826834323650898
vn 0.7042245076943744 -0.06377964222709334 0.7071067811865475
vn 0.381123557191571 -0.03451729364202263 0.9238795325112867
vn 6.098274773874023e-17 -5.5230367451084476e-18 1
vn -0.38112355719157087 0.03451729364202261 0.9238795325112867
vn -0.7042245076943743 0.06377964222709333 0.7071067811865476
vn -0.9201136607117684 0.08333211844698561 0.3826834323650899
vn -0.9959238497369003 0.09019803504085915 1.2246467991473532e-16
vn -0.9201136607117685 0.08333211844698561 -0.38268343236508967
vn -0.7042245076943745 0.06377964222709334 -0.7071067811865475
vn -0.3811235571915715 0.03451729364202267 -0.9238795325112865
vn -1.8294824321622066e-16 1.6569110235325344e-17 -1
vn 0.38112355719157115 -0.03451729364202264 -0.9238795325112866
vn 0.7042245076943742 -0.06377964222709331 -0.7071067811865477
vn 0.9201136607117681 -0.08333211844698558 -0.3826834323650904
vn 0.9837286289495359 -0.17966074859319253 0
vn 0.9088467458318663 -0.16598488842090653 0.3826834323650898
vn 0.6956011843775619 -0.12703933364329792 0.7071067811865475
vn 0.3764566482422123 -0.06875319193292441 0.9238795325112867
vn 6.023600583363317e-17 -1.100104803485353e-17 1
vn -0.3764566482422122 0.06875319193292438 0.9238795325112867
vn -0.6956011843775618 0.12703933364329792 0.7071067811865476
vn -0.9088467458318663 0.16598488842090653 0.3826834323650899
vn -0.9837286289495359 0.17966074859319253 1.2246467991473532e-16
vn -0.9088467458318664 0.16598488842090656 -0.38268343236508967
vn -0.695601184377562 0.12703933364329795 -0.7071067811865475
vn -0.3764566482422128 0.06875319193292449 -0.9238795325112865
vn -1.8070801750089952e-16 3.3003144104560585e-17 -1
vn 0.3764566482422125 -0.06875319193292444 -0.9238795325112866
vn 0.6956011843775617 -0.1270393336432979 -0.7071067811865477
vn 0.9088467458318661 -0.1659848884209065 -0.3826834323650904
vn 0.9635137567427488 -0.2676588137302323 0
vn 0.8901706391476844 -0.24728449970161262 0.3826834323650898
vn 0.6813071111593233 -0.18926336223299428 0.7071067811865475
vn 0.3687207515612973 -0.10242859354105353 0.9238795325112867
vn 5.899820190647243e-17 -1.638937547491533e-17 1
vn -0.3687207515612972 0.1024285935410535 0.9238795325112867
vn -0.6813071111593232 0.18926336223299425 0.7071067811865476
vn -0.8901706391476844 0.24728449970161262 0.3826834323650899
vn -0.9635137567427488 0.2676588137302323 1.2246467991473532e-16
vn -0.8901706391476845 0.24728449970161265 -0.38268343236508967
vn -0.6813071111593234 0.1892633622329943 -0.7071067811865475
vn -0.3687207515612978 0.10242859354105367 -0.9238795325112865
vn -1.769946057194173e-16 4.9168126424745994e-17 -1
vn 0.36872075156129747 -0.10242859354105358 -0.9238795325112866
vn 0.6813071111593231 -0.18926336223299423 -0.7071067811865477
vn 0.8901706391476841 -0.24728449970161254 -0.3826834323650904
vn 0.9354440308298674 -0.35347484377925714 0
vn 0.8642375938935716 -0.3265681734252802 0.3826834323650898
vn 0.6614588176202771 -0.24994445901516826 0.7071067811865475
vn 0.35797893250340856 -0.13526896647216005 0.9238795325112867
vn 5.727942690686475e-17 -2.16440918006689e-17 1
vn -0.35797893250340845 0.13526896647216 0.9238795325112867
vn -0.661458817620277 0.24994445901516824 0.7071067811865476
vn -0.8642375938935716 0.3265681734252802 0.3826834323650899
vn -0.9354440308298674 0.35347484377925714 1.2246467991473532e-16
vn -0.8642375938935717 0.3265681734252802 -0.38268343236508967
vn -0.6614588176202773 0.24994445901516832 -0.7071067811865475
vn -0.357978932503409 0.13526896647216022 -0.9238795325112865
vn -1.7183828072059425e-16 6.49322754020067e-17 -1
vn 0.35797893250340873 -0.1352689664721601 -0.9238795325112866
vn 0.6614588176202769 -0.24994445901516818 -0.7071067811865477
vn 0.8642375938935714 -0.3265681734252801 -0.3826834323650904
vn 0.8997482840522215 -0.4364092406733421 0
vn 0.8312590240479989 -0.4031895652568929 0.3826834323650898
vn 0.6362181130142859 -0.3085879334525923 0.7071067811865475
vn 0.34431876160570396 -0.16700658613671712 0.9238795325112867
vn 5.509369280514383e-17 -2.6722358985446763e-17 1
vn -0.34431876160570385 0.16700658613671707 0.9238795325112867
vn -0.6362181130142858 0.3085879334525922 0.7071067811865476
vn -0.8312590240479989 0.4031895652568929 0.3826834323650899
vn -0.8997482840522215 0.4364092406733421 1.2246467991473532e-16
vn -0.8312590240479989 0.403189565256893 -0.38268343236508967
vn -0.636218113014286 0.30858793345259233 -0.7071067811865475
vn -0.3443187616057044 0.16700658613671734 -0.9238795325112865
vn -1.652810784154315e-16 8.016707695634029e-17 -1
vn 0.3443187616057041 -0.16700658613671718 -0.9238795325112866
vn 0.6362181130142857 -0.30858793345259217 -0.7071067811865477
vn 0.8312590240479987 -0.4031895652568928 -0.3826834323650904
vn 0.8567175188650497 -0.5157858982850475 0
vn 0.7915037808232716 -0.4765240345835038 0.3826834323650898
vn 0.6057907671507906 -0.36471570631775196 0.7071067811865475
vn 0.3278516006865808 -0.19738271792123308 0.9238795325112867
vn 5.245881836257726e-17 -3.158277746900629e-17 1
vn -0.3278516006865807 0.19738271792123302 0.9238795325112867
vn -0.6057907671507905 0.3647157063177519 0.7071067811865476
vn -0.7915037808232716 0.4765240345835038 0.3826834323650899
vn -0.8567175188650497 0.5157858982850475 1.2246467991473532e-16
vn -0.7915037808232717 0.47652403458350384 -0.38268343236508967
vn -0.6057907671507907 0.364715706317752 -0.7071067811865475
vn -0.32785160068658126 0.19738271792123335 -0.9238795325112865
vn -1.573764550877318e-16 9.474833240701885e-17 -1
vn 0.3278516006865809 -0.19738271792123316 -0.9238795325112866
vn 0.6057907671507904 -0.36471570631775185 -0.7071067811865477
vn 0.7915037808232713 -0.4765240345835037 -0.3826834323650904
vn 0.80670253499803 -0.5909577142467574 0
vn 0.7452959609096499 -0.5459737367722327 0.3826834323650898
vn 0.5704248328974852 -0.4178702071383842 0.7071067811865475
vn 0.30871169499066514 -0.22614972647057704 0.9238795325112867
vn 4.9396283867469656e-17 -3.618572365918638e-17 1
vn -0.30871169499066503 0.226149726470577 0.9238795325112867
vn -0.5704248328974851 0.4178702071383841 0.7071067811865476
vn -0.7452959609096499 0.5459737367722327 0.3826834323650899
vn -0.80670253499803 0.5909577142467574 1.2246467991473532e-16
vn -0.74529596090965 0.5459737367722328 -0.38268343236508967
vn -0.5704248328974854 0.41787020713838424 -0.7071067811865475
vn -0.30871169499066553 0.22614972647057735 -0.9238795325112865
vn -1.4818885160240895e-16 1.0855717097755913e-16 -1
vn 0.30871169499066525 -0.22614972647057716 -0.9238795325112866
vn 0.570424832897485 -0.417870207138384 -0.7071067811865477
vn 0.7452959609096497 -0.5459737367722326 -0.3826834323650904
vn 0.7501110696304596 -0.6613118653236518 0
vn 0.6930122643417302 -0.6109724969793825 0.3826834323650898
vn 0.5304086239787925 -0.4676181044494791 0.7071067811865475
vn 0.28705507878123315 -0.2530730944858151 0.9238795325112867
vn 4.5931056021396987e-17 -4.049367295533879e-17 1
vn -0.2870550787812331 0.25307309448581505 0.9238795325112867
vn -0.5304086239787924 0.467618104449479 0.7071067811865476
vn -0.6930122643417302 0.6109724969793825 0.3826834323650899
vn -0.7501110696304596 0.6613118653236518 1.2246467991473532e-16
vn -0.6930122643417304 0.6109724969793825 -0.38268343236508967
vn -0.5304086239787926 0.46761810444947915 -0.7071067811865475
vn -0.28705507878123354 0.25307309448581544 -0.9238795325112865
vn -1.3779316806419094e-16 1.2148101886601636e-16 -1
vn 0.2870550787812333 -0.2530730944858152 -0.9238795325112866
vn 0.5304086239787924 -0.46761810444947893 -0.7071067811865477
vn 0.6930122643417301 -0.6109724969793823 -0.3826834323650904
vn 0.6874044733952326 -0.7262748033328864 0
vn 0.6350789235265547 -0.6709904257779138 0.3826834323650898
vn 0.4860683645557367 -0.5135538384416102 0.7071067811865475
vn 0.2630583033020047 -0.27793333457970953 0.9238795325112867
vn 4.209138440315217e-17 -4.447150566014964e-17 1
vn -0.2630583033020046 0.2779333345797095 0.9238795325112867
vn -0.4860683645557366 0.5135538384416101 0.7071067811865476
vn -0.6350789235265547 0.6709904257779138 0.3826834323650899
vn -0.6874044733952326 0.7262748033328864 1.2246467991473532e-16
vn -0.6350789235265548 0.6709904257779139 -0.38268343236508967
vn -0.48606836455573676 0.5135538384416103 -0.7071067811865475
vn -0.263058303302005 0.2779333345797099 -0.9238795325112865
vn -1.2627415320945653e-16 1.3341451698044892e-16 -1
vn 0.2630583033020048 -0.2779333345797097 -0.9238795325112866
vn 0.48606836455573654 -0.5135538384416101 -0.7071067811865477
vn 0.6350789235265546 -0.6709904257779137 -0.3826834323650904
vn 0.619093949309834 -0.785316930880745 0
vn 0.5719682284689357 -0.7255382389753011 0.3826834323650898
vn 0.4377655297485443 -0.555302927206382 0.7071067811865475
vn 0.23691699747834621 -0.3005277786038615 0.9238795325112867
vn 3.79085711696891e-17 -4.808679328596638e-17 1
vn -0.23691699747834613 0.30052777860386143 0.9238795325112867
vn -0.43776552974854427 0.555302927206382 0.7071067811865476
vn -0.5719682284689357 0.7255382389753011 0.3826834323650899
vn -0.619093949309834 0.785316930880745 1.2246467991473532e-16
vn -0.5719682284689357 0.7255382389753012 -0.38268343236508967
vn -0.43776552974854444 0.5553029272063821 -0.7071067811865475
vn -0.23691699747834652 0.3005277786038619 -0.9238795325112865
vn -1.1372571350906727e-16 1.4426037985789911e-16 -1
vn 0.2369169974783463 -0.3005277786038616 -0.9238795325112866
vn 0.4377655297485442 -0.5553029272063819 -0.7071067811865477
vn 0.5719682284689355 -0.7255382389753009 -0.3826834323650904
vn 0.54573638529571 -0.837956918799751 0
vn 0.5041946765214 -0.7741712464053122 0.3826834323650898
vn 0.38589389878283104 -0.5925250196254891 0.7071067811865475
vn 0.20884427309147946 -0.3206722298603636 0.9238795325112867
vn 3.34167158715319e-17 -5.131006292157468e-17 1
vn -0.20884427309147938 0.3206722298603635 0.9238795325112867
vn -0.385893898782831 0.5925250196254891 0.7071067811865476
vn -0.5041946765214 0.7741712464053122 0.3826834323650899
vn -0.54573638529571 0.837956918799751 1.2246467991473532e-16
vn -0.5041946765214 0.7741712464053123 -0.38268343236508967
vn -0.3858938987828311 0.5925250196254892 -0.7071067811865475
vn -0.2088442730914797 0.320672229860364 -0.9238795325112865
vn -1.0025014761459568e-16 1.5393018876472402e-16 -1
vn 0.20884427309147954 -0.3206722298603637 -0.9238795325112866
vn 0.3858938987828309 -0.592525019625489 -0.7071067811865477
vn 0.5041946765213999 -0.774171246405312 -0.3826834323650904
vn 0.46792981426057334 -0.8837656300886935 0
vn 0.43231077804715173 -0.8164929771758849 0.3826834323650898
vn 0.3308763447830131 -0.6249166700153171 0.7071067811865475
vn 0.17906898742719518 -0.3382024647286375 0.9238795325112867
vn 2.865243746299133e-17 -5.4115037504228114e-17 1
vn -0.17906898742719513 0.3382024647286374 0.9238795325112867
vn -0.33087634478301303 0.624916670015317 0.7071067811865476
vn -0.43231077804715173 0.8164929771758849 0.3826834323650899
vn -0.46792981426057334 0.8837656300886935 1.2246467991473532e-16
vn -0.4323107780471518 0.816492977175885 -0.38268343236508967
vn -0.33087634478301314 0.6249166700153173 -0.7071067811865475
vn -0.1790689874271954 0.33820246472863796 -0.9238795325112865
vn -8.595731238897399e-17 1.6234511251268432e-16 -1
vn 0.17906898742719524 -0.3382024647286377 -0.9238795325112866
vn 0.330876344783013 -0.6249166700153169 -0.7071067811865477
vn 0.4323107780471516 -0.8164929771758846 -0.3826834323650904
vn 0.38630853875441584 -0.922369618366427 0
vn 0.35690255218954803 -0.8521584118189884 0.3826834323650898
vn 0.27316138738351364 -0.6522138119073484 0.7071067811865475
vn 0.14783387756248217 -0.35297557146574227 0.9238795325112867
vn 2.365457577344433e-17 -5.647885003816052e-17 1
vn -0.14783387756248215 0.35297557146574216 0.9238795325112867
vn -0.2731613873835136 0.6522138119073484 0.7071067811865476
vn -0.35690255218954803 0.8521584118189884 0.3826834323650899
vn -0.38630853875441584 0.922369618366427 1.2246467991473532e-16
vn -0.35690255218954803 0.8521584118189885 -0.38268343236508967
vn -0.2731613873835137 0.6522138119073485 -0.7071067811865475
vn -0.14783387756248237 0.3529755714657427 -0.9238795325112865
vn -7.096372732033299e-17 1.6943655011448157e-16 -1
vn 0.14783387756248226 -0.35297557146574243 -0.9238795325112866
vn 0.2731613873835136 -0.6522138119073483 -0.7071067811865477
vn 0.3569025521895479 -0.8521584118189883 -0.3826834323650904
vn 0.3015379599444958 -0.9534541723190012 0
vn 0.2785847494679279 -0.8808767949930146 0.3826834323650898
vn 0.21321953626191054 -0.6741939107973728 0.7071067811865475
vn 0.11539358149992662 -0.3648711152658512 0.9238795325112867
vn 1.846387487337248e-17 -5.838223001320769e-17 1
vn -0.11539358149992658 0.3648711152658511 0.9238795325112867
vn -0.21321953626191048 0.6741939107973727 0.7071067811865476
vn -0.2785847494679279 0.8808767949930146 0.3826834323650899
vn -0.3015379599444958 0.9534541723190012 1.2246467991473532e-16
vn -0.2785847494679279 0.8808767949930147 -0.38268343236508967
vn -0.21321953626191056 0.6741939107973729 -0.7071067811865475
vn -0.11539358149992678 0.3648711152658517 -0.9238795325112865
vn -5.539162462011743e-17 1.7514669003962305e-16 -1
vn 0.11539358149992666 -0.36487111526585136 -0.9238795325112866
vn 0.21321953626191045 -0.6741939107973726 -0.7071067811865477
vn 0.27858474946792783 -0.8808767949930144 -0.3826834323650904
vn 0.2143091530650509 -0.9767658813208724 0
vn 0.19799584014662902 -0.9024140058077026 0.3826834323650898
vn 0.1515394554026433 -0.6906777783136434 0.7071067811865475
vn 0.0820125622821891 -0.37379212008098345 0.9238795325112867
vn 1.312265091645474e-17 -5.980966050379749e-17 1
vn -0.08201256228218907 0.37379212008098334 0.9238795325112867
vn -0.15153945540264327 0.6906777783136433 0.7071067811865476
vn -0.19799584014662902 0.9024140058077026 0.3826834323650899
vn -0.2143091530650509 0.9767658813208724 1.2246467991473532e-16
vn -0.19799584014662905 0.9024140058077027 -0.38268343236508967
vn -0.1515394554026433 0.6906777783136435 -0.7071067811865475
vn -0.0820125622821892 0.37379212008098395 -0.9238795325112865
vn -3.936795274936421e-17 1.7942898151139246e-16 -1
vn 0.08201256228218913 -0.3737921200809836 -0.9238795325112866
vn 0.15153945540264324 -0.6906777783136432 -0.7071067811865477
vn 0.197995840146629 -0.9024140058077024 -0.3826834323650904
vn 0.12533323356430426 -0.9921147013144779 0
vn 0.11579280923351733 -0.9165944664479947 0.3826834323650898
vn 0.08862397936135695 -0.7015310330143335 0.7071067811865475
vn 0.04796295200980344 -0.3796658591988903 0.9238795325112867
vn 7.674447165565641e-18 -6.074950466759039e-17 1
vn -0.047962952009803425 0.3796658591988902 0.9238795325112867
vn -0.08862397936135694 0.7015310330143334 0.7071067811865476
vn -0.11579280923351733 0.9165944664479947 0.3826834323650899
vn -0.12533323356430426 0.9921147013144779 1.2246467991473532e-16
vn -0.11579280923351734 0.9165944664479948 -0.38268343236508967
vn -0.08862397936135696 0.7015310330143336 -0.7071067811865475
vn -0.0479629520098035 0.3796658591988908 -0.9238795325112865
vn -2.3023341496696923e-17 1.8224851400277115e-16 -1
vn 0.04796295200980346 -0.37966585919889045 -0.9238795325112866
vn 0.08862397936135692 -0.7015310330143333 -0.7071067811865477
vn 0.1157928092335173 -0.9165944664479945 -0.3826834323650904
vn 0.03533555987762105 -0.999375504106507 0
vn 0.03264580054076111 -0.9233025735371512 0.3826834323650898
vn 0.024986014006489136 -0.7066651959054355 0.7071067811865475
vn 0.013522333338510176 -0.38244444813307005 0.9238795325112867
vn 2.1636790150104127e-18 -6.119410061251532e-17 1
vn -0.013522333338510172 0.38244444813306994 0.9238795325112867
vn -0.024986014006489133 0.7066651959054354 0.7071067811865476
vn -0.03264580054076111 0.9233025735371512 0.3826834323650899
vn -0.03533555987762105 0.999375504106507 1.2246467991473532e-16
vn -0.03264580054076112 0.9233025735371513 -0.38268343236508967
vn -0.02498601400648914 0.7066651959054356 -0.7071067811865475
vn -0.013522333338510195 0.38244444813307055 -0.9238795325112865
vn -6.491037045031238e-18 1.8358230183754594e-16 -1
vn 0.013522333338510183 -0.3824444481330702 -0.9238795325112866
vn 0.02498601400648913 -0.7066651959054353 -0.7071067811865477
vn 0.032645800540761105 -0.923302573537151 -0.3826834323650904
vn -0.054950179912445815 -0.9984890974505379 0
vn -0.050767346528921536 -0.9224836405702196 0.3826834323650898
vn -0.03885564484351124 -0.7060384117481109 0.7071067811865475
vn -0.021028523457973975 -0.3821052349914925 0.9238795325112867
vn -3.3647280971173976e-18 -6.113982385881655e-17 1
vn 0.02102852345797397 0.3821052349914924 0.9238795325112867
vn 0.03885564484351124 0.7060384117481108 0.7071067811865476
vn 0.050767346528921536 0.9224836405702196 0.3826834323650899
vn 0.054950179912445815 0.9984890974505379 1.2246467991473532e-16
vn 0.05076734652892154 0.9224836405702197 -0.38268343236508967
vn 0.03885564484351125 0.706038411748111 -0.7071067811865475
vn 0.021028523457974003 0.382105234991493 -0.9238795325112865
vn 1.0094184291352192e-17 1.8341947157644963e-16 -1
vn -0.021028523457973985 -0.3821052349914927 -0.9238795325112866
vn -0.038855644843511235 -0.7060384117481107 -0.7071067811865477
vn -0.05076734652892153 -0.9224836405702194 -0.3826834323650904
vn -0.1447879493218977 -0.9894627076000184 0
vn -0.1337666229327827 -0.914144343734857 0.3826834323650898
vn -0.10238054079960805 -0.6996557902751751 0.7071067811865475
vn -0.0554079494116065 -0.3786509851416303 0.9238795325112867
vn -8.865704934608561e-18 -6.058711688690181e-17 1
vn 0.055407949411606476 0.3786509851416302 0.9238795325112867
vn 0.10238054079960804 0.699655790275175 0.7071067811865476
vn 0.1337666229327827 0.914144343734857 0.3826834323650899
vn 0.1447879493218977 0.9894627076000184 1.2246467991473532e-16
vn 0.13376662293278274 0.9141443437348571 -0.38268343236508967
vn 0.10238054079960808 0.6996557902751752 -0.7071067811865475
vn 0.055407949411606566 0.3786509851416308 -0.9238795325112865
vn 2.659711480382568e-17 1.817613506607054e-16 -1
vn -0.05540794941160652 -0.3786509851416305 -0.9238795325112866
vn -0.10238054079960802 -0.6996557902751749 -0.7071067811865477
vn -0.13376662293278269 -0.9141443437348568 -0.3826834323650904
vn -0.23344536385590534 -0.9723699203976767 0
vn -0.21567539362612106 -0.8983526674850426 0.3826834323650898
vn -0.16507079981907163 -0.6875693645350206 0.7071067811865475
vn -0.08933567311009513 -0.3721098586663521 0.9238795325112867
vn -1.4294405881096185e-17 -5.954048553010907e-17 1
vn 0.08933567311009512 0.372109858666352 0.9238795325112867
vn 0.1650707998190716 0.6875693645350205 0.7071067811865476
vn 0.21567539362612106 0.8983526674850426 0.3826834323650899
vn 0.23344536385590534 0.9723699203976767 1.2246467991473532e-16
vn 0.2156753936261211 0.8983526674850427 -0.38268343236508967
vn 0.16507079981907166 0.6875693645350207 -0.7071067811865475
vn 0.08933567311009526 0.3721098586663526 -0.9238795325112865
vn 4.288321764328855e-17 1.7862145659032718e-16 -1
vn -0.08933567311009517 -0.37210985866635227 -0.9238795325112866
vn -0.16507079981907158 -0.6875693645350204 -0.7071067811865477
vn -0.215675393626121 -0.8983526674850424 -0.3826834323650904
vn -0.3201996616273119 -0.9473500813816162 0
vn -0.2958259136945131 -0.8752373503113771 0.3826834323650898
vn -0.22641535207031022 -0.6698776667025685 0.7071067811865475
vn -0.12253510555368007 -0.3625351807944641 0.9238795325112867
vn -1.9606574534997653e-17 -5.800846224179904e-17 1
vn 0.12253510555368002 0.362535180794464 0.9238795325112867
vn 0.22641535207031016 0.6698776667025684 0.7071067811865476
vn 0.2958259136945131 0.8752373503113771 0.3826834323650899
vn 0.3201996616273119 0.9473500813816162 1.2246467991473532e-16
vn 0.29582591369451317 0.8752373503113772 -0.38268343236508967
vn 0.22641535207031024 0.6698776667025687 -0.7071067811865475
vn 0.12253510555368022 0.36253518079446456 -0.9238795325112865
vn 5.881972360499296e-17 1.7402538672539712e-16 -1
vn -0.12253510555368012 -0.36253518079446423 -0.9238795325112866
vn -0.22641535207031013 -0.6698776667025683 -0.7071067811865477
vn -0.29582591369451305 -0.8752373503113768 -0.3826834323650904
vn -0.4043435955287448 -0.9146071597986136 0
vn -0.37356477201102956 -0.8449868352262189 0.3826834323650898
vn -0.2859140983277261 -0.646724924815368 0.7071067811865475
vn -0.15473559499178166 -0.35000500717741967 0.9238795325112867
vn -2.475890450100047e-17 -5.600353653623119e-17 1
vn 0.1547355949917816 0.35000500717741956 0.9238795325112867
vn 0.285914098327726 0.6467249248153679 0.7071067811865476
vn 0.37356477201102956 0.8449868352262189 0.3826834323650899
vn 0.4043435955287448 0.9146071597986136 1.2246467991473532e-16
vn 0.3735647720110296 0.844986835226219 -0.38268343236508967
vn 0.28591409832772613 0.6467249248153681 -0.7071067811865475
vn 0.15473559499178186 0.3500050071774201 -0.9238795325112865
vn 7.42767135030014e-17 1.680106096086936e-16 -1
vn -0.15473559499178172 -0.35000500717741984 -0.9238795325112866
vn -0.28591409832772596 -0.6467249248153678 -0.7071067811865477
vn -0.3735647720110295 -0.8449868352262186 -0.3826834323650904
vn -0.48519119892358376 -0.8744080857855189 0
vn -0.4482582180401113 -0.8078477335196143 0.3826834323650898
vn -0.3430819869308972 -0.6182998869832889 0.7071067811865475
vn -0.1856746333574101 -0.3346214875561903 0.9238795325112867
vn -2.970939243681168e-17 -5.3542053170289993e-17 1
vn 0.18567463335741005 0.3346214875561902 0.9238795325112867
vn 0.34308198693089714 0.6182998869832887 0.7071067811865476
vn 0.4482582180401113 0.8078477335196143 0.3826834323650899
vn 0.48519119892358376 0.8744080857855189 1.2246467991473532e-16
vn 0.44825821804011134 0.8078477335196144 -0.38268343236508967
vn 0.34308198693089725 0.6182998869832889 -0.7071067811865475
vn 0.18567463335741036 0.3346214875561907 -0.9238795325112865
vn 8.912817731043502e-17 1.6062615951086999e-16 -1
vn -0.1856746333574102 -0.3346214875561904 -0.9238795325112866
vn -0.3430819869308971 -0.6182998869832886 -0.7071067811865477
vn -0.4482582180401112 -0.8078477335196141 -0.3826834323650904
vn -0.5620833778521307 -0.8270805742745617 0
vn -0.5192973283623914 -0.7641228143099487 0.3826834323650898
vn -0.3974529680714821 -0.5848342826572066 0.7071067811865475
vn -0.2150999963118171 -0.3165100330058789 0.9238795325112867
vn -3.441768047702721e-17 -5.064407889611484e-17 1
vn 0.21509999631181703 0.3165100330058788 0.9238795325112867
vn 0.39745296807148206 0.5848342826572065 0.7071067811865476
vn 0.5192973283623914 0.7641228143099487 0.3826834323650899
vn 0.5620833778521307 0.8270805742745617 1.2246467991473532e-16
vn 0.5192973283623915 0.7641228143099488 -0.38268343236508967
vn 0.39745296807148217 0.5848342826572067 -0.7071067811865475
vn 0.21509999631181737 0.3165100330058793 -0.9238795325112865
vn 1.0325304143108161e-16 1.519322366883445e-16 -1
vn -0.2150999963118172 -0.31651003300587904 -0.9238795325112866
vn -0.397452968071482 -0.5848342826572064 -0.7071067811865477
vn -0.5192973283623913 -0.7641228143099484 -0.3826834323650904
vn -0.6343932841636457 -0.7730104533627368 0
vn -0.5861029708014088 -0.714168536279103 0.3826834323650898
vn -0.4485837931713183 -0.5466009335008787 0.7071067811865475
vn -0.24277179945310573 -0.29581829354694633 0.9238795325112867
vn -3.88453852425793e-17 -4.7333238870906e-17 1
vn 0.24277179945310565 0.2958182935469462 0.9238795325112867
vn 0.44858379317131825 0.5466009335008786 0.7071067811865476
vn 0.5861029708014088 0.714168536279103 0.3826834323650899
vn 0.6343932841636457 0.7730104533627368 1.2246467991473532e-16
vn 0.5861029708014089 0.7141685362791031 -0.38268343236508967
vn 0.4485837931713184 0.5466009335008787 -0.7071067811865475
vn 0.24277179945310604 0.2958182935469467 -0.9238795325112865
vn 1.1653615572773789e-16 1.41999716612718e-16 -1
vn -0.24277179945310584 -0.29581829354694644 -0.9238795325112866
vn -0.4485837931713182 -0.5466009335008785 -0.7071067811865477
vn -0.5861029708014087 -0.7141685362791029 -0.3826834323650904
vn -0.701531425770856 -0.7126385189252051 0
vn -0.6481305256831549 -0.6583921417141543 0.3826834323650898
vn -0.49605762837803946 -0.5039115292667503 0.7071067811865475
vn -0.2684644539259664 -0.27271495445787153 0.9238795325112867
vn -4.295641075357789e-17 -4.3636524057543145e-17 1
vn 0.26846445392596635 0.2727149544578715 0.9238795325112867
vn 0.49605762837803935 0.5039115292667503 0.7071067811865476
vn 0.6481305256831549 0.6583921417141543 0.3826834323650899
vn 0.701531425770856 0.7126385189252051 1.2246467991473532e-16
vn 0.648130525683155 0.6583921417141544 -0.38268343236508967
vn 0.4960576283780395 0.5039115292667504 -0.7071067811865475
vn 0.2684644539259668 0.27271495445787186 -0.9238795325112865
vn 1.2886923226073366e-16 1.3090957217262942e-16 -1
vn -0.2684644539259665 -0.27271495445787164 -0.9238795325112866
vn -0.4960576283780393 -0.5039115292667502 -0.7071067811865477
vn -0.6481305256831548 -0.6583921417141542 -0.3826834323650904
vn -0.7629504723666088 -0.6464569411148499 0
vn -0.704874325739328 -0.597248336545864 0.3826834323650898
vn -0.5394874527199088 -0.457114086807423 0.7071067811865475
vn -0.2919685054898205 -0.24738836110206752 0.9238795325112867
vn -4.6717242694586435e-17 -3.9584071186144496e-17 1
vn 0.2919685054898204 0.24738836110206744 0.9238795325112867
vn 0.5394874527199087 0.45711408680742294 0.7071067811865476
vn 0.704874325739328 0.597248336545864 0.3826834323650899
vn 0.7629504723666088 0.6464569411148499 1.2246467991473532e-16
vn 0.7048743257393281 0.597248336545864 -0.38268343236508967
vn 0.5394874527199088 0.4571140868074231 -0.7071067811865475
vn 0.2919685054898209 0.24738836110206783 -0.9238795325112865
vn 1.401517280837593e-16 1.1875221355843346e-16 -1
vn -0.2919685054898206 -0.2473883611020676 -0.9238795325112866
vn -0.5394874527199086 -0.4571140868074229 -0.7071067811865477
vn -0.7048743257393278 -0.5972483365458637 -0.3826834323650904
vn -0.8181497174250233 -0.5750052520432787 0
vn -0.7558717784588719 -0.5312355834492789 0.3826834323650898
vn -0.5785192132170917 -0.40659011293768227 0.7071067811865475
vn -0.3130923420527363 -0.22004498347987547 0.9238795325112867
vn -5.009722163339331e-17 -3.5208917070385914e-17 1
vn 0.31309234205273617 0.22004498347987542 0.9238795325112867
vn 0.5785192132170915 0.4065901129376822 0.7071067811865476
vn 0.7558717784588719 0.5312355834492789 0.3826834323650899
vn 0.8181497174250233 0.5750052520432787 1.2246467991473532e-16
vn 0.755871778458872 0.531235583449279 -0.38268343236508967
vn 0.5785192132170918 0.4065901129376824 -0.7071067811865475
vn 0.31309234205273667 0.22004498347987575 -0.9238795325112865
vn 1.5029166490017993e-16 1.0562675121115774e-16 -1
vn -0.3130923420527364 -0.22004498347987556 -0.9238795325112866
vn -0.5785192132170915 -0.40659011293768216 -0.7071067811865477
vn -0.7558717784588717 -0.5312355834492788 -0.3826834323650904
vn -0.8666791601115641 -0.4988659473529074 0
vn -0.8007071372811465 -0.4608920382262043 0.3826834323650898
vn -0.6128347112279486 -0.35275149427629204 0.7071067811865475
vn -0.3316637557507866 -0.19090773302307282 0.9238795325112867
vn -5.306879296591717e-17 -3.05467292814675e-17 1
vn 0.3316637557507865 0.19090773302307276 0.9238795325112867
vn 0.6128347112279485 0.352751494276292 0.7071067811865476
vn 0.8007071372811465 0.4608920382262043 0.3826834323650899
vn 0.8666791601115641 0.4988659473529074 1.2246467991473532e-16
vn 0.8007071372811465 0.46089203822620434 -0.38268343236508967
vn 0.6128347112279486 0.3527514942762921 -0.7071067811865475
vn 0.33166375575078705 0.19090773302307307 -0.9238795325112865
vn 1.592063788977515e-16 9.164018784440251e-17 -1
vn -0.33166375575078677 -0.1909077330230729 -0.9238795325112866
vn -0.6128347112279484 -0.35275149427629193 -0.7071067811865477
vn -0.8007071372811463 -0.46089203822620417 -0.3826834323650904
vn -0.9081431738250811 -0.4186597375374284 0
vn -0.8390148908868321 -0.3867911625973774 0.3826834323650898
vn -0.6421541964999885 -0.2960371394224958 0.7071067811865475
vn -0.34753134683830844 -0.16021414535389075 0.9238795325112867
vn -5.56077315496202e-17 -2.5635515375354134e-17 1
vn 0.3475313468383084 0.1602141453538907 0.9238795325112867
vn 0.6421541964999884 0.29603713942249577 0.7071067811865476
vn 0.8390148908868321 0.3867911625973774 0.3826834323650899
vn 0.9081431738250811 0.4186597375374284 1.2246467991473532e-16
vn 0.8390148908868322 0.3867911625973774 -0.38268343236508967
vn 0.6421541964999886 0.2960371394224959 -0.7071067811865475
vn 0.34753134683830894 0.16021414535389095 -0.9238795325112865
vn 1.668231946488606e-16 7.69065461260624e-17 -1
vn -0.3475313468383086 -0.1602141453538908 -0.9238795325112866
vn -0.6421541964999883 -0.2960371394224957 -0.7071067811865477
vn -0.839014890886832 -0.3867911625973773 -0.3826834323650904
vn -0.9422037314647598 -0.33504048772332407 0
vn -0.8704827429560522 -0.30953704917017816 0.3826834323650898
vn -0.6662386477780006 -0.23690940084121068 0.7071067811865475
vn -0.36056575794412965 -0.1282144438232354 0.9238795325112867
vn -5.769333919415052e-17 -2.0515313043756847e-17 1
vn 0.36056575794412954 0.12821444382323535 0.9238795325112867
vn 0.6662386477780005 0.23690940084121065 0.7071067811865476
vn 0.8704827429560522 0.30953704917017816 0.3826834323650899
vn 0.9422037314647598 0.33504048772332407 1.2246467991473532e-16
vn 0.8704827429560523 0.30953704917017816 -0.38268343236508967
vn 0.6662386477780006 0.23690940084121073 -0.7071067811865475
vn 0.36056575794413015 0.12821444382323557 -0.9238795325112865
vn 1.7308001758245154e-16 6.154593913127053e-17 -1
vn -0.3605657579441298 -0.12821444382323546 -0.9238795325112866
vn -0.6662386477780003 -0.23690940084121062 -0.7071067811865477
vn -0.870482742956052 -0.30953704917017805 -0.3826834323650904
vn -0.9685831611286311 -0.24868988716485482 0
vn -0.894854158101824 -0.22975949669415072 0.3826834323650898
vn -0.6848917213771575 -0.17585030562678622 0.7071067811865475
vn -0.3706607286317334 -0.09516949961473355 0.9238795325112867
vn -5.930861339921016e-17 -1.5227863714837794e-17 1
vn 0.37066072863173327 0.09516949961473352 0.9238795325112867
vn 0.6848917213771574 0.1758503056267862 0.7071067811865476
vn 0.894854158101824 0.22975949669415072 0.3826834323650899
vn 0.9685831611286311 0.24868988716485482 1.2246467991473532e-16
vn 0.8948541581018241 0.22975949669415074 -0.38268343236508967
vn 0.6848917213771576 0.17585030562678622 -0.7071067811865475
vn 0.3706607286317339 0.09516949961473367 -0.9238795325112865
vn 1.7792584019763046e-16 4.568359114451338e-17 -1
vn -0.37066072863173355 -0.09516949961473359 -0.9238795325112866
vn -0.6848917213771573 -0.17585030562678616 -0.7071067811865477
vn -0.8948541581018238 -0.22975949669415066 -0.3826834323650904
f 1//1 2//2 18//18 17//17
f 2//2 3//3 19//19 18//18
f 3//3 4//4 20//20 19//19
f 4//4 5//5 21//21 20//20
f 5//5 6//6 22//22 21//21
f 6//6 7//7 23//23 22//22
f 7//7 8//8 24//24 23//23
f 8//8 9//9 25//25 24//24
f 9//9 10//10 26//26 25//25
f 10//10 11//11 27//27 26//26
f 11//11 12//12 28//28 27//27
f 12//12 13//13 29//29 28//28
f 13//13 14//14 30//30 29//29
f 14//14 15//15 31//31 30//30
f 15//15 16//16 32//32 31//31
f 16//16 1//1 17//17 32//32
f 17//17 18//18 34//34 33//33
f 18//18 19//19 35//35 34//34
f 19//19 20//20 36//36 35//35
f 20//20 21//21 37//37 36//36
f 21//21 22//22 38//38 37//37
f 22//22 23//23 39//39 38//38
f 23//23 24//24 40//40 39//39
f 24//24 25//25 41//41 40//40
f 25//25 26//26 42//42 41//41
f 26//26 27//27 43//43 42//42
f 27//27 28//28 44//44 43//43
f 28//28 29//29 45//45 44//44
f 29//29 30//30 46//46 45//45
f 30//30 31//31 47//47 46//46
f 31//31 32//32 48//48 47//47
f 32//32 17//17 33//33 48//48
f 33//33 34//34 50//50 49//49
f 34//34 35//35 51//51 50//50
f 35//35 36//36 52//52 51//51
f 36//36 37//37 53//53 52//52
f 37//37 38//38 54//54 53//53
f 38//38 39//39 55//55 54//54
f 39//39 40//40 56//56 55//55
f 40//40 41//41 57//57 56//56
f 41//41 42//42 58//58 57//57
f 42//42 43//43 59//59 58//58
f 43//43 44//44 60//60 59//59
f 44//44 45//45 61//61 60//60
f 45//45 46//46 62//62 61//61
f 46//46 47//47 63//63 62//62
f 47//47 48//48 64//64 63//63
f 48//48 33//33 49//49 64//64
f 49//49 50//50 66//66 65//65
f 50//50 51//51 67//67 66//66
f 51//51 52//52 68//68 67//67
f 52//52 53//53 69//69 68//68
f 53//53 54//54 70//70 69//69
f 54//54 55//55 71//71 70//70
f 55//55 56//56 72//72 71//71
f 56//56 57//57 73//73 72//72
f 57//57 58//58 74//74 73//73
f 58//58 59//59 75//75 74//74
f 59//59 60//60 76//76 75//75
f 60//60 61//61 77//77 76//76
f 61//61 62//62 78//78 77//77
f 62//62 63//63 79//79 78//78
f 63//63 64//64 80//80 79//79
f 64//64 49//49 65//65 80//80
f 65//65 66//66 82//82 81//81
f 66//66 67//67 83//83 82//82
f 67//67 68//68 84//84 83//83
f 68//68 69//69 85//85 84//84
f 69//69 70//70 86//86 85//85
f 70//70 71//71 87//87 86//86
f 71//71 72//72 88//88 87//87
f 72//72 73//73 89//89 88//88
f 73//73 74//74 90//90 89//89
f 74//74 75//75 91//91 90//90
f 75//75 76//76 92//92 91//91
f 76//76 77//77 93//93 92//92
f 77//77 78//78 94//94 93//93
f 78//78 79//79 95//95 94//94
f 79//79 80//80 96//96 95//95
f 80//80 65//65 81//81 96//96
f 81//81 82//82 98//98 97//97
f 82//82 83//83 99//99 98//98
f 83//83 84//84 100//100 99//99
f 84//84 85//85 101//101 100//100
f 85//85 86//86 102//102 101//101
f 86//86 87//87 103//103 102//102
f 87//87 88//88 104//104 103//103
f 88//88 89//89 105//105 104//104
f 89//89 90//90 106//106 105//105
f 90//90 91//91 107//107 106//106
f 91//91 92//92 108//108 107//107
f 92//92 93//93 109//109 108//108
f 93//93 94//94 110//110 109//109
f 94//94 95//95 111//111 110//110
f 95//95 96//96 112//112 111//111
f 96//96 81//81 97//97 112//112
f 97//97 98//98 114//114 113//113
f 98//98 99//99 115//115 114//114
f 99//99 100//100 116//116 115//115
f 100//100 101//101 117//117 116//116
f 101//101 102//102 118//118 117//117
f 102//102 103//103 119//119 118//118
f 103//103 104//104 120//120 119//119
f 104//104 105//105 121//121 120//120
f 105//105 106//106 122//122 121//121
f 106//106 107//107 123//123 122//122
f 107//107 108//108 124//124 123//123
f 108//108 109//109 125//125 124//124
f 109//109 110//110 126//126 125//125
f 110//110 111//111 127//127 126//126
f 111//111 112//112 128//128 127//127
f 112//112 97//97 113//113 128//128
f 113//113 114//114 130//130 129//129
f 114//114 115//115 131//131 130//130
f 115//115 116//116 132//132 131//131
f 116//116 117//117 133//133 132//132
f 117//117 118//118 134//134 133//133
f 118//118 119//119 135//135 134//134
f 119//119 120//120 136//136 135//135
f 120//120 121//121 137//137 136//136
f 121//121 122//122 138//138 137//137
f 122//122 123//123 139//139 138//138
f 123//123 124//124 140//140 139//139
f 124//124 125//125 141//141 140//140
f 125//125 126//126 142//142 141//141
f 126//126 127//127 143//143 142//142
f 127//127 128//128 144//144 143//143
f 128//128 113//113 129//129 144//144
f 129//129 130//130 146//146 145//145
f 130//130 131//131 147//147 146//146
f 131//131 132//132 148//148 147//147
f 132//132 133//133 149//149 148//148
f 133//133 134//134 150//150 149//149
f 134//134 135//135 151//151 150//150
f 135//135 136//136 152//152 151//151
f 136//136 137//137 153//153 152//152
f 137//137 138//138 154//154 153//153
f 138//138 139//139 155//155 154//154
f 139//139 140//140 156//156 155//155
f 140//140 141//141 157//157 156//156
f 141//141 142//142 158//158 157//157
f 142//142 143//143 159//159 158//158
f 143//143 144//144 160//160 159//159
f 144//144 129//129 145//145 160//160
f 145//145 146//146 162//162 161//161
f 146//146 147//147 163//163 162//162
f 147//147 148//148 164//164 163//163
f 148//148 149//149 165//165 164//164
f 149//149 150//150 166//166 165//165
f 150//150 151//151 167//167 166//166
f 151//151 152//152 168//168 167//167
f 152//152 153//153 169//169 168//168
f 153//153 154//154 170//170 169//169
f 154//154 155//155 171//171 170//170
f 155//155 156//156 172//172 171//171
f 156//156 157//157 173//173 172//172
f 157//157 158//158 174//174 173//173
f 158//158 159//159 175//175 174//174
f 159//159 160//160 176//176 175//175
f 160//160 145//145 161//161 176//176
f 161//161 162//162 178//178 177//177
f 162//162 163//163 179//179 178//178
f 163//163 164//164 180//180 179//179
f 164//164 165//165 181//181 180//180
f 165//165 166//166 182//182 181//181
f 166//166 167//167 183//183 182//182
f 167//167 168//168 184//184 183//183
f 168//168 169//169 185//185 184//184
f 169//169 170//170 186//186 185//185
f 170//170 171//171 187//187 186//186
f 171//171 172//172 188//188 187//187
f 172//172 173//173 189//189 188//188
f 173//173 174//174 190//190 189//189
f 174//174 175//175 191//191 190//190
f 175//175 176//176 192//192 191//191
f 176//176 161//161 177//177 192//192
f 177//177 178//178 194//194 193//193
f 178//178 179//179 195//195 194//194
f 179//179 180//180 196//196 195//195
f 180//180 181//181 197//197 196//196
f 181//181 182//182 198//198 197//197
f 182//182 183//183 199//199 198//198
f 183//183 184//184 200//200 199//199
f 184//184 185//185 201//201 200//200
f 185//185 186//186 202//202 201//201
f 186//186 187//187 203//203 202//202
f 187//187 188//188 204//204 203//203
f 188//188 189//189 205//205 204//204
f 189//189 190//190 206//206 205//205
f 190//190 191//191 207//207 206//206
f 191//191 192//192 208//208 207//207
f 192//192 177//177 193//193 208//208
f 193//193 194//194 210//210 209//209
f 194//194 195//195 211//211 210//210
f 195//195 196//196 212//212 211//211
f 196//196 197//197 213//213 212//212
f 197//197 198//198 214//214 213//213
f 198//198 199//199 215//215 214//214
f 199//199 200//200 216//216 215//215
f 200//200 201//201 217//217 216//216
f 201//201 202//202 218//218 217//217
f 202//202 203//203 219//219 218//218
f 203//203 204//204 220//220 219//219
f 204//204 205//205 221//221 220//220
f 205//205 206//206 222//222 221//221
f 206//206 207//207 223//223 222//222
f 207//207 208//208 224//224 223//223
f 208//208 193//193 209//209 224//224
f 209//209 210//210 226//226 225//225
f 210//210 211//211 227//227 226//226
f 211//211 212//212 228//228 227//227
f 212//212 213//213 229//229 228//228
f 213//213 214//214 230//230 229//229
f 214//214 215//215 231//231 230//230
f 215//215 216//216 232//232 231//231
f 216//216 217//217 233//233 232//232
f 217//217 218//218 234//234 233//233
f 218//218 219//219 235//235 234//234
f 219//219 220//220 236//236 235//235
f 220//220 221//221 237//237 236//236
f 221//221 222//222 238//238 237//237
f 222//222 223//223 239//239 238//238
f 223//223 224//224 240//240 239//239
f 224//224 209//209 225//225 240//240
f 225//225 226//226 242//242 241//241
f 226//226 227//227 243//243 242//242
f 227//227 228//228 244//244 243//243
f 228//228 229//229 245//245 244//244
f 229//229 230//230 246//246 245//245
f 230//230 231//231 247//247 246//246
f 231//231 232//232 248//248 247//247
f 232//232 233//233 249//249 248//248
f 233//233 234//234 250//250 249//249
f 234//234 235//235 251//251 250//250
f 235//235 236//236 252//252 251//251
f 236//236 237//237 253//253 252//252
f 237//237 238//238 254//254 253//253
f 238//238 239//239 255//255 254//254
f 239//239 240//240 256//256 255//255
f 240//240 225//225 241//241 256//256
f 241//241 242//242 258//258 257//257
f 242//242 243//243 259//259 258//258
f 243//243 244//244 260//260 259//259
f 244//244 245//245 261//261 260//260
f 245//245 246//246 262//262 261//261
f 246//246 247//247 263//263 262//262
f 247//247 248//248 264//264 263//263
f 248//248 249//249 265//265 264//264
f 249//249 250//250 266//266 265//265
f 250//250 251//251 267//267 266//266
f 251//251 252//252 268//268 267//267
f 252//252 253//253 269//269 268//268
f 253//253 254//254 270//270 269//269
f 254//254 255//255 271//271 270//270
f 255//255 256//256 272//272 271//271
f 256//256 241//241 257//257 272//272
f 257//257 258//258 274//274 273//273
f 258//258 259//259 275//275 274//274
f 259//259 260//260 276//276 275//275
f 260//260 261//261 277//277 276//276
f 261//261 262//262 278//278 277//277
f 262//262 263//263 279//279 278//278
f 263//263 264//264 280//280 279//279
f 264//264 265//265 281//281 280//280
f 265//265 266//266 282//282 281//281
f 266//266 267//267 283//283 282//282
f 267//267 268//268 284//284 283//283
f 268//268 269//269 285//285 284//284
f 269//269 270//270 286//286 285//285
f 270//270 271//271 287//287 286//286
f 271//271 272//272 288//288 287//287
f 272//272 257//257 273//273 288//288
f 273//273 274//274 290//290 289//289
f 274//274 275//275 291//291 290//290
f 275//275 276//276 292//292 291//291
f 276//276 277//277 293//293 292//292
f 277//277 278//278 294//294 293//293
f 278//278 279//279 295//295 294//294
f 279//279 280//280 296//296 295//295
f 280//280 281//281 297//297 296//296
f 281//281 282//282 298//298 297//297
f 282//282 283//283 299//299 298//298
f 283//283 284//284 300//300 299//299
f 284//284 285//285 301//301 300//300
f 285//285 286//286 302//302 301//301
f 286//286 287//287 303//303 302//302
f 287//287 288//288 304//304 303//303
f 288//288 273//273 289//289 304//304
f 289//289 290//290 306//306 305//305
f 290//290 291//291 307//307 306//306
f 291//291 292//292 308//308 307//307
f 292//292 293//293 309//309 308//308
f 293//293 294//294 310//310 309//309
f 294//294 295//295 311//311 310//310
f 295//295 296//296 312//312 311//311
f 296//296 297//297 313//313 312//312
f 297//297 298//298 314//314 313//313
f 298//298 299//299 315//315 314//314
f 299//299 300//300 316//316 315//315
f 300//300 301//301 317//317 316//316
f 301//301 302//302 318//318 317//317
f 302//302 303//303 319//319 318//318
f 303//303 304//304 320//320 319//319
f 304//304 289//289 305//305 320//320
f 305//305 306//306 322//322 321//321
f 306//306 307//307 323//323 322//322
f 307//307 308//308 324//324 323//323
f 308//308 309//309 325//325 324//324
f 309//309 310//310 326//326 325//325
f 310//310 311//311 327//327 326//326
f 311//311 312//312 328//328 327//327
f 312//312 313//313 329//329 328//328
f 313//313 314//314 330//330 329//329
f 314//314 315//315 331//331 330//330
f 315//315 316//316 332//332 331//331
f 316//316 317//317 333//333 332//332
f 317//317 318//318 334//334 333//333
f 318//318 319//319 335//335 334//334
f 319//319 320//320 336//336 335//335
f 320//320 305//305 321//321 336//336
f 321//321 322//322 338//338 337//337
f 322//322 323//323 339//339 338//338
f 323//323 324//324 340//340 339//339
f 324//324 325//325 341//341 340//340
f 325//325 326//326 342//342 341//341
f 326//326 327//327 343//343 342//342
f 327//327 328//328 344//344 343//343
f 328//328 329//329 345//345 344//344
f 329//329 330//330 346//346 345//345
f 330//330 331//331 347//347 346//346
f 331//331 332//332 348//348 347//347
f 332//332 333//333 349//349 348//348
f 333//333 334//334 350//350 349//349
f 334//334 335//335 351//351 350//350
f 335//335 336//336 352//352 351//351
f 336//336 321//321 337//337 352//352
f 337//337 338//338 354//354 353//353
f 338//338 339//339 355//355 354//354
f 339//339 340//340 356//356 355//355
f 340//340 341//341 357//357 356//356
f 341//341 342//342 358//358 357//357
f 342//342 343//343 359//359 358//358
f 343//343 344//344 360//360 359//359
f 344//344 345//345 361//361 360//360
f 345//345 346//346 362//362 361//361
f 346//346 347//347 363//363 362//362
f 347//347 348//348 364//364 363//363
f 348//348 349//349 365//365 364//364
f 349//349 350//350 366//366 365//365
f 350//350 351//351 367//367 366//366
f 351//351 352//352 368//368 367//367
f 352//352 337//337 353//353 368//368
f 353//353 354//354 370//370 369//369
f 354//354 355//355 371//371 370//370
f 355//355 356//356 372//372 371//371
f 356//356 357//357 373//373 372//372
f 357//357 358//358 374//374 373//373
f 358//358 359//359 375//375 374//374
f 359//359 360//360 376//376 375//375
f 360//360 361//361 377//377 376//376
f 361//361 362//362 378//378 377//377
f 362//362 363//363 379//379 378//378
f 363//363 364//364 380//380 379//379
f 364//364 365//365 381//381 380//380
f 365//365 366//366 382//382 381//381
f 366//366 367//367 383//383 382//382
f 367//367 368//368 384//384 383//383
f 368//368 353//353 369//369 384//384
f 369//369 370//370 386//386 385//385
f 370//370 371//371 387//387 386//386
f 371//371 372//372 388//388 387//387
f 372//372 373//373 389//389 388//388
f 373//373 374//374 390//390 389//389
f 374//374 375//375 391//391 390//390
f 375//375 376//376 392//392 391//391
f 376//376 377//377 393//393 392//392
f 377//377 378//378 394//394 393//393
f 378//378 379//379 395//395 394//394
f 379//379 380//380 396//396 395//395
f 380//380 381//381 397//397 396//396
f 381//381 382//382 398//398 397//397
f 382//382 383//383 399//399 398//398
f 383//383 384//384 400//400 399//399
f 384//384 369//369 385//385 400//400
f 385//385 386//386 402//402 401//401
f 386//386 387//387 403//403 402//402
f 387//387 388//388 404//404 403//403
f 388//388 389//389 405//405 404//404
f 389//389 390//390 406//406 405//405
f 390//390 391//391 407//407 406//406
f 391//391 392//392 408//408 407//407
f 392//392 393//393 409//409 408//408
f 393//393 394//394 410//410 409//409
f 394//394 395//395 411//411 410//410
f 395//395 396//396 412//412 411//411
f 396//396 397//397 413//413 412//412
f 397//397 398//398 414//414 413//413
f 398//398 399//399 415//415 414//414
f 399//399 400//400 416//416 415//415
f 400//400 385//385 401//401 416//416
f 401//401 402//402 418//418 417//417
f 402//402 403//403 419//419 418//418
f 403//403 404//404 420//420 419//419
f 404//404 405//405 421//421 420//420
f 405//405 406//406 422//422 421//421
f 406//406 407//407 423//423 422//422
f 407//407 408//408 424//424 423//423
f 408//408 409//409 425//425 424//424
f 409//409 410//410 426//426 425//425
f 410//410 411//411 427//427 426//426
f 411//411 412//412 428//428 427//427
f 412//412 413//413 429//429 428//428
f 413//413 414//414 430//430 429//429
f 414//414 415//415 431//431 430//430
f 415//415 416//416 432//432 431//431
f 416//416 401//401 417//417 432//432
f 417//417 418//418 434//434 433//433
f 418//418 419//419 435//435 434//434
f 419//419 420//420 436//436 435//435
f 420//420 421//421 437//437 436//436
f 421//421 422//422 438//438 437//437
f 422//422 423//423 439//439 438//438
f 423//423 424//424 440//440 439//439
f 424//424 425//425 441//441 440//440
f 425//425 426//426 442//442 441//441
f 426//426 427//427 443//443 442//442
f 427//427 428//428 444//444 443//443
f 428//428 429//429 445//445 444//444
f 429//429 430//430 446//446 445//445
f 430//430 431//431 447//447 446//446
f 431//431 432//432 448//448 447//447
f 432//432 417//417 433//433 448//448
f 433//433 434//434 450//450 449//449
f 434//434 435//435 451//451 450//450
f 435//435 436//436 452//452 451//451
f 436//436 437//437 453//453 452//452
f 437//437 438//438 454//454 453//453
f 438//438 439//439 455//455 454//454
f 439//439 440//440 456//456 455//455
f 440//440 441//441 457//457 456//456
f 441//441 442//442 458//458 457//457
f 442//442 443//443 459//459 458//458
f 443//443 444//444 460//460 459//459
f 444//444 445//445 461//461 460//460
f 445//445 446//446 462//462 461//461
f 446//446 447//447 463//463 462//462
f 447//447 448//448 464//464 463//463
f 448//448 433//433 449//449 464//464
f 449//449 450//450 466//466 465//465
f 450//450 451//451 467//467 466//466
f 451//451 452//452 468//468 467//467
f 452//452 453//453 469//469 468//468
f 453//453 454//454 470//470 469//469
f 454//454 455//455 471//471 470//470
f 455//455 456//456 472//472 471//471
f 456//456 457//457 473//473 472//472
f 457//457 458//458 474//474 473//473
f 458//458 459//459 475//475 474//474
f 459//459 460//460 476//476 475//475
f 460//460 461//461 477//477 476//476
f 461//461 462//462 478//478 477//477
f 462//462 463//463 479//479 478//478
f 463//463 464//464 480//480 479//479
f 464//464 449//449 465//465 480//480
f 465//465 466//466 482//482 481//481
f 466//466 467//467 483//483 482//482
f 467//467 468//468 484//484 483//483
f 468//468 469//469 485//485 484//484
f 469//469 470//470 486//486 485//485
f 470//470 471//471 487//487 486//486
f 471//471 472//472 488//488 487//487
f 472//472 473//473 489//489 488//488
f 473//473 474//474 490//490 489//489
f 474//474 475//475 491//491 490//490
f 475//475 476//476 492//492 491//491
f 476//476 477//477 493//493 492//492
f 477//477 478//478 494//494 493//493
f 478//478 479//479 495//495 494//494
f 479//479 480//480 496//496 495//495
f 480//480 465//465 481//481 496//496
f 481//481 482//482 498//498 497//497
f 482//482 483//483 499//499 498//498
f 483//483 484//484 500//500 499//499
f 484//484 485//485 501//501 500//500
f 485//485 486//486 502//502 501//501
f 486//486 487//487 503//503 502//502
f 487//487 488//488 504//504 503//503
f 488//488 489//489 505//505 504//504
f 489//489 490//490 506//506 505//505
f 490//490 491//491 507//507 506//506
f 491//491 492//492 508//508 507//507
f 492//492 493//493 509//509 508//508
f 493//493 494//494 510//510 509//509
f 494//494 495//495 511//511 510//510
f 495//495 496//496 512//512 511//511
f 496//496 481//481 497//497 512//512
f 497//497 498//498 514//514 513//513
f 498//498 499//499 515//515 514//514
f 499//499 500//500 516//516 515//515
f 500//500 501//501 517//517 516//516
f 501//501 502//502 518//518 517//517
f 502//502 503//503 519//519 518//518
f 503//503 504//504 520//520 519//519
f 504//504 505//505 521//521 520//520
f 505//505 506//506 522//522 521//521
f 506//506 507//507 523//523 522//522
f 507//507 508//508 524//524 523//523
f 508//508 509//509 525//525 524//524
f 509//509 510//510 526//526 525//525
f 510//510 511//511 527//527 526//526
f 511//511 512//512 528//528 527//527
f 512//512 497//497 513//513 528//528
