o Flashlight_0
v -6.0595612e-11 0.28937194 -0.065583959
v -6.0595612e-11 0.28937194 0.065583944
v -0.025097895 0.28937194 0.060591653
v -0.046374843 0.28937194 0.046374828
v -0.060591668 0.28937194 0.025097875
v -0.065583952 0.28937194 -1.4883946e-08
v -0.060591668 0.28937194 -0.025097914
v -0.046374843 0.28937194 -0.046374891
v -0.025097895 0.28937194 -0.060591713
v 0 -0.071813963 -0.060306191
v 0 -0.060527317 -0.071813956
v 0 -0.071813956 0.060306195
v 0 -0.060527306 0.071813963
v -0.023078172 -0.071813956 0.05571565
v -0.027482005 -0.060527306 0.066347443
v -0.042642899 -0.071813956 0.042642906
v -0.050780121 -0.06052731 0.050780125
v -0.055715647 -0.071813956 0.023078173
v -0.066347435 -0.06052731 0.027482007
v -0.060306191 -0.071813956 -2.6234708e-09
v -0.071813956 -0.06052731 -2.4071471e-09
v -0.055715647 -0.071813956 -0.023078199
v -0.066347435 -0.06052731 -0.027482023
v -0.042642906 -0.071813956 -0.042642936
v -0.050780121 -0.06052731 -0.050780158
v -0.023078172 -0.071813963 -0.055715688
v -0.027482005 -0.060527317 -0.06634748
v 0 0.33778733 -0.10933109
v 0 0.33778733 0.10933106
v -0.041839201 0.33778733 0.10100871
v -0.077308729 0.33778733 0.077308722
v -0.10100873 0.33778733 0.041839179
v -0.10933108 0.33778733 -1.0949047e-08
v -0.10100873 0.33778733 -0.041839216
v -0.077308729 0.33778733 -0.077308789
v -0.041839201 0.33778733 -0.10100882
v 0 0.46860611 -0.10208174
v 0 0.46860611 0.10208171
v -0.039064992 0.46860611 0.094311178
v -0.07218267 0.46860611 0.072182648
v -0.0943112 0.46860611 0.039064962
v -0.10208173 0.46860611 -1.6942668e-08
v -0.0943112 0.46860611 -0.039065011
v -0.07218267 0.46860611 -0.07218273
v -0.039064996 0.46860611 -0.094311282
v 0 0.46860611 -0.10933109
v 0 0.46860611 0.10933106
v -0.041839201 0.48491716 0.10100871
v 0 0.48491716 0.10933106
v -0.077308737 0.48491716 0.077308707
v -0.10100873 0.48491716 0.041839167
v -0.10933108 0.48491716 -1.7380298e-08
v -0.10100873 0.48491716 -0.041839223
v -0.077308737 0.48491716 -0.077308796
v -0.041839201 0.48491716 -0.10100882
v 0 0.48491716 -0.10933109
v -0.039064992 0.48491716 0.094311178
v 0 0.48491716 0.10208171
v -0.07218267 0.48491716 0.072182648
v -0.0943112 0.48491716 0.039064959
v -0.10208173 0.48491716 -1.7655648e-08
v -0.0943112 0.48491716 -0.039065015
v -0.07218267 0.48491716 -0.07218273
v -0.039064996 0.48491716 -0.094311282
v 0 0.48491716 -0.10208174
v 0.025097895 0.28937194 0.060591653
v 0.046374843 0.28937194 0.046374828
v 0.060591668 0.28937194 0.025097875
v 0.065583952 0.28937194 -1.4883946e-08
v 0.060591668 0.28937194 -0.025097914
v 0.046374843 0.28937194 -0.046374891
v 0.025097895 0.28937194 -0.060591713
v 0.023078172 -0.071813956 0.05571565
v 0.027482005 -0.060527306 0.066347443
v 0.042642899 -0.071813956 0.042642906
v 0.050780121 -0.06052731 0.050780125
v 0.055715647 -0.071813956 0.023078173
v 0.066347435 -0.06052731 0.027482007
v 0.060306191 -0.071813956 -2.6234708e-09
v 0.071813956 -0.06052731 -2.4071471e-09
v 0.055715647 -0.071813956 -0.023078199
v 0.066347435 -0.06052731 -0.027482023
v 0.042642906 -0.071813956 -0.042642936
v 0.050780121 -0.06052731 -0.050780158
v 0.023078172 -0.071813963 -0.055715688
v 0.027482005 -0.060527317 -0.06634748
v 0.041839201 0.33778733 0.10100871
v 0.077308729 0.33778733 0.077308722
v 0.10100873 0.33778733 0.041839179
v 0.10933108 0.33778733 -1.0949047e-08
v 0.10100873 0.33778733 -0.041839216
v 0.077308729 0.33778733 -0.077308789
v 0.041839201 0.33778733 -0.10100882
v 0.039064992 0.46860611 0.094311178
v 0.07218267 0.46860611 0.072182648
v 0.0943112 0.46860611 0.039064962
v 0.10208173 0.46860611 -1.6942668e-08
v 0.0943112 0.46860611 -0.039065011
v 0.07218267 0.46860611 -0.07218273
v 0.039064996 0.46860611 -0.094311282
v 0.041839201 0.48491716 0.10100871
v 0.077308737 0.48491716 0.077308707
v 0.10100873 0.48491716 0.041839167
v 0.10933108 0.48491716 -1.7380298e-08
v 0.10100873 0.48491716 -0.041839223
v 0.077308737 0.48491716 -0.077308796
v 0.041839201 0.48491716 -0.10100882
v 0.039064992 0.48491716 0.094311178
v 0.07218267 0.48491716 0.072182648
v 0.0943112 0.48491716 0.039064959
v 0.10208173 0.48491716 -1.7655648e-08
v 0.0943112 0.48491716 -0.039065015
v 0.07218267 0.48491716 -0.07218273
v 0.039064996 0.48491716 -0.094311282
v -6.0595612e-11 0.21016851 -0.065583967
v -0.025097892 0.21016851 -0.060591713
v -6.0595612e-11 0.21016851 0.065583937
v -0.025097892 0.21016851 0.060591657
v -0.046374839 0.21016851 0.046374828
v -0.060591664 0.21016851 0.025097875
v -0.065583952 0.21016851 -1.2512546e-08
v -0.060591664 0.21016851 -0.025097914
v -0.046374839 0.21016851 -0.046374895
v 0.025097892 0.21016851 -0.060591713
v 0.025097892 0.21016851 0.060591657
v 0.046374839 0.21016851 0.046374828
v 0.060591664 0.21016851 0.025097875
v 0.065583952 0.21016851 -1.2512546e-08
v 0.060591664 0.21016851 -0.025097914
v 0.046374839 0.21016851 -0.046374895
v -6.0595612e-11 0.22966474 -0.065583967
v -0.025097892 0.22966474 -0.060591713
v 0.025097892 0.22966474 -0.060591713
v -6.0595612e-11 0.22966474 0.065583937
v -0.025097892 0.22966474 0.060591657
v -0.046374839 0.22966474 0.046374828
v -0.060591664 0.22966474 0.025097875
v -0.065583952 0.22966474 -1.3096275e-08
v -0.060591664 0.22966474 -0.025097914
v -0.046374839 0.22966474 -0.046374895
v 0.025097892 0.22966474 0.060591657
v 0.046374839 0.22966474 0.046374828
v 0.060591664 0.22966474 0.025097875
v 0.065583952 0.22966474 -1.3096275e-08
v 0.060591664 0.22966474 -0.025097914
v 0.046374839 0.22966474 -0.046374895
v 0 0.19850194 0.071813948
v -0.02748201 0.19850194 0.066347428
v -0.050780121 0.19850194 0.05078011
v -0.066347435 0.19850194 0.027481996
v -0.071813956 0.19850194 -1.1177838e-08
v -0.066347435 0.19850194 -0.027482035
v -0.050780121 0.19850194 -0.050780173
v 0.02748201 0.19850194 0.066347428
v 0.050780121 0.19850194 0.05078011
v 0.066347435 0.19850194 0.027481996
v 0.071813956 0.19850194 -1.1177838e-08
v 0.066347435 0.19850194 -0.027482035
v 0.050780121 0.19850194 -0.050780173
v 0 0.19850194 -0.071813971
v -0.02748201 0.19850194 -0.066347487
v 0.02748201 0.19850194 -0.066347487
v -6.0595612e-11 0.23575731 -0.065583967
v -0.025097892 0.23575731 -0.060591713
v 0.025097892 0.23575731 -0.060591713
v -6.0595612e-11 0.23575731 0.065583937
v -0.025097892 0.23575731 0.060591657
v -0.046374839 0.23575731 0.046374828
v -0.060591664 0.23575731 0.025097875
v -0.065583952 0.23575731 -1.3278689e-08
v -0.060591664 0.23575731 -0.025097914
v -0.046374839 0.23575731 -0.046374895
v 0.025097892 0.23575731 0.060591657
v 0.046374839 0.23575731 0.046374828
v 0.060591664 0.23575731 0.025097875
v 0.065583952 0.23575731 -1.3278689e-08
v 0.060591664 0.23575731 -0.025097914
v 0.046374839 0.23575731 -0.046374895
vt 0 1
vt 0 1
vt 0 1
vt 0 1
vt 0 1
vt 0 1
vt 0 1
vt 0 1
vt 0.71607196 0.93062761
vt 0.73997885 0.93062761
vt 0.73997885 0.93062761
vt 0.76388562 0.93062761
vt 0.76388562 0.93062761
vt 0.78779227 0.93062761
vt 0.78779227 0.93062761
vt 0.81169915 0.93062761
vt 0.81169915 0.93062761
vt 0.83560604 0.93062761
vt 0.83560604 0.93062761
vt 0.85951269 0.93062761
vt 0.85951269 0.93062761
vt 0.88341945 0.93062761
vt 0.88341945 0.93062761
vt 0.90732634 0.93062761
vt 0.49342948 0.86856309
vt 0.5107373 0.8644965
vt 0.47653976 0.86300965
vt 0.52582866 0.85142909
vt 0.46263963 0.84868176
vt 0.53640562 0.83135028
vt 0.45384526 0.82776068
vt 0.88341951 0.82594511
vt 0.88341951 0.82594511
vt 0.90732634 0.82594511
vt 0.85951269 0.82594508
vt 0.85951269 0.82594508
vt 0.81169915 0.82594505
vt 0.83560598 0.82594505
vt 0.83560598 0.82594505
vt 0.81169915 0.82594503
vt 0.78779233 0.82594498
vt 0.78779233 0.82594498
vt 0.76388568 0.82594495
vt 0.76388568 0.82594495
vt 0.71607196 0.82594493
vt 0.73997879 0.82594493
vt 0.73997891 0.82594493
vt 0.88341951 0.81404936
vt 0.90732634 0.81404936
vt 0.88341951 0.81404935
vt 0.85951269 0.81404933
vt 0.85951269 0.81404933
vt 0.83560598 0.8140493
vt 0.83560598 0.8140493
vt 0.81169915 0.81404927
vt 0.81169915 0.81404927
vt 0.78779233 0.81404921
vt 0.78779233 0.81404921
vt 0.76388562 0.81404918
vt 0.76388562 0.81404918
vt 0.73997879 0.81404917
vt 0.71607196 0.81404915
vt 0.73997891 0.81404915
vt 0.54085815 0.80731682
vt 0.45149553 0.80343148
vt 0.5385083 0.78298755
vt 0.455948 0.77939795
vt 0.90732634 0.77598304
vt 0.88341951 0.77598301
vt 0.88341951 0.77598301
vt 0.85951269 0.77598299
vt 0.85951269 0.77598298
vt 0.83560598 0.77598295
vt 0.83560598 0.77598295
vt 0.81169921 0.7759829
vt 0.81169921 0.7759829
vt 0.78779233 0.77598283
vt 0.78779233 0.77598283
vt 0.76388562 0.7759828
vt 0.76388562 0.7759828
vt 0.73997879 0.77598277
vt 0.71607196 0.77598274
vt 0.73997891 0.77598274
vt 0.52971399 0.76206645
vt 0.90732634 0.76044324
vt 0.85951269 0.7604432
vt 0.88341957 0.7604432
vt 0.88341957 0.7604432
vt 0.85951269 0.76044318
vt 0.83560598 0.76044315
vt 0.83560598 0.76044315
vt 0.81169927 0.76044309
vt 0.81169927 0.76044309
vt 0.78779233 0.76044303
vt 0.78779233 0.76044302
vt 0.76388562 0.760443
vt 0.76388562 0.760443
vt 0.73997879 0.76044294
vt 0.71607196 0.76044291
vt 0.73997891 0.76044291
vt 0.46652496 0.75931914
vt 0.51581377 0.74773857
vt 0.4816162 0.74625173
vt 0.49892414 0.74218518
vt 0.88974178 0.73830649
vt 0.88974178 0.72690839
vt 0.82395834 0.72522134
vt 0.82395834 0.72522134
vt 0.85028368 0.72181284
vt 0.80537271 0.72173285
vt 0.82832021 0.71469092
vt 0.82832021 0.71469092
vt 0.76818991 0.68795806
vt 0.76818991 0.68795806
vt 0.77624959 0.67989844
vt 0.77624959 0.67989844
vt 0.85071951 0.67450291
vt 0.85071951 0.67450291
vt 0.80580837 0.67442295
vt 0.80580837 0.67442295
vt 0.85107088 0.63637358
vt 0.85107088 0.63637358
vt 0.80615973 0.63629353
vt 0.80615973 0.63629353
vt 0.73092663 0.63218966
vt 0.73092663 0.63218966
vt 0.7414571 0.62782782
vt 0.7414571 0.62782782
vt 0.85142243 0.59824419
vt 0.85142243 0.59824419
vt 0.80651128 0.5981642
vt 0.80651128 0.5981642
vt 0.71784151 0.56640634
vt 0.71784151 0.56640634
vt 0.72923958 0.56640634
vt 0.72923958 0.56640634
vt 0.8517738 0.5601148
vt 0.8517738 0.5601148
vt 0.80686241 0.56003481
vt 0.80686241 0.56003481
vt 0.85212493 0.52198541
vt 0.85212493 0.52198541
vt 0.80721378 0.52190542
vt 0.80721378 0.52190542
vt 0.7414571 0.5049848
vt 0.7414571 0.5049848
vt 0.73092663 0.50062296
vt 0.73092663 0.50062296
vt 0.85247648 0.48385602
vt 0.85247648 0.48385602
vt 0.80756533 0.48377603
vt 0.80756533 0.48377603
vt 0.77624959 0.45291418
vt 0.77624959 0.45291418
vt 0.85282785 0.44572663
vt 0.85282785 0.44572663
vt 0.8079167 0.4456467
vt 0.8079167 0.4456467
vt 0.76818991 0.4448545
vt 0.76818991 0.4448545
vt 0.82832021 0.41812164
vt 0.82832021 0.41812164
vt 0.82395834 0.40759116
vt 0.82395834 0.40759116
vt 0.88974178 0.40590429
vt 0.8532635 0.39841676
vt 0.80835253 0.39833677
vt 0.88974178 0.39450616
vt 0.90732634 0.29856408
vt 0.88341945 0.29856396
vt 0.88341945 0.29856396
vt 0.85951269 0.29856384
vt 0.85951269 0.29856384
vt 0.83560604 0.29856372
vt 0.83560604 0.29856372
vt 0.81169915 0.2985636
vt 0.81169915 0.2985636
vt 0.78779227 0.29856348
vt 0.78779227 0.29856348
vt 0.73997885 0.29856336
vt 0.73997885 0.29856336
vt 0.76388562 0.29856336
vt 0.76388562 0.29856336
vt 0.71607196 0.29856277
vt 0.807832 0.27391946
vt 0.76966226 0.26632702
vt 0.76966226 0.26632702
vt 0.69636685 0.26167923
vt 0.72549385 0.26167923
vt 0.72549385 0.26167923
vt 0.75462079 0.26167923
vt 0.75462079 0.26167923
vt 0.78374773 0.26167923
vt 0.78374773 0.26167923
vt 0.81287485 0.26167923
vt 0.81287485 0.26167923
vt 0.8420018 0.26167923
vt 0.8420018 0.26167923
vt 0.87112862 0.26167923
vt 0.87112862 0.26167923
vt 0.90025568 0.26167923
vt 0.90025568 0.26167923
vt 0.9293825 0.26167923
vt 0.807832 0.25793624
vt 0.77577865 0.25156045
vt 0.77577865 0.25156045
vt 0.73730338 0.2447055
vt 0.73730338 0.2447055
vt 0.74860513 0.23340368
vt 0.74860513 0.23340368
vt 0.71568191 0.21234667
vt 0.71568191 0.21234667
vt 0.73044837 0.20623016
vt 0.73044837 0.20623016
vt 0.69636685 0.1880179
vt 0.72549385 0.1880179
vt 0.72549385 0.1880179
vt 0.75462079 0.1880179
vt 0.75462079 0.1880179
vt 0.78374773 0.1880179
vt 0.78374773 0.1880179
vt 0.81287485 0.1880179
vt 0.81287485 0.1880179
vt 0.8420018 0.1880179
vt 0.8420018 0.1880179
vt 0.87112862 0.1880179
vt 0.87112862 0.1880179
vt 0.90025568 0.1880179
vt 0.90025568 0.1880179
vt 0.9293825 0.1880179
vt 0.70808947 0.17417681
vt 0.70808947 0.17417681
vt 0.72407258 0.17417681
vt 0.72407258 0.17417681
vt 0.73044837 0.14212346
vt 0.73044837 0.14212346
vt 0.71568191 0.13600695
vt 0.71568191 0.13600695
vt 0.74860525 0.11494994
vt 0.74860525 0.11494994
vt 0.73730338 0.10364813
vt 0.73730338 0.10364813
vt 0.77577865 0.096793175
vt 0.77577865 0.096793175
vt 0.80783212 0.090417325
vt 0.76966226 0.08202666
vt 0.76966226 0.08202666
vt 0.807832 0.074434161
vt 0.69636685 0.025549471
vt 0.69636685 0.025549471
vt 0.72549385 0.025549471
vt 0.72549385 0.025549471
vt 0.75462079 0.025549471
vt 0.75462079 0.025549471
vt 0.78374773 0.025549471
vt 0.78374773 0.025549471
vt 0.81287485 0.025549471
vt 0.81287485 0.025549471
vt 0.8420018 0.025549471
vt 0.8420018 0.025549471
vt 0.87112862 0.025549471
vt 0.87112862 0.025549471
vt 0.90025568 0.025549471
vt 0.90025568 0.025549471
vt 0.9293825 0.025549471
vt 0.9293825 0.025549471
vn 0 0 -1
vn 0 2.9739404e-08 -1
vn 7.4878335e-07 0.20153147 -0.979482
vn 1.8551946e-06 -0.99881643 0.048638262
vn 2.028048e-05 -0.44268519 0.89667708
vn 3.8862228e-05 -0.18503672 -0.98273158
vn 4.3846667e-05 -0.99881703 -0.04862681
vn 5.1110983e-05 -0.039224148 -0.99923038
vn 0.0036911443 0.99919409 -0.039969672
vn 0.0036911443 0.99919981 0.039826065
vn 0.0036923364 0.99919784 0.039875783
vn 0.009550944 0.047582593 -0.99882168
vn 0.009556219 0.047553256 0.99882293
vn 0.0095576942 0.047536884 -0.99882382
vn 0.0095902011 0.047536884 -0.99882346
vn 0.0095966011 0.04753954 0.99882329
vn 0.0096174181 0.047555245 -0.99882239
vn 0.0096255541 0.047581911 0.99882096
vn 0.028228432 0.99920279 0.028230043
vn 0.035318285 -0.99572283 0.085374534
vn 0.035395086 -0.99572283 -0.085342109
vn 0.036882758 0.99920279 0.015278641
vn 0.036883563 0.99920279 -0.015276381
vn 0.065331519 -0.99572301 0.06532649
vn 0.083992481 0.41659826 -0.90520227
vn 0.084025383 0.41661397 -0.90519196
vn 0.085374713 -0.99572277 -0.035318434
vn 0.092391551 -0.99572277 4.170835e-05
vn 0.34316254 -0.44268519 0.82841367
vn 0.34321523 -0.44261923 0.82842708
vn 0.3823421 -0.039224297 0.92318797
vn 0.38239002 -0.039251409 -0.92316687
vn 0.69490719 -0.18500443 -0.69489384
vn 0.69492388 -0.18503639 -0.69486862
vn 0.70628071 0.047538482 0.70633411
vn 0.70656586 -0.039251305 0.70655787
vn 0.82842731 -0.44261926 0.34321499
vn 0.89667702 -0.4426854 -2.0023435e-05
vn 0.90794039 -0.18503636 -0.37603953
vn 0.90840244 0.41809693 -2.373755e-05
vn 0.92284966 0.047536884 -0.38221574
vn 0.92316818 -0.039251339 0.38238713
vn 0.92364836 0.022093266 0.38260376
vn 1 0 4.3525006e-08
vn 1 0 4.3525002e-08
vn -1.8533319e-06 -0.99881643 -0.048638228
vn -1.4591031e-05 0.022093415 0.99975598
vn -2.0258129e-05 -0.44268551 -0.8966769
vn -3.8735569e-05 -0.18503627 0.9827317
vn -4.3913722e-05 -0.99881703 0.048626214
vn -5.1081181e-05 -0.039224088 0.9992305
vn -0.015111491 0.99920624 0.036857639
vn -0.015276559 0.99920279 -0.036883377
vn -0.015278451 0.99920279 0.036882944
vn -0.035318166 -0.99572283 -0.085373938
vn -0.035359055 -0.99572301 -0.085355051
vn -0.065301597 -0.99572277 -0.065359861
vn -0.065360188 -0.99572277 0.065301359
vn -0.085355103 -0.99572301 0.035359092
vn -0.085374713 -0.99572283 0.035318375
vn -0.34760833 0.41809785 0.83926314
vn -0.34765267 0.41809461 -0.83924639
vn -0.38243651 -0.039224178 0.92314881
vn -0.69490719 -0.18500443 -0.6948939
vn -0.70659876 -0.039223999 0.70652646
vn -0.70710707 -2.1628654e-08 0.70710653
vn -0.82845974 -0.44261923 -0.34313634
vn -0.82845974 -0.44261926 0.34313661
vn -0.83924532 0.41809693 0.34765252
vn -0.83926344 0.41809693 -0.34760886
vn -0.89667702 -0.44268543 2.0306557e-05
vn -0.90492344 0.20153141 0.37483129
vn -0.90840244 0.41809693 2.3648143e-05
vn -0.92282057 0.047536884 -0.38228592
vn -0.92316818 -0.039251339 0.38238713
vn -1 1.7490549e-08 2.4180558e-08
vn -1 3.9119204e-08 4.3525002e-08
vn 0.0095619271 0.047536884 0.9988237
vn 0.01527653 0.99920279 0.036883738
vn 0.092389174 -0.99572301 -3.4887344e-06
vn 0.37610176 -0.18500452 -0.90792108
vn 0.38228562 0.04753603 -0.92282075
vn 0.3826032 0.022093207 -0.9236486
vn 0.64230829 0.41805807 0.64239204
vn 0.64235455 0.41809693 0.64232057
vn 0.69486862 -0.18503621 0.69492388
vn 0.7063151 0.04755282 0.70629865
vn 0.70633465 0.047536202 -0.70628017
vn 0.70710713 0 -0.70710647
vn 0.8392635 0.41809693 0.34760866
vn 0.92316681 -0.039251361 -0.38239032
vn 0.99923044 -0.039224029 5.1192939e-05
vn 0.99975592 0.022093251 1.4541671e-05
vn -0.036882762 0.99920279 -0.015278304
vn -0.065331526 -0.99572301 -0.065326437
vn -0.092389174 -0.99572301 3.5446137e-06
vn -0.3431752 -0.44261932 -0.82844365
vn -0.34761885 0.41805792 0.8392787
vn -0.37483123 0.2015315 -0.90492356
vn -0.38234141 -0.039224207 -0.92318833
vn -0.63406092 -0.44268543 -0.63403189
vn -0.64232117 0.41809744 0.64235359
vn -0.69259793 0.20153145 -0.69259876
vn -0.69259888 0.20153138 0.69259787
vn -0.70631462 0.04755275 -0.70629907
vn -0.70652682 -0.039224148 -0.7065984
vn -0.70710713 0 -0.70710647
vn -0.90492302 0.20153153 -0.37483239
vn -0.92316681 -0.039251361 -0.38239032
vn -0.99886948 0.047536884 -3.7908554e-05
vn -0.99923044 -0.039223999 -5.1155686e-05
vn -0.99975592 0.022093251 -3.9981273e-08
vn 0.0037031942 0.99919707 -0.039894067
vn 0.0037044757 0.99919707 0.03989429
vn 0.015278475 0.99920279 -0.036882583
vn 0.015376845 0.99920624 0.036747728
vn 0.036783613 0.9992063 0.015288193
vn 0.084001258 0.41661572 0.90519345
vn 0.084012762 0.41657299 0.90521204
vn 0.085355118 -0.99572301 -0.035359018
vn 0.3476091 0.41809395 -0.83926487
vn 0.37603956 -0.18503621 0.90794039
vn 0.38221604 0.047540035 0.92284942
vn 0.38268334 2.5684045e-08 -0.9238795
vn 0.69259846 0.20153153 -0.69259816
vn 0.70656073 -0.039251383 -0.706563
vn 0.70710719 1.0814335e-08 -0.70710641
vn 0.92387927 0 0.38268402
vn 0.98273766 -0.18500443 -8.8101942e-06
vn 0.99886954 0.047536884 3.798306e-05
vn -0.0074893804 0.99926287 -0.037651621
vn -0.028228421 0.99920279 -0.028229706
vn -0.036783583 0.9992063 0.015288027
vn -0.34316188 -0.44268554 -0.82841378
vn -0.38221532 0.047536884 -0.92284983
vn -0.63403189 -0.44268525 0.63406086
vn -0.69486916 -0.18503645 -0.69492328
vn -0.69492352 -0.18503627 0.69486892
vn -0.70655787 -0.039251309 0.70656586
vn -0.70656073 -0.03925138 -0.70656306
vn -0.70710719 3.4618347e-10 -0.70710641
vn -0.82841361 -0.44268531 0.34316278
vn -0.92387927 3.9119207e-08 0.38268402
vn -0.98273766 -0.18500447 -8.8275838e-06
vn 2.1234451e-05 -0.44261929 0.89670962
vn 0.0095874546 4.7995429e-05 -0.99995404
vn 0.0095874546 4.7768946e-05 0.99995404
vn 0.0095874546 0.047534779 -0.99882358
vn 0.0095874546 0.04753479 0.99882358
vn 0.028133353 0.9992063 0.028201079
vn 0.035352569 -0.99572301 -0.085357741
vn 0.083936952 0.41666496 0.9051767
vn 0.083936952 0.41653481 -0.9052366
vn 0.084014557 0.41657299 -0.90521187
vn 0.085357808 -0.99572301 0.035352573
vn 0.34761891 0.41805792 0.8392787
vn 0.374832 0.20153153 -0.90492314
vn 0.3760694 -0.18500441 0.90793455
vn 0.38243589 -0.039224178 -0.92314917
vn 0.38268408 0 0.92387921
vn 0.69490689 -0.18500435 0.69489413
vn 0.7063095 0.047552738 -0.70630413
vn 0.70694464 0.022093326 -0.70692372
vn 0.90791053 -0.18503633 0.37611163
vn -4.8361115e-09 0 1
vn -4.8361115e-09 -2.1831259e-08 1
vn -2.1225356e-05 -0.44261894 -0.8967098
vn -0.028229898 0.99920279 0.028228577
vn -0.03674693 0.9992063 -0.015376662
vn -0.085357808 -0.99572301 -0.035352532
vn -0.38225994 0.047552783 -0.9228304
vn -0.64239329 0.41805807 0.64230704
vn -0.69490689 -0.18500435 0.69489413
vn -0.70628089 0.047536884 -0.70633388
vn -0.70629901 0.04755282 0.70631474
vn -0.70693415 0.022093222 0.70693421
vn -0.90792102 -0.18500441 -0.37610206
vn -0.92318791 -0.03922376 0.3823421
vn 0.0036825156 0.9991979 -0.039874051
vn 0.01528829 0.9992063 -0.036783889
vn 0.028229885 0.99920279 -0.028228242
vn 0.035359129 -0.99572301 0.085355058
vn 0.036856964 0.9992063 -0.015111097
vn 0.039922044 0.99920279 1.2144446e-06
vn 0.065301269 -0.99572277 0.065360159
vn 0.065360397 -0.99572277 -0.065301001
vn 0.084007591 0.41661572 -0.90519285
vn 0.0840213 0.41661572 0.9051916
vn 0.085342854 -0.99572283 0.03539525
vn 0.37611067 -0.18503648 -0.90791088
vn 0.38257682 0.022093326 0.92365944
vn 0.63406062 -0.44268525 0.63403219
vn 0.64236474 0.41805789 -0.64233577
vn 0.706599 -0.039224088 -0.70652628
vn 0.82841372 -0.44268531 -0.34316242
vn 0.82848907 -0.4426192 -0.34306577
vn 0.89670968 -0.4426192 -2.1187238e-05
vn 0.9049232 0.20153145 0.37483197
vn 0.92314887 -0.039223939 0.38243639
vn 0.92318797 -0.039223909 -0.38234192
vn 0.92387938 -2.1628663e-08 0.38268387
vn 0.9988687 0.047552798 -2.2519264e-06
vn -1.8822934e-06 -0.039251298 0.99922937
vn -0.028201111 0.9992063 -0.028133452
vn -0.03539516 -0.99572283 0.085342675
vn -0.039922044 0.99920279 -8.6659566e-07
vn -0.065326542 -0.99572301 0.065331466
vn -0.085342914 -0.99572277 -0.035395227
vn -0.092391461 -0.99572277 -4.1797757e-05
vn -0.37606943 -0.18500441 0.90793455
vn -0.38228619 0.047541127 0.92282027
vn -0.3825897 0.022093177 -0.9236542
vn -0.3826834 2.5684045e-08 -0.9238795
vn -0.38268411 0 0.92387927
vn -0.64235425 0.41809583 -0.64232153
vn -0.70633435 0.04754008 0.70628023
vn -0.89670968 -0.4426192 -2.1174201e-05
vn -0.92387938 -4.1381156e-09 0.3826839
vn -0.9988687 0.047552764 -2.248082e-06
vn 8.8738861e-06 -0.18500428 -0.98273772
vn 0.028201276 0.9992063 -0.028133415
vn 0.34313598 -0.44261932 -0.82845986
vn 0.34765211 0.41809693 0.83924556
vn 0.3476564 0.41805807 -0.83926302
vn 0.38224855 0.047552798 0.92283517
vn 0.38238707 -0.039251305 0.92316818
vn 0.83927852 0.41805795 -0.34761924
vn 0.90842038 0.4180578 -2.0094056e-05
vn 0.92282039 0.047536884 0.38228619
vn 0.92365962 0.022093385 -0.38257656
vn 0.92387944 0 -0.38268372
vn 0.979482 0.20153148 -3.7728228e-08
vn -1.4069369e-08 0.2015316 0.979482
vn -1.8789402e-06 -0.039251376 -0.99922937
vn -8.8738934e-06 -0.18500443 0.98273766
vn -2.057131e-05 0.022093415 -0.99975592
vn -0.015288209 0.9992063 -0.036783922
vn -0.028133417 0.9992063 0.028201016
vn -0.035352636 -0.99572301 0.085357755
vn -0.039835084 0.99920624 4.7807891e-05
vn -0.34312502 -0.44268531 0.82842922
vn -0.37603894 -0.18503648 -0.90794063
vn -0.37606898 -0.18500452 -0.90793467
vn -0.38238707 -0.039251305 0.92316818
vn -0.6423648 0.41805798 -0.64233565
vn -0.83927852 0.41805804 -0.34761915
vn -0.83930618 0.41805804 0.34755236
vn -0.90842038 0.41805783 -2.0029835e-05
vn -0.92387944 0 -0.38268372
vn -0.92387944 -1.0468153e-08 -0.38268355
vn -0.979482 0.20153147 -8.0326572e-07
vn 0.0077696582 0.9992066 0.039061066
vn 0.039835118 0.99920624 4.7961392e-05
vn 0.065326557 -0.99572301 -0.065331414
vn 0.083994314 0.41659823 0.90520215
vn 0.34312433 -0.44268554 -0.82842934
vn 0.37483186 0.2015315 0.9049232
vn 0.38224477 0.047552783 -0.92283666
vn 0.63408458 -0.44261912 -0.6340543
vn 0.70652664 -0.039224058 0.70659858
vn 0.70692384 0.022093236 0.70694447
vn 0.8284291 -0.44268528 0.34312537
vn 0.83925092 0.41805795 0.34768566
vn 0.90492332 0.20153154 -0.37483162
vn 0.9238795 0 -0.3826836
vn 0.9827317 -0.18503654 3.9041042e-05
vn -0.036883555 0.99920279 0.015276721
vn -0.34309763 -0.44261926 0.82847583
vn -0.37611121 -0.18503633 0.90791076
vn -0.38224858 0.047552794 0.92283517
vn -0.38238376 -0.039251409 -0.92316955
vn -0.38268417 -1.1016934e-08 0.92387927
vn -0.63408458 -0.44261914 0.63405454
vn -0.63414466 -0.44261914 -0.63399422
vn -0.70693433 0.022093281 -0.70693403
vn -0.9079107 -0.18503642 -0.37611121
vn -0.92284954 0.047536884 0.38221586
vn -0.92314899 -0.039223909 -0.38243607
vn -0.92365396 0.022093251 0.38259029
vn -0.9827317 -0.18503633 -3.8720667e-05
vn 0.0095875254 -4.5705451e-07 0.99995404
vn 0.0095875254 -4.5987375e-07 -0.99995404
vn 0.38268349 0 -0.92387956
vn 0.3826842 -1.081433e-08 0.92387927
vn 0.63403219 -0.44268543 -0.63406062
vn 0.63408464 -0.44261914 0.63405448
vn 0.64232105 0.41809455 -0.64235556
vn 0.69259828 0.20153138 0.69259846
vn 0.70710701 0 0.70710653
vn 0.70710701 -2.1628653e-08 0.70710653
vn 0.83924526 0.41809693 -0.3476527
vn 0.90793461 -0.18500435 0.37606955
vn 0.90793461 -0.1850044 -0.37606928
vn 0.92283338 0.047552764 -0.38225263
vn 0.92283338 0.047552824 0.38225281
vn 0.99922937 -0.039251354 -1.8116395e-06
vn -0.34765646 0.41805807 -0.83926302
vn -0.3748326 0.20153153 0.9049229
vn -0.38259026 0.022093385 0.9236539
vn -0.38268349 0 -0.92387956
vn -0.70710701 0 0.70710653
vn -0.82842916 -0.4426854 -0.34312496
vn -0.90793461 -0.18500437 0.37606955
vn -0.90794033 -0.18503627 0.37603974
vn -0.92283338 0.047552802 0.38225281
vn -0.92283338 0.047552757 -0.38225266
vn -0.92365402 0.022093385 -0.38259
vn -0.99922937 -0.039251354 -1.8150708e-06
f 164/46/213 9/10/97 1/9/167 163/45/2
f 166/34/166 2/24/145 3/22/268 167/32/272
f 167/32/272 3/22/268 4/20/273 168/35/66
f 168/35/66 4/20/273 5/18/68 169/38/218
f 169/38/218 5/18/68 6/16/217 170/37/76
f 170/37/76 6/16/217 7/14/67 171/41/250
f 171/41/250 7/14/67 8/12/274 172/43/141
f 172/43/141 8/12/274 9/10/97 164/46/213
f 13/185/51 15/186/63 14/205/205 12/204/50
f 15/186/63 17/207/65 16/209/58 14/205/205
f 17/207/65 19/211/178 18/213/60 16/209/58
f 19/211/178 21/231/111 20/233/209 18/213/60
f 21/231/111 23/237/278 22/235/208 20/233/209
f 23/237/278 25/241/106 24/239/57 22/235/208
f 25/241/106 27/246/100 26/243/55 24/239/57
f 27/246/100 11/248/8 10/245/7 26/243/55
f 10/245/46 12/204/4 14/205/239 16/209/207 18/213/59 20/233/96 22/235/170 24/239/95 26/243/56
f 147/85/47 148/87/299 15/170/244 13/169/203
f 148/87/299 149/86/176 17/172/139 15/170/244
f 149/86/176 150/90/279 19/174/75 17/172/139
f 150/90/279 151/92/112 21/176/308 19/174/75
f 151/92/112 152/95/307 23/178/109 21/176/308
f 152/95/307 153/96/275 25/182/140 23/178/109
f 153/96/275 161/98/212 27/180/271 25/182/140
f 5/197/142 4/199/136 31/226/138 32/224/304
f 6/195/71 5/197/142 32/224/304 33/222/280
f 7/193/302 6/195/71 33/222/280 34/220/276
f 8/191/101 7/193/302 34/220/276 35/218/137
f 9/189/134 8/191/101 35/218/137 36/216/242
f 1/188/48 9/189/134 36/216/242 28/215/6
f 3/201/241 2/203/5 29/230/49 30/228/269
f 4/199/136 3/201/241 30/228/269 31/226/138
f 34/220/177 53/255/306 54/253/105 35/218/64
f 35/218/64 54/253/105 55/251/171 36/216/243
f 36/216/243 55/251/171 56/250/12 46/249/282 28/215/220
f 30/228/210 48/263/270 50/261/175 31/226/173
f 31/226/173 50/261/175 51/259/305 32/224/303
f 32/224/303 51/259/305 52/257/219 33/222/144
f 33/222/144 52/257/219 53/255/306 34/220/177
f 43/143/117 44/151/150 63/149/84 62/141/263
f 42/139/253 43/143/117 62/141/263 61/137/228
f 47/4/147 38/2/9 58/7/153 49/5/149
f 41/131/183 42/139/253 61/137/228 60/129/227
f 40/123/221 41/131/183 60/129/227 59/121/193
f 58/106/187 57/111/121 48/107/211 49/105/78
f 57/111/121 59/115/287 50/113/216 48/107/211
f 59/115/287 60/127/291 51/125/277 50/113/216
f 60/127/291 61/135/40 52/133/110 51/125/277
f 61/135/40 62/145/90 53/147/74 52/133/110
f 62/145/90 63/153/85 54/159/174 53/147/74
f 63/153/85 64/161/223 55/163/135 54/159/174
f 64/161/223 65/165/118 56/168/14 55/163/135
f 44/151/150 45/157/116 64/155/156 63/149/84
f 45/157/116 37/167/252 65/166/119 64/155/156
f 38/110/179 39/119/180 57/117/224 58/109/154
f 37/1/10 46/3/146 56/6/148 65/8/152
f 39/119/180 40/123/221 59/121/193 57/117/224
f 47/265/281 49/266/13 48/263/270 30/228/210 29/230/235
f 165/47/124 163/45/2 1/9/167 72/11/222
f 166/34/166 173/33/284 66/23/30 2/24/145
f 173/33/284 174/36/290 67/21/286 66/23/30
f 174/36/290 175/39/201 68/19/37 67/21/286
f 175/39/201 176/40/45 69/17/197 68/19/37
f 176/40/45 177/42/265 70/15/196 69/17/197
f 177/42/265 178/44/127 71/13/259 70/15/196
f 178/44/127 165/47/124 72/11/222 71/13/259
f 13/185/51 12/204/50 73/206/20 74/187/31
f 74/187/31 73/206/20 75/210/185 76/208/260
f 76/208/260 75/210/185 77/214/189 78/212/199
f 78/212/199 77/214/189 79/234/28 80/232/92
f 80/232/92 79/234/28 81/236/27 82/238/200
f 82/238/200 81/236/27 83/240/186 84/242/194
f 84/242/194 83/240/186 85/244/21 86/247/159
f 86/247/159 85/244/21 10/245/7 11/248/8
f 10/245/46 85/244/151 83/240/254 81/236/120 79/234/80 77/214/155 75/210/24 73/206/182 12/204/4
f 154/88/191 147/85/47 13/169/203 74/171/226
f 155/89/261 154/88/191 74/171/226 76/173/36
f 156/91/43 155/89/261 76/173/36 78/175/42
f 157/93/93 156/91/43 78/175/42 80/177/296
f 158/94/230 157/93/93 80/177/296 82/179/91
f 159/97/163 158/94/230 82/179/91 84/183/126
f 86/181/32 162/100/83 159/97/163 84/183/126
f 68/198/262 89/225/164 88/227/86 67/200/192
f 69/196/38 90/223/266 89/225/164 68/198/262
f 70/194/195 91/221/39 90/223/266 69/196/38
f 71/192/285 92/219/34 91/221/39 70/194/195
f 72/190/256 93/217/190 92/219/34 71/192/285
f 1/188/48 28/215/6 93/217/190 72/190/256
f 66/202/29 87/229/122 29/230/49 2/203/5
f 67/200/192 88/227/86 87/229/122 66/202/29
f 91/221/293 92/219/33 106/254/162 105/256/294
f 92/219/33 93/217/81 107/252/258 106/254/162
f 93/217/81 28/215/220 46/249/282 56/250/17 107/252/258
f 87/229/158 88/227/161 102/262/87 101/264/225
f 88/227/161 89/225/292 103/260/295 102/262/87
f 89/225/292 90/223/129 104/258/202 103/260/295
f 90/223/129 91/221/293 105/256/294 104/258/202
f 98/144/133 112/142/247 113/150/172 99/152/238
f 97/140/240 111/138/248 112/142/247 98/144/133
f 96/132/169 110/130/246 111/138/248 97/140/240
f 95/124/204 109/122/245 110/130/246 96/132/169
f 58/106/26 49/105/16 101/108/123 108/112/62
f 108/112/62 101/108/123 102/114/35 109/116/215
f 109/116/215 102/114/35 103/126/229 110/128/70
f 110/128/70 103/126/229 104/134/130 111/136/73
f 111/136/73 104/134/130 105/148/41 112/146/69
f 112/146/69 105/148/41 106/160/88 113/154/102
f 113/154/102 106/160/88 107/164/82 114/162/61
f 114/162/61 107/164/82 56/168/15 65/165/188
f 99/152/238 113/150/172 114/156/98 100/158/52
f 100/158/52 114/156/98 65/166/255 37/167/11
f 38/110/131 58/109/25 108/118/297 94/120/237
f 94/120/237 108/118/297 109/122/245 95/124/204
f 47/265/281 29/230/235 87/229/158 101/264/225 49/266/18
f 159/97/163 162/100/83 124/83/157 130/80/125
f 158/94/230 159/97/163 130/80/125 129/78/264
f 157/93/93 158/94/230 129/78/264 128/76/232
f 156/91/43 157/93/93 128/76/232 127/74/198
f 155/89/261 156/91/43 127/74/198 126/72/288
f 154/88/191 155/89/261 126/72/288 125/70/257
f 147/85/47 154/88/191 125/70/257 117/68/233
f 162/100/83 160/99/236 115/82/3 124/83/157
f 153/96/275 123/79/103 116/81/99 161/98/212
f 152/95/307 122/77/108 123/79/103 153/96/275
f 151/92/112 121/75/251 122/77/108 152/95/307
f 150/90/279 120/73/72 121/75/251 151/92/112
f 149/86/176 119/71/104 120/73/72 150/90/279
f 148/87/299 118/69/298 119/71/104 149/86/176
f 147/85/47 117/68/233 118/69/298 148/87/299
f 161/98/212 116/81/99 115/82/3 160/99/236
f 130/80/125 124/83/157 133/63/283 146/60/89
f 129/78/264 130/80/125 146/60/89 145/58/231
f 128/76/232 129/78/264 145/58/231 144/56/44
f 127/74/198 128/76/232 144/56/44 143/54/128
f 126/72/288 127/74/198 143/54/128 142/52/289
f 125/70/257 126/72/288 142/52/289 141/48/160
f 117/68/233 125/70/257 141/48/160 134/49/165
f 124/83/157 115/82/3 131/62/1 133/63/283
f 123/79/103 140/59/107 132/61/300 116/81/99
f 122/77/108 139/57/249 140/59/107 123/79/103
f 121/75/251 138/55/77 139/57/249 122/77/108
f 120/73/72 137/53/143 138/55/77 121/75/251
f 119/71/104 136/51/301 137/53/143 120/73/72
f 118/69/298 135/50/214 136/51/301 119/71/104
f 117/68/233 134/49/165 135/50/214 118/69/298
f 116/81/99 132/61/300 131/62/1 115/82/3
f 27/180/271 161/98/212 160/99/236 11/184/234
f 11/184/234 160/99/236 162/100/83 86/181/32
f 146/60/89 133/63/283 165/47/124 178/44/127
f 145/58/231 146/60/89 178/44/127 177/42/265
f 144/56/44 145/58/231 177/42/265 176/40/45
f 143/54/128 144/56/44 176/40/45 175/39/201
f 142/52/289 143/54/128 175/39/201 174/36/290
f 141/48/160 142/52/289 174/36/290 173/33/284
f 134/49/165 141/48/160 173/33/284 166/34/166
f 133/63/283 131/62/1 163/45/2 165/47/124
f 140/59/107 172/43/141 164/46/213 132/61/300
f 139/57/249 171/41/250 172/43/141 140/59/107
f 138/55/77 170/37/76 171/41/250 139/57/249
f 137/53/143 169/38/218 170/37/76 138/55/77
f 136/51/301 168/35/66 169/38/218 137/53/143
f 135/50/214 167/32/272 168/35/66 136/51/301
f 134/49/165 166/34/166 167/32/272 135/50/214
f 132/61/300 164/46/213 163/45/2 131/62/1
f 38/64/113 94/66/53 95/84/132 96/102/94 97/104/206 98/103/267 99/101/168 100/67/54 37/65/114 45/31/79 44/29/19 43/27/22 42/25/184 41/26/23 40/28/181 39/30/115
